<?xml version="1.0"?>
<svg xmlns="http://www.w3.org/2000/svg" version="1.1" width="600px" height="600px" viewBox="0 0 200 200" style="overflow:hidden!important;">
  <defs id="SvgjsDefs7347">
    <radialGradient id="SvgjsRadialGradient7408" cx="100" cy="113" r="40" gradientUnits="userSpaceOnUse" class="svga-on-canvas-facehighlight-gradient-single-0">
      <stop id="SvgjsStop7409" stop-opacity="0.5" stop-color="#dcbaa4" offset="0"/>
      <stop id="SvgjsStop7410" stop-opacity="0" stop-color="#cda184" offset="0.9"/>
    </radialGradient>
    <radialGradient id="SvgjsRadialGradient7412" cx="100" cy="57" r="36" gradientUnits="userSpaceOnUse" class="svga-on-canvas-facehighlight-gradient-single-1">
      <stop id="SvgjsStop7413" stop-opacity="0.5" stop-color="#dcbaa4" offset="0"/>
      <stop id="SvgjsStop7414" stop-opacity="0" stop-color="#cda184" offset="0.9"/>
    </radialGradient>
    <radialGradient id="SvgjsRadialGradient7497" cx="-565.337" cy="-492.691" r="84.644" gradientTransform="matrix(0.0991 8.856325e-004 -0.0011 0.0991 130.3774 136.3533)" gradientUnits="userSpaceOnUse" class="svga-on-canvas-eyesiris-gradient-left-2">
      <stop id="SvgjsStop7498" stop-opacity="0.8" stop-color="#ffffff" offset="0"/>
      <stop id="SvgjsStop7499" stop-opacity="0" stop-color="#ffffff" offset="1"/>
    </radialGradient>
    <linearGradient id="SvgjsLinearGradient7503" x1="122.283" y1="93.047" x2="123.61" y2="91.466" gradientTransform="matrix(1 0 0 1 -52 0)" gradientUnits="userSpaceOnUse" class="svga-on-canvas-eyesiris-gradient-left-5">
      <stop id="SvgjsStop7504" stop-opacity="1" stop-color="#ffffff" offset="0"/>
      <stop id="SvgjsStop7505" stop-opacity="0" stop-color="#ffffff" offset="1"/>
    </linearGradient>
    <linearGradient id="SvgjsLinearGradient7507" x1="127" y1="85" x2="125" y2="87" gradientTransform="matrix(1 0 0 1 -50 0)" gradientUnits="userSpaceOnUse" class="svga-on-canvas-eyesiris-gradient-left-6">
      <stop id="SvgjsStop7508" stop-opacity="1" stop-color="#ffffff" offset="0"/>
      <stop id="SvgjsStop7509" stop-opacity="0" stop-color="#ffffff" offset="1"/>
    </linearGradient>
    <linearGradient id="SvgjsLinearGradient7511" x1="130" y1="81" x2="126" y2="85" gradientTransform="matrix(1 0 0 1 -50 0)" gradientUnits="userSpaceOnUse" class="svga-on-canvas-eyesiris-gradient-left-7">
      <stop id="SvgjsStop7512" stop-opacity="1" stop-color="#ffffff" offset="0"/>
      <stop id="SvgjsStop7513" stop-opacity="0" stop-color="#ffffff" offset="1"/>
    </linearGradient>
    <radialGradient id="SvgjsRadialGradient7520" cx="-584.778" cy="-487.329" r="84.644" gradientTransform="matrix(0.0991 8.856325e-004 -0.0011 0.0991 182.3104 135.839)" gradientUnits="userSpaceOnUse" class="svga-on-canvas-eyesiris-gradient-right-2">
      <stop id="SvgjsStop7521" stop-opacity="0.8" stop-color="#ffffff" offset="0"/>
      <stop id="SvgjsStop7522" stop-opacity="0" stop-color="#ffffff" offset="1"/>
    </radialGradient>
    <linearGradient id="SvgjsLinearGradient7526" x1="120.284" y1="93.047" x2="121.611" y2="91.467" gradientUnits="userSpaceOnUse" class="svga-on-canvas-eyesiris-gradient-right-5">
      <stop id="SvgjsStop7527" stop-opacity="1" stop-color="#ffffff" offset="0"/>
      <stop id="SvgjsStop7528" stop-opacity="0" stop-color="#ffffff" offset="1"/>
    </linearGradient>
    <linearGradient id="SvgjsLinearGradient7530" x1="127" y1="85" x2="125" y2="87" gradientUnits="userSpaceOnUse" class="svga-on-canvas-eyesiris-gradient-right-6">
      <stop id="SvgjsStop7531" stop-opacity="1" stop-color="#ffffff" offset="0"/>
      <stop id="SvgjsStop7532" stop-opacity="0" stop-color="#ffffff" offset="1"/>
    </linearGradient>
    <linearGradient id="SvgjsLinearGradient7534" x1="130" y1="81" x2="126" y2="85" gradientUnits="userSpaceOnUse" class="svga-on-canvas-eyesiris-gradient-right-7">
      <stop id="SvgjsStop7535" stop-opacity="1" stop-color="#ffffff" offset="0"/>
      <stop id="SvgjsStop7536" stop-opacity="0" stop-color="#ffffff" offset="1"/>
    </linearGradient>
    <linearGradient id="SvgjsLinearGradient7668" x1="100" y1="141" x2="100" y2="137" gradientUnits="userSpaceOnUse" class="svga-on-canvas-mouth-gradient-single-0">
      <stop id="SvgjsStop7669" stop-opacity="1" stop-color="#c59575" offset="0.1"/>
      <stop id="SvgjsStop7670" stop-opacity="1" stop-color="#be8a67" offset="1"/>
    </linearGradient>
    <linearGradient id="SvgjsLinearGradient7698" x1="99.98" y1="171.27" x2="99.98" y2="136.351" gradientUnits="userSpaceOnUse" class="svga-on-canvas-chinshadow-gradient-single-0">
      <stop id="SvgjsStop7699" stop-opacity="0.8" stop-color="#be8a67" offset="0"/>
      <stop id="SvgjsStop7700" stop-opacity="1" stop-color="#9f6037" offset="0.7"/>
    </linearGradient>
    <radialGradient id="SvgjsRadialGradient7765" cx="126.403" cy="87.57" r="15.179" gradientTransform="matrix(-0.9148 0.0479 0.0523 0.9986 184.4314 -6.6017)" gradientUnits="userSpaceOnUse" class="svga-on-canvas-eyesback-gradient-left-0">
      <stop id="SvgjsStop7766" stop-opacity="1" stop-color="#ffffff" offset="0"/>
      <stop id="SvgjsStop7767" stop-opacity="1" stop-color="#fdfefe" offset="0.544"/>
      <stop id="SvgjsStop7768" stop-opacity="1" stop-color="#f6f8f9" offset="0.74"/>
      <stop id="SvgjsStop7769" stop-opacity="1" stop-color="#eaeff2" offset="0.879"/>
      <stop id="SvgjsStop7770" stop-opacity="1" stop-color="#d9e3e8" offset="0.992"/>
      <stop id="SvgjsStop7771" stop-opacity="1" stop-color="#d8e2e7" offset="1"/>
    </radialGradient>
    <radialGradient id="SvgjsRadialGradient7773" cx="126.401" cy="87.57" r="15.179" gradientTransform="matrix(0.9148 0.0479 -0.0523 0.9986 15.5691 -6.6017)" gradientUnits="userSpaceOnUse" class="svga-on-canvas-eyesback-gradient-right-0">
      <stop id="SvgjsStop7774" stop-opacity="1" stop-color="#ffffff" offset="0"/>
      <stop id="SvgjsStop7775" stop-opacity="1" stop-color="#fdfefe" offset="0.544"/>
      <stop id="SvgjsStop7776" stop-opacity="1" stop-color="#f6f8f9" offset="0.74"/>
      <stop id="SvgjsStop7777" stop-opacity="1" stop-color="#eaeff2" offset="0.879"/>
      <stop id="SvgjsStop7778" stop-opacity="1" stop-color="#d9e3e8" offset="0.992"/>
      <stop id="SvgjsStop7779" stop-opacity="1" stop-color="#d8e2e7" offset="1"/>
    </radialGradient>
    <radialGradient id="SvgjsRadialGradient7781" cx="126.403" cy="87.57" r="15.179" gradientTransform="matrix(-0.9148 0.0479 0.0523 0.9986 184.4314 -6.6017)" gradientUnits="userSpaceOnUse" class="svga-on-canvas-eyesfront-gradient-left-0">
      <stop id="SvgjsStop7782" stop-opacity="1" stop-color="#ffffff" offset="0"/>
      <stop id="SvgjsStop7783" stop-opacity="1" stop-color="#fdfefe" offset="0.544"/>
      <stop id="SvgjsStop7784" stop-opacity="1" stop-color="#f6f8f9" offset="0.74"/>
      <stop id="SvgjsStop7785" stop-opacity="1" stop-color="#eaeff2" offset="0.879"/>
      <stop id="SvgjsStop7786" stop-opacity="1" stop-color="#d9e3e8" offset="0.992"/>
      <stop id="SvgjsStop7787" stop-opacity="1" stop-color="#d8e2e7" offset="1"/>
    </radialGradient>
    <radialGradient id="SvgjsRadialGradient7791" cx="122.581" cy="83.48" fx="136.229" fy="83.114" r="16.914" gradientTransform="matrix(0.99 0.1411 0.1085 -0.7608 -52.9892 129.6892)" gradientUnits="userSpaceOnUse" class="svga-on-canvas-eyesfront-gradient-left-3">
      <stop id="SvgjsStop7792" stop-opacity="1" stop-color="#be8a67" offset="0"/>
      <stop id="SvgjsStop7793" stop-opacity="0.3" stop-color="#be8a67" offset="0.7"/>
      <stop id="SvgjsStop7794" stop-opacity="0" stop-color="#cda184" offset="1"/>
    </radialGradient>
    <radialGradient id="SvgjsRadialGradient7796" cx="70.243" cy="108.081" r="29.51" gradientTransform="matrix(1.0336 0 0 1.0336 -1.941 1.8777)" gradientUnits="userSpaceOnUse" class="svga-on-canvas-eyesfront-gradient-left-4">
      <stop id="SvgjsStop7797" stop-opacity="0" stop-color="#000000" offset="0.95"/>
      <stop id="SvgjsStop7798" stop-opacity="0.3" stop-color="#000000" offset="1"/>
    </radialGradient>
    <radialGradient id="SvgjsRadialGradient7802" cx="126.401" cy="87.57" r="15.179" gradientTransform="matrix(0.9148 0.0479 -0.0523 0.9986 15.5691 -6.6017)" gradientUnits="userSpaceOnUse" class="svga-on-canvas-eyesfront-gradient-right-0">
      <stop id="SvgjsStop7803" stop-opacity="1" stop-color="#ffffff" offset="0"/>
      <stop id="SvgjsStop7804" stop-opacity="1" stop-color="#fdfefe" offset="0.544"/>
      <stop id="SvgjsStop7805" stop-opacity="1" stop-color="#f6f8f9" offset="0.74"/>
      <stop id="SvgjsStop7806" stop-opacity="1" stop-color="#eaeff2" offset="0.879"/>
      <stop id="SvgjsStop7807" stop-opacity="1" stop-color="#d9e3e8" offset="0.992"/>
      <stop id="SvgjsStop7808" stop-opacity="1" stop-color="#d8e2e7" offset="1"/>
    </radialGradient>
    <radialGradient id="SvgjsRadialGradient7812" cx="122.581" cy="83.48" fx="136.229" fy="83.114" r="16.914" gradientTransform="matrix(-0.99 0.1411 -0.1085 -0.7608 252.9892 129.6892)" gradientUnits="userSpaceOnUse" class="svga-on-canvas-eyesfront-gradient-right-3">
      <stop id="SvgjsStop7813" stop-opacity="1" stop-color="#be8a67" offset="0"/>
      <stop id="SvgjsStop7814" stop-opacity="0.3" stop-color="#be8a67" offset="0.7"/>
      <stop id="SvgjsStop7815" stop-opacity="0" stop-color="#cda184" offset="1"/>
    </radialGradient>
    <radialGradient id="SvgjsRadialGradient7817" cx="70.243" cy="108.081" r="29.509" gradientTransform="matrix(-1.0336 0 0 1.0336 201.941 1.8777)" gradientUnits="userSpaceOnUse" class="svga-on-canvas-eyesfront-gradient-right-4">
      <stop id="SvgjsStop7818" stop-opacity="0" stop-color="#000000" offset="0.95"/>
      <stop id="SvgjsStop7819" stop-opacity="0.3" stop-color="#000000" offset="1"/>
    </radialGradient>
    <linearGradient id="SvgjsLinearGradient7824" x1="130" y1="81" x2="126" y2="85" gradientTransform="matrix(1 0 0 1 -50 0)" gradientUnits="userSpaceOnUse" class="svga-on-canvas-eyesiris-gradient-left-1">
      <stop id="SvgjsStop7825" stop-opacity="1" stop-color="#ffffff" offset="0"/>
      <stop id="SvgjsStop7826" stop-opacity="0" stop-color="#ffffff" offset="1"/>
    </linearGradient>
    <linearGradient id="SvgjsLinearGradient7829" x1="130" y1="81" x2="126" y2="85" gradientUnits="userSpaceOnUse" class="svga-on-canvas-eyesiris-gradient-right-1">
      <stop id="SvgjsStop7830" stop-opacity="1" stop-color="#ffffff" offset="0"/>
      <stop id="SvgjsStop7831" stop-opacity="0" stop-color="#ffffff" offset="1"/>
    </linearGradient>
  </defs>
  <g id="svga-group-wrapper">
    <g id="svga-group-backs-single">
      <path id="SvgjsPath7703" d="M225 225H-25V-25h250V225z" fill="#f9f2e7" stroke-width="none" opacity="1"/>
    </g>
    <g id="svga-group-humanwrap-move" transform="matrix(1,0,0,1,0,0)">
      <g id="svga-group-humanwrap" transform="matrix(1,0,0,1,0,0)">
        <g id="svga-group-hair-back-move" transform="matrix(1,0,0,1,0,0)">
          <g id="svga-group-hair-back" transform="matrix(1,0,0,1,0,0)">
            <path id="SvgjsPath7574" d="M100.5,100.5h-1v-1h1V100.5z" fill="#caa478" stroke-width="none" opacity="1" stroke="none"/>
          </g>
        </g>
        <g id="svga-group-humanbody-single">
          <path id="SvgjsPath7415" d="M190.858 199.866c-6.008-10.158-13.474-11.973-19.628-13.936 -6.323-2.016-19.346-3.178-26.449-4.6 -6.86-1.373-23.153-5.789-23.339-13.488 -0.192-8.066 4.291-40.09 4.291-40.09H74.005c0 0 4.487 32.023 4.294 40.09 -0.184 7.699-16.48 12.115-23.341 13.488 -7.104 1.422-20.125 2.584-26.448 4.6 -6.156 1.963-13.624 3.777-19.632 13.936 -3.644 6.16-6.008 16.133-6.008 27.133h194C196.869 215.999 194.509 206.026 190.858 199.866z" fill="#cda184" stroke-width="none" opacity="1" stroke="none"/>
          <path id="SvgjsPath7416" d="M121.442 167.843c2.495 10.929 18.165 13.698 26.293 15.325 21.909 4.379 33.772 5.134 42.297 19.539 2.903 4.916 5.459 15.864 5.962 24.153 1.835 0.291 0.531-17.432-5.136-26.994 -9.742-16.472-29.089-15.135-46.077-18.535C137.921 179.958 121.628 175.542 121.442 167.843L121.442 167.843zM78.558 167.843c-0.186 7.699-16.479 12.115-23.339 13.488 -16.988 3.4-36.335 2.063-46.077 18.535 -5.667 9.563-6.971 27.285-5.136 26.994 0.503-8.289 3.059-19.237 5.962-24.153 8.524-14.405 20.388-15.16 42.297-19.539C60.393 181.541 76.063 178.771 78.558 167.843L78.558 167.843z" fill="#dcbaa4" stroke-width="none" opacity="1" stroke="none"/>
          <path id="SvgjsPath7417" d="M51.206 189.513c0 0 28.641 0.299 33.473 1.885 2.314 0.758 8.372 5.633 8.372 5.633s-6.556-3.17-8.658-3.758C79.51 191.909 51.206 189.513 51.206 189.513zM99.795 199.999c2.053-0.041 7.887-3.799 7.887-3.799s-5.574 2.059-7.342 2.16c-1.491 0.086-6.366-1.238-6.366-1.238S98.112 200.032 99.795 199.999zM117.008 192.757c6.75-1.818 29.786-3.23 29.786-3.23s-23.791-0.516-30.51 1.725c-2.252 0.752-7.562 5.16-7.562 5.16S114.786 193.354 117.008 192.757z" fill="#be8a67" stroke-width="none" opacity="1" stroke="none"/>
          <path id="SvgjsPath7418" d="M190.858 199.866c-9.741-16.471-29.122-15.142-46.077-18.535 -6.86-1.373-23.153-5.789-23.339-13.488 -0.192-8.066 4.291-40.09 4.291-40.09H74.005c0 0 4.487 32.023 4.294 40.09 -0.184 7.699-16.48 12.115-23.341 13.488 -7.104 1.422-20.125 2.584-26.448 4.6 -6.156 1.963-13.624 3.777-19.632 13.936 -3.644 6.16-6.008 16.133-6.008 27.133h194C196.869 215.999 194.509 206.026 190.858 199.866z" fill="none" stroke="#9f6037" stroke-width="1.5" opacity="1"/>
        </g>
        <g id="svga-group-chinshadow-single">
          <path id="SvgjsPath7697" d="M96.621 172.397c1.862 1.009 4.905 1.009 6.765 0.001 4.022-2.175 10.793-6.271 17.707-10.99 0.604-7.53 1.97-18.516 2.938-25.903 -14.398-1.508-33.984-1.493-48.319 0.038 0.961 7.323 2.309 18.157 2.919 25.666C85.646 166.01 92.547 170.19 96.621 172.397z" fill="url(#SvgjsLinearGradient7698)" opacity="1"/>
        </g>
        <g id="svga-group-clothes-single">
          <path id="SvgjsPath7683" d="M3.229 223.031c-0.622-0.007-0.456-0.006-0.92-0.006 0.025-17.784 6.689-31.059 17.837-35.518 1.466 0.314 3.037 0.725 4.514 1.033C11.551 194.886 4.531 208.814 3.229 223.031zM181.643 188.404c-1.855 0.251-3.683 0.491-5.504 0.729 13.353 5.75 17.424 20.534 19.434 33.854 0.344-0.001 0.655-0.002 0.931-0.002C195.421 206.217 195.152 195.351 181.643 188.404z" fill="#dd166e" stroke-width="none" opacity="1" stroke="none"/>
          <path id="SvgjsPath7684" d="M181.509 192.193c0.734-0.111 2.033-0.324 2.761-0.438 -1.678-1.271-2.67-1.958-3.67-2.549 -5.851 1.009-59.284 7.112-88.51 7.112 -38.337 0-66.622-6.76-71.951-8.293 -1.09 0.62-2.15 1.301-3.15 2.061 1 0.257 2.201 0.598 3.218 0.841 -10.338 7.09-15.825 19.518-16.978 32.104 30.39 0.341 61.447 0.514 92.321 0.514 0.005 0 0.01 0 0.015 0 40.676 0 71.674-0.298 88.328-0.458 5.388-0.052 9.327-0.09 11.679-0.1C193.85 211.572 190.635 199.159 181.509 192.193z" fill="#ce005b" stroke-width="none" opacity="1" stroke="none"/>
          <path id="SvgjsPath7685" d="M23.439 189.002c-1.117 0.595-2.181 1.252-3.204 1.955 49.803 12.038 110.22 9.005 161.174 1.236 -1.131-0.854-2.354-1.625-3.673-2.303C129.006 198.106 71.062 201.817 23.439 189.002z" fill="#bf0054" stroke-width="none" opacity="1" stroke="none"/>
          <path id="SvgjsPath7686" d="M181.629 188.306c-89.42 12.081-124.385 7.031-161.52-0.891 -13.279 5.312-17.9 21.352-17.9 35.71 0.17 0 0.33 0 0.49 0 105.661 1.193 182.323-0.04 193.91-0.04C195.509 206.252 195.316 195.321 181.629 188.306zM20.239 188.125c49.132 14.134 109.964 10.021 160.36 1.28 1 0.591 1.992 1.079 3.67 2.35 -52.607 8.26-115.869 11.615-167.18-1.569C18.089 189.426 19.149 188.745 20.239 188.125zM2.769 222.605c1.961-14.393 4.62-24.719 13.97-32.15 50.694 14.553 116.182 11.469 168.26 1.86 8.309 6.651 7.884 13.707 11.01 30.32C140.967 222.022 68.396 221.847 2.769 222.605z" fill="#a00047" stroke-width="none" opacity="1" stroke="none"/>
        </g>
        <g id="svga-group-head" transform="matrix(1,0,0,1,0,0)">
          <g id="svga-group-ears-left-move" transform="matrix(1,0,0,1,0,0)" style="display: none;">
            <g id="svga-group-ears-left" transform="matrix(1,0,0,1,0,0)">
              <path id="SvgjsPath7678" d="M47.69 82.611c-1.588-2.324-8.025-7.659-11.703-6.839 -4.355 0.971-5.708 4.275-5.603 6.332 0.606 11.758 4.426 11.749 6.71 16.271 1.709 3.383 3.126 4.933 4.172 11.692 0.598 3.866 4.427 6.83 7.217 6.684 3.908-0.205 6.994-3.634 8.291-7.014C59.463 102.718 51.823 88.658 47.69 82.611z" fill="#cda184" stroke="#9f6037" stroke-width="1.5" opacity="1"/>
              <path id="SvgjsPath7679" d="M43.274 99.484c-0.15-0.542-0.062-1.474 0.024-2.376 0.077-0.821 1.438-3.801 1.348-4.341 -0.344-2.022-1.931-5.809-2.949-7.853 -1.169-2.35-3.604-5.289-5.79-5.943 -0.904-0.271-3.479 0.039-3.781 0.625 -1.131 2.191-0.615 4.313 1.1 9.984 0.85 2.809 3.915 6.069 3.998 6.395 1.067 4.247 5.099 11.032 6.488 12.554 0.256 0.281 0.519 0.442 0.579 0.367 0.059-0.075-0.104-0.359-0.361-0.642 -1.372-1.513-5.367-8.282-6.396-12.38 -1.092-4.347 2.313-11.094 2.93-12.516 0.379 0.627 0.703 1.233 0.954 1.738 0.198 0.397 0.417 0.861 0.645 1.364 -0.367 0.744-4.245 6.226-3.026 10.371 0.451 1.528 2.054 4.491 3.432 6.049 0.483 0.546 0.893 0.702 1.19 1.207 0.341 0.586 0.732 1.251 1.792 1.687 0.215 0.089 0.408 0.118 0.577 0.108 0.293-0.019 0.51-0.157 0.667-0.318 0.029 0.265 0.044 0.604 0.051 0.919 0.007 0.404 0.073 0.735 0.162 0.738s0.168-0.325 0.161-0.729c-0.009-0.497-0.04-1.113-0.132-1.403 -0.273-0.854-1.028-1.791-1.829-2.781C44.319 101.332 43.505 100.323 43.274 99.484zM36.96 93.913c-2.347-6.628-1.518-13.365-1.103-14.318 1.345 0 3.778 2.439 4.397 3.42C39.874 83.854 36.837 89.368 36.96 93.913zM45.559 105.428c-0.961-0.395-1.303-0.979-1.635-1.545 -0.299-0.513-1.018-1-1.346-1.348 -0.191-0.204-0.531-0.75-0.715-0.872 -1.762-7.438 1.345-10.152 1.967-10.722 0.231 0.712 0.411 1.368 0.5 1.896 0.082 0.485-1.28 3.474-1.352 4.231 -0.089 0.939-0.182 1.911-0.012 2.526 0.253 0.917 1.093 1.955 1.904 2.96 0.72 0.892 1.459 1.811 1.732 2.581C46.509 105.299 46.204 105.692 45.559 105.428z" fill="#9f6037" stroke-width="none" opacity="1" stroke="none"/>
            </g>
          </g>
          <g id="svga-group-ears-right-move" transform="matrix(1,0,0,1,0,0)" style="display: none;">
            <g id="svga-group-ears-right" transform="matrix(1,0,0,1,0,0)">
              <path id="SvgjsPath7680" d="M152.049 82.611c1.588-2.324 8.025-7.659 11.701-6.839 4.357 0.971 5.709 4.275 5.604 6.332 -0.605 11.758-4.426 11.749-6.709 16.271 -1.711 3.383-3.127 4.933-4.174 11.692 -0.598 3.866-4.428 6.83-7.217 6.684 -3.908-0.205-6.994-3.634-8.291-7.014C140.275 102.718 147.916 88.658 152.049 82.611z" fill="#cda184" stroke="#9f6037" stroke-width="1.5" opacity="1"/>
              <path id="SvgjsPath7681" d="M154.633 102.307c-0.801 0.99-1.557 1.928-1.83 2.781 -0.092 0.29-0.123 0.906-0.131 1.403 -0.008 0.404 0.072 0.732 0.16 0.729 0.09-0.003 0.154-0.334 0.162-0.738 0.008-0.315 0.021-0.654 0.051-0.919 0.156 0.161 0.373 0.3 0.666 0.318 0.17 0.01 0.361-0.02 0.578-0.108 1.061-0.436 1.449-1.101 1.791-1.687 0.297-0.505 0.709-0.66 1.191-1.207 1.377-1.559 2.98-4.521 3.432-6.049 1.219-4.145-2.66-9.627-3.027-10.371 0.229-0.503 0.447-0.967 0.645-1.364 0.252-0.505 0.576-1.111 0.955-1.738 0.617 1.421 4.021 8.168 2.93 12.516 -1.029 4.098-5.025 10.868-6.396 12.38 -0.256 0.282-0.42 0.566-0.361 0.642 0.061 0.075 0.322-0.086 0.578-0.367 1.391-1.521 5.422-8.307 6.49-12.554 0.082-0.326 3.146-3.586 3.996-6.395 1.715-5.671 2.232-7.793 1.102-9.984 -0.303-0.586-2.877-0.896-3.783-0.625 -2.186 0.655-4.619 3.594-5.789 5.943 -1.018 2.044-2.605 5.831-2.949 7.853 -0.09 0.54 1.271 3.52 1.348 4.341 0.086 0.902 0.176 1.834 0.025 2.376C156.232 100.323 155.42 101.332 154.633 102.307zM159.484 83.016c0.619-0.981 3.053-3.42 4.396-3.42 0.416 0.953 1.244 7.689-1.104 14.318C162.902 89.368 159.863 83.854 159.484 83.016zM153.137 105.137c0.273-0.771 1.012-1.689 1.732-2.581 0.811-1.005 1.65-2.044 1.904-2.96 0.168-0.616 0.076-1.587-0.014-2.526 -0.07-0.758-1.434-3.746-1.352-4.231 0.09-0.528 0.27-1.184 0.5-1.896 0.623 0.569 3.729 3.284 1.967 10.722 -0.184 0.122-0.523 0.668-0.715 0.872 -0.328 0.348-1.047 0.834-1.346 1.348 -0.332 0.565-0.674 1.15-1.635 1.545C153.533 105.692 153.23 105.299 153.137 105.137z" fill="#9f6037" stroke-width="none" opacity="1" stroke="none"/>
            </g>
          </g>
          <g id="svga-group-faceshape-wrap" transform="matrix(1,0,0,1,0,0)">
            <g id="svga-group-faceshape-single">
              <path id="SvgjsPath7694" d="M140.337 130.669c-6.672 9.572-28.551 24.338-37.142 29.263 -1.757 1.008-4.626 1.008-6.383-0.001 -8.584-4.93-30.469-19.691-37.144-29.262C51.541 119.018 41.15 77 41.138 76.946c-1.3-4.911-1.996-10.066-2.004-15.382C39.082 28.09 66.289 0.919 99.907 0.867c33.621-0.052 60.913 27.033 60.963 60.507 0.009 5.316-0.669 10.473-1.952 15.389C158.901 76.815 148.488 118.976 140.337 130.669z" fill="#cda184" stroke-width="none" opacity="1" stroke="none"/>
              <path id="SvgjsPath7695" d="M132.741 10.389c15.702 10.981 25.962 29.15 25.93 49.708 -0.009 5.316-0.704 10.471-2.004 15.382 -0.012 0.053-10.491 42.01-18.53 53.723 -6.665 9.715-25.83 26.717-37.145 29.995 -0.475 0.138-1.505 0.138-1.98 0 -11.314-3.278-30.479-20.28-37.144-29.995 -8.039-11.713-18.519-53.669-18.53-53.723 -1.3-4.911-1.996-10.066-2.004-15.382 -0.032-20.559 10.227-38.727 25.929-49.708C50.326 21.172 39.101 40.061 39.134 61.564c0.008 5.316 0.704 10.471 2.004 15.382 0.012 0.053 10.403 42.071 18.53 53.723 6.675 9.57 28.56 24.332 37.144 29.262 0 0.001 0.001 0.001 0.002 0.001 -0.001 0-0.005 0-0.005 0 0.879 0.504 2.036 0.757 3.193 0.755 1.157 0.002 2.314-0.251 3.193-0.755h-0.005c0 0 0.001 0 0.002-0.001 8.585-4.93 30.469-19.691 37.145-29.262 8.127-11.651 18.519-53.669 18.529-53.723 1.3-4.911 1.996-10.066 2.004-15.382C160.904 40.061 149.679 21.172 132.741 10.389z" fill="#c59575" stroke-width="none" opacity="1" stroke="none"/>
              <path id="SvgjsPath7696" d="M140.337 130.669c-6.672 9.572-28.551 24.338-37.142 29.263 -1.757 1.008-4.626 1.008-6.383-0.001 -8.584-4.93-30.469-19.691-37.144-29.262C51.541 119.018 41.15 77 41.138 76.946c-1.3-4.911-1.996-10.066-2.004-15.382C39.082 28.09 66.289 0.919 99.907 0.867c33.621-0.052 60.913 27.033 60.963 60.507 0.009 5.316-0.669 10.473-1.952 15.389C158.901 76.815 148.488 118.976 140.337 130.669z" fill="none" stroke="#9f6037" stroke-width="1.5" opacity="1"/>
            </g>
          </g>
          <g id="svga-group-mouth-single-move" transform="matrix(1,0,0,1,0,0)">
            <g id="svga-group-mouth-single" transform="matrix(1,0,0,1,0,0)">
              <path id="SvgjsPath7667" d="M99.867 141.087c-4.159 0-7.258-4.297-7.258-4.297 7.261 3.32 14.915 0 14.915 0S103.516 141.087 99.867 141.087z" fill="url(#SvgjsLinearGradient7668)" opacity="1"/>
              <path id="SvgjsPath7671" d="M112.127 131.943c0 0.625-7.773 3.456-12.258 3.575 -4.18 0.112-12.333-2.682-12.333-3.575 0-0.892 6.441-1.558 12.729-1.558C106.555 130.386 112.127 131.052 112.127 131.943z" fill="#ffffff" stroke-width="none" opacity="1"/>
              <path id="SvgjsPath7672" d="M95.441 127.853c0.99-0.131 2.728 0.908 4.824 0.909 1.541 0.002 3.426-1.067 4.612-0.909 2.529 0.341 3.857 1.882 10.491 2.47 0 0-3.22 1.083-4.075 1.15 -2.72 0.216-7.215-0.169-11.287-0.181 -4.556-0.02-8.941 0.43-11.697 0.301 -0.994-0.051-3.941-1.137-3.941-1.137C89.901 130.196 92.547 128.235 95.441 127.853zM84.369 130.818c0 0 4.514 3.538 6.253 4.76 2.007 1.411 5.029 3.623 9.474 3.557 3.563-0.058 6.641-1.816 8.477-2.986 1.978-1.259 6.796-5.463 6.796-5.463 -2.77 0.633-2.77 0.633-4.075 1.149 -2.741 1.084-7.477 2.722-11.173 2.722 -4.563 0-8.936-1.639-11.811-2.603C86.315 131.286 84.369 130.818 84.369 130.818z" fill="#ed2153" stroke="#de093d" stroke-width="0.75" opacity="1"/>
              <path id="SvgjsPath7673" d="M115.592 130.572c-0.458 0.663-2.14 0.715-2.888 0.977 -1.098 0.383-2.162 0.856-3.259 1.245 -2.693 0.954-5.51 1.792-8.375 1.98 -5.336 0.351-10.599-1.808-15.596-3.41 -0.424-0.136-0.994-0.175-1.359-0.449 -0.326-0.244-0.015-0.768 0.336-0.701 1.051 0.199 2.092 0.731 3.141 0.994 1.224 0.308 2.583 0.16 3.832 0.113 1.592-0.059 3.184-0.146 4.777-0.207 2.927-0.109 5.842-0.053 8.768 0.059 2.621 0.101 5.366 0.402 7.915-0.332 0.688-0.199 1.379-0.399 2.047-0.656C115.179 130.09 115.94 130.07 115.592 130.572 115.415 130.828 115.632 130.515 115.592 130.572zM108.39 131.773c-3.415 0.013-6.822-0.286-10.24-0.217 -1.874 0.038-3.745 0.139-5.617 0.219 -0.566 0.024-1.625-0.143-2.11 0.204 -0.466 0.334 1.182 0.807 1.325 0.852 3.306 1.039 6.829 1.78 10.304 1.346 1.704-0.214 3.382-0.632 5.023-1.13 0.64-0.195 1.439-0.341 1.987-0.743C109.635 131.883 108.656 131.773 108.39 131.773 107.333 131.777 109.492 131.771 108.39 131.773z" fill="#bf002f" stroke-width="none" opacity="1" stroke="none"/>
              <path id="SvgjsPath7674" d="M99.901 138.136c-4.165 0-7.465-2.404-10.634-4.801 7.714 2.61 14.222 2.572 21.819-0.346C107.874 135.609 104.215 138.095 99.901 138.136zM93.601 130.478c5.567-0.262 11.102 0.228 16.657 0.047 -1.847-0.453-3.623-1.426-5.512-1.681 -1.452-0.142-2.984 0.918-4.481 0.918 -1.633-0.001-3.113-0.918-4.692-0.918 -2.024 0.27-3.923 1.229-5.881 1.771C90.996 130.593 92.299 130.547 93.601 130.478 95.469 130.39 92.18 130.543 93.601 130.478z" fill="#fc3c6b" stroke-width="none" opacity="1" stroke="none"/>
              <path id="SvgjsPath7675" d="M95.134 136.031c1.596 0.319 3.265 0.525 4.987 0.525 1.453 0 3.029-0.222 4.598-0.563 -1.384 0.624-2.973 1.132-4.654 1.141C98.283 137.145 96.471 136.67 95.134 136.031z" fill="#ff5780" stroke-width="none" opacity="1" stroke="none"/>
            </g>
          </g>
          <g id="svga-group-eyes-left-move" transform="matrix(1,0,0,1,0,0)">
            <g id="svga-group-eyes-left" transform="matrix(1,0,0,1,0,0)">
              <g id="svga-group-eyesback-left">
                <path id="SvgjsPath7764" d="M60.632 83.957c1.226-1.179 9.091-2.674 13.631-2.075 7.183 0.947 13 7.285 13 7.285s-4.836 3.083-13.61 3.56C67.873 93.042 62.061 89.309 60.632 83.957z" fill="url(#SvgjsRadialGradient7765)" opacity="1"/>
              </g>
              <g id="svga-group-eyesiriswrapper-left" transform="matrix(1,0,0,1,-1,0.25)">
                <g id="svga-group-eyesiriscontrol-left" transform="matrix(1,0,0,1,0,0)">
                  <g id="svga-group-eyesiris-left" transform="matrix(1,0,0,1,0,0)">
                    <path id="SvgjsPath7832" d="M83.5 87.001c0 4.693-3.806 8.498-8.5 8.498s-8.5-3.805-8.5-8.498c0-4.697 3.806-8.502 8.5-8.502S83.5 82.304 83.5 87.001z" fill="#9b1d1b" stroke="#6d0200" stroke-width="0.5" opacity="1"/>
                    <path id="SvgjsPath7833" d="M70.058 90.974c1.241-0.103 0.142-0.434 0.142-0.434 -0.613-0.331-1.768-0.839-1.768-1.306 0-1.461 2.002-1.839-0.048-2.416 -2.13-1.955 1.653-1.914 1.625-1.98 -1.381-3.366 0.423-1.518 1.183-2.512 2.816-3.682 0.785 0.378 2.314 0 0.554-0.136-1.105-2.169 0.048-1.884 0.763 0.187 0.937 0.821 0.937 0.821 0.557-0.109 1.428-0.966 1.428-0.966 1.061 0.32 1.806 1.827 1.478 1.545 0.522-0.063 1.252-0.313 1.822-0.483 0 0 0.1-0.338 0.196-0.047 1.3 3.77 4.652 3.5 0.792 4.589 0 0-0.249 0 0.542 0.627 3.839 3.066-2.978 2.117 0.638 3.527 0.147-0.146-2.167 1.368-2.167 1.787 0 0.71-1.477 2.576-2.757 1.841 -0.714-0.408-0.823 0.85-1.243 0.269 -0.823-1.138-2.467-0.049-1.859-1.095 0.898-0.737-0.926 0.289-1.28 0.289 -1.172 0 1.534-3.942 5.516-1.013 1.165 0.853-1.224-2.03 0.886-2.03 0.211 0.069 0.148-0.739 0.148-0.966 -1.098-0.215 1.969-0.005 1.969-1.788 0.193 0.039 0.721-0.495-2.316 0 0 0-0.097-1.063-0.048-1.256 0.156-0.62 1.72-0.422 1.28-1.063 -0.001-0.001-1.132-2.272-1.132-2.272 -3.645-0.586-1.562-0.952-3.841-0.483 -0.108 0.535-4.881 2.811-4.729 3.866 0.142 0.995 2.997 1.328 0.295 3.091C74.157 96.989 67.118 89.06 70.058 90.974z" fill="#aa312f" stroke-width="none" opacity="1"/>
                    <path id="SvgjsPath7834" d="M75,79.562l0.243,6.223l2.603-5.656l-2.158,5.84l4.572-4.229l-4.229,4.57l5.842-2.157l-5.655,2.604l6.222,0.242l-6.222,0.242l5.655,2.604l-5.842-2.157l4.229,4.57l-4.572-4.229l2.158,5.84l-2.603-5.656L75,94.437l-0.243-6.223l-2.604,5.656l2.156-5.84l-4.57,4.229l4.229-4.57l-5.842,2.157l5.655-2.604l-6.219-0.242l6.219-0.242l-5.655-2.604l5.842,2.157l-4.229-4.57l4.57,4.229l-2.156-5.84l2.604,5.656L75,79.562z" fill="#9b1d1b" stroke="#8c0c0a" stroke-width="0.5" opacity="1"/>
                    <path id="SvgjsPath7835" d="M76.128,81.428l-0.764,4.697l2.808-3.841l-2.501,4.047l4.065-2.476l-3.859,2.783l4.702-0.73l-4.632,1.092l4.626,1.125l-4.699-0.762l3.842,2.808l-4.05-2.5l2.476,4.064l-2.783-3.86l0.73,4.702l-1.092-4.632l-1.126,4.625l0.764-4.697l-2.811,3.841l2.504-4.048l-4.064,2.476l3.86-2.783l-4.702,0.73l4.631-1.093l-4.625-1.125l4.697,0.761l-3.842-2.808l4.05,2.5l-2.475-4.064l2.782,3.86l-0.73-4.701l1.095,4.632L76.128,81.428z" fill="#9b1d1b" stroke="#7c0200" stroke-width="0.5" opacity="1"/>
                    <path id="SvgjsPath7836" d="M78.188 87c0 1.761-1.428 3.187-3.188 3.187S71.813 88.76 71.813 87c0-1.76 1.428-3.188 3.188-3.188S78.188 85.239 78.188 87z" fill="#000000" stroke-width="none" opacity="0.9"/>
                    <path id="SvgjsPath7837" d="M71.653 93.108c-0.469 0.469-1.396 0.304-2.069-0.37 -0.674-0.673-0.84-1.6-0.37-2.069 0.469-0.469 1.396-0.304 2.069 0.37S72.123 92.638 71.653 93.108z" fill="#ffffff" stroke-width="none" opacity="0.7"/>
                    <path id="SvgjsPath7838" d="M81.809 85.326c-0.702 0.703-2.404 0.142-3.8-1.255 -1.396-1.396-1.958-3.097-1.255-3.8 0.703-0.703 2.404-0.142 3.8 1.255C81.95 82.922 82.511 84.624 81.809 85.326z" fill="#ffffff" stroke-width="none" opacity="0.9"/>
                  </g>
                </g>
              </g>
              <g id="svga-group-eyesfront-left">
                <path id="SvgjsPath7789" d="M55.332 88c0 13.808 8.06 24.999 18 24.999s18-11.191 18-24.999c0-13.809-8.06-25.001-18-25.001S55.332 74.191 55.332 88zM60.632 83.957c1.226-1.179 9.091-2.674 13.631-2.075 7.183 0.947 13 7.285 13 7.285s-4.836 3.083-13.61 3.56C67.873 93.042 62.061 89.309 60.632 83.957z" fill="#cda184" stroke-width="none" opacity="1"/>
                <path id="SvgjsPath7790" d="M74.182 96.592c9.412 2.223 18.451-1.61 20.194-8.565 1.738-6.956-4.478-14.395-13.892-16.622 -9.414-2.224-18.453 1.609-20.195 8.565C58.55 86.927 64.765 94.365 74.182 96.592zM60.632 83.957c1.226-1.179 9.091-2.674 13.631-2.075 7.183 0.947 13 7.285 13 7.285s-4.836 3.083-13.61 3.56C67.873 93.042 62.061 89.309 60.632 83.957z" fill="url(#SvgjsRadialGradient7791)" opacity="1"/>
                <path id="SvgjsPath7795" d="M60.632 83.957c1.226-1.179 9.091-2.674 13.631-2.075 7.183 0.947 13 7.285 13 7.285s-4.836 3.083-13.61 3.56C67.873 93.042 62.061 89.309 60.632 83.957z" fill="url(#SvgjsRadialGradient7796)" opacity="1"/>
                <path id="SvgjsPath7799" d="M87.433 83.657c-6.502-4.251-4.054-3.09-16.23-6.703 3.344 0.5 9.572 2.066 11.707 3.32C84.073 80.928 86.433 82.783 87.433 83.657z" fill="#9f6037" stroke-width="none" opacity="1"/>
                <path id="SvgjsPath7800" d="M55.34 82.979c0 0 2.084 1.306 3.713 1.307 0.129 0.766 2.241 4.259 5.873 6.344 5.49 3.154 11.897 2.18 18.014 0.643 2.995-0.746 2.81-1.52 7.773-2.07 -3.897-1.57-3.485-2.497-8.891-5.423 2.468 0.471 5.783 2.315 5.783 2.315 -1.237-1.452-9.917-6.796-23.826-7.508 0 0 4.649 1.088 6.399 1.769 -8.05 1.097-10.242-0.113-10.669-0.435 0.357 0.302 1.188 1.24 3.004 1.852 -1.878 0.143-5.312-0.867-5.312-0.867s0.867 0.826 2.628 1.965C58.323 83.595 55.34 82.979 55.34 82.979zM60.632 84.074c1.226-1.137 9.091-2.58 13.631-2.001 7.183 0.913 13 7.026 13 7.026s-4.836 2.974-13.61 3.434C67.873 92.836 62.061 89.236 60.632 84.074z" fill="#131111" stroke-width="none" opacity="1"/>
              </g>
            </g>
          </g>
          <g id="svga-group-eyes-right-move" transform="matrix(1,0,0,1,0,0)">
            <g id="svga-group-eyes-right" transform="matrix(1,0,0,1,0,0)">
              <g id="svga-group-eyesback-right">
                <path id="SvgjsPath7772" d="M139.368 83.957c-1.226-1.179-9.091-2.674-13.631-2.075 -7.183 0.947-13 7.285-13 7.285s4.836 3.083 13.61 3.56C132.127 93.042 137.939 89.309 139.368 83.957z" fill="url(#SvgjsRadialGradient7773)" opacity="1"/>
              </g>
              <g id="svga-group-eyesiriswrapper-right" transform="matrix(1,0,0,1,1,0.25)">
                <g id="svga-group-eyesiriscontrol-right" transform="matrix(1,0,0,1,0,0)">
                  <g id="svga-group-eyesiris-right" transform="matrix(1,0,0,1,0,0)">
                    <path id="SvgjsPath7839" d="M133.5 87.001c0 4.692-3.806 8.498-8.5 8.498s-8.5-3.806-8.5-8.498c0-4.697 3.806-8.502 8.5-8.502S133.5 82.304 133.5 87.001z" fill="#9b1d1b" stroke="#6d0200" stroke-width="0.5" opacity="1"/>
                    <path id="SvgjsPath7840" d="M120.059 90.974c1.24-0.103 0.142-0.434 0.142-0.434 -0.613-0.33-1.768-0.838-1.768-1.305 0-1.461 2.002-1.84-0.048-2.416 -2.131-1.956 1.652-1.915 1.625-1.981 -1.382-3.366 0.423-1.518 1.182-2.512 2.816-3.682 0.785 0.378 2.314 0 0.555-0.136-1.104-2.169 0.048-1.884 0.763 0.186 0.938 0.821 0.938 0.821 0.557-0.109 1.428-0.966 1.428-0.966 1.061 0.32 1.806 1.828 1.478 1.546 0.521-0.063 1.252-0.313 1.821-0.483 0 0 0.1-0.338 0.196-0.046 1.3 3.77 4.652 3.499 0.791 4.589 0 0-0.249 0 0.542 0.627 3.84 3.065-2.978 2.117 0.638 3.527 0.148-0.147-2.167 1.367-2.167 1.786 0 0.711-1.477 2.576-2.757 1.842 -0.714-0.409-0.822 0.85-1.243 0.269 -0.823-1.138-2.468-0.049-1.859-1.095 0.898-0.737-0.926 0.288-1.28 0.288 -1.172 0 1.534-3.942 5.516-1.013 1.165 0.854-1.225-2.029 0.886-2.029 0.212 0.069 0.148-0.739 0.148-0.967 -1.097-0.214 1.97-0.004 1.97-1.787 0.193 0.038 0.721-0.496-2.316 0 0 0-0.097-1.064-0.048-1.256 0.156-0.619 1.721-0.422 1.28-1.063 -0.001-0.001-1.133-2.271-1.133-2.271 -3.645-0.587-1.562-0.953-3.84-0.483 -0.108 0.535-4.881 2.811-4.729 3.866 0.142 0.994 2.996 1.328 0.295 3.092C124.157 96.989 117.118 89.06 120.059 90.974z" fill="#aa312f" stroke-width="none" opacity="1"/>
                    <path id="SvgjsPath7841" d="M125,79.562l0.242,6.222l2.604-5.656l-2.158,5.84l4.571-4.228l-4.229,4.57l5.842-2.157l-5.655,2.604l6.222,0.242l-6.222,0.242l5.655,2.604l-5.842-2.157l4.229,4.57l-4.571-4.228l2.158,5.84l-2.604-5.656L125,94.437l-0.242-6.222l-2.605,5.656l2.157-5.84l-4.57,4.228l4.229-4.57l-5.842,2.157l5.654-2.604l-6.219-0.242l6.219-0.242l-5.654-2.604l5.842,2.157l-4.229-4.57l4.57,4.228l-2.157-5.84l2.605,5.656L125,79.562z" fill="#9b1d1b" stroke="#8c0c0a" stroke-width="0.5" opacity="1"/>
                    <path id="SvgjsPath7842" d="M126.128,81.428l-0.764,4.697l2.808-3.841l-2.501,4.047l4.064-2.475l-3.859,2.782l4.702-0.73l-4.632,1.093l4.626,1.125l-4.699-0.762l3.843,2.808l-4.05-2.5l2.476,4.063l-2.783-3.86l0.73,4.702l-1.092-4.632l-1.126,4.625l0.764-4.697l-2.812,3.841l2.505-4.047l-4.065,2.475l3.86-2.782l-4.702,0.73l4.631-1.094l-4.624-1.124l4.696,0.761l-3.842-2.808l4.05,2.501l-2.476-4.063l2.782,3.86l-0.73-4.702l1.095,4.632L126.128,81.428z" fill="#9b1d1b" stroke="#7c0200" stroke-width="0.5" opacity="1"/>
                    <path id="SvgjsPath7843" d="M128.188 87c0 1.761-1.428 3.187-3.188 3.187s-3.188-1.426-3.188-3.187c0-1.76 1.428-3.188 3.188-3.188S128.188 85.239 128.188 87z" fill="#000000" stroke-width="none" opacity="0.9"/>
                    <path id="SvgjsPath7844" d="M121.653 93.108c-0.47 0.469-1.396 0.304-2.069-0.369 -0.674-0.673-0.84-1.601-0.369-2.07 0.469-0.47 1.395-0.304 2.068 0.369C121.956 91.712 122.122 92.639 121.653 93.108z" fill="#ffffff" stroke-width="none" opacity="0.7"/>
                    <path id="SvgjsPath7845" d="M131.809 85.326c-0.702 0.703-2.403 0.142-3.8-1.254 -1.396-1.396-1.957-3.098-1.256-3.8 0.703-0.703 2.405-0.142 3.8 1.254C131.949 82.922 132.512 84.624 131.809 85.326z" fill="#ffffff" stroke-width="none" opacity="0.9"/>
                  </g>
                </g>
              </g>
              <g id="svga-group-eyesfront-right">
                <path id="SvgjsPath7810" d="M126.668 62.999c-9.94 0-18 11.193-18 25.001 0 13.808 8.06 24.999 18 24.999s18-11.191 18-24.999C144.668 74.191 136.608 62.999 126.668 62.999zM126.348 92.727c-8.774-0.476-13.61-3.56-13.61-3.56s5.817-6.338 13-7.285c4.54-0.6 12.405 0.896 13.631 2.075C137.939 89.309 132.127 93.042 126.348 92.727z" fill="#cda184" stroke-width="none" opacity="1"/>
                <path id="SvgjsPath7811" d="M139.711 79.971c-1.742-6.956-10.781-10.79-20.195-8.565 -9.414 2.227-15.63 9.666-13.892 16.622 1.743 6.955 10.782 10.788 20.194 8.565C135.235 94.365 141.45 86.927 139.711 79.971zM126.348 92.727c-8.774-0.476-13.61-3.56-13.61-3.56s5.817-6.338 13-7.285c4.54-0.6 12.405 0.896 13.631 2.075C137.939 89.309 132.127 93.042 126.348 92.727z" fill="url(#SvgjsRadialGradient7812)" opacity="1"/>
                <path id="SvgjsPath7816" d="M139.368 83.957c-1.226-1.179-9.091-2.674-13.631-2.075 -7.183 0.947-13 7.285-13 7.285s4.836 3.083 13.61 3.56C132.127 93.042 137.939 89.309 139.368 83.957z" fill="url(#SvgjsRadialGradient7817)" opacity="1"/>
                <path id="SvgjsPath7820" d="M112.567 83.657c6.502-4.251 4.054-3.09 16.23-6.703 -3.344 0.5-9.572 2.066-11.707 3.32C115.927 80.928 113.567 82.783 112.567 83.657z" fill="#9f6037" stroke-width="none" opacity="1"/>
                <path id="SvgjsPath7821" d="M140.17 82.871c1.761-1.139 2.628-1.965 2.628-1.965s-3.434 1.009-5.312 0.867c1.815-0.612 2.646-1.55 3.004-1.852 -0.427 0.321-2.619 1.531-10.669 0.435 1.75-0.681 6.399-1.769 6.399-1.769 -13.909 0.712-22.589 6.056-23.826 7.508 0 0 3.315-1.844 5.783-2.315 -5.405 2.926-4.993 3.854-8.891 5.423 4.964 0.551 4.778 1.325 7.773 2.07 6.116 1.537 12.523 2.511 18.014-0.643 3.632-2.085 5.744-5.579 5.873-6.344 1.629-0.001 3.713-1.307 3.713-1.307S141.677 83.595 140.17 82.871zM126.348 92.533c-8.774-0.459-13.61-3.434-13.61-3.434s5.817-6.113 13-7.026c4.54-0.579 12.405 0.864 13.631 2.001C137.939 89.236 132.127 92.836 126.348 92.533z" fill="#131111" stroke-width="none" opacity="1"/>
              </g>
            </g>
          </g>
          <g id="svga-group-facehighlight-single">
            <path id="SvgjsPath7407" d="M140.204 113.007c0.035 22.275-17.995 40.365-40.273 40.396 -22.274 0.036-40.361-17.993-40.396-40.272C59.501 90.857 77.53 72.77 99.808 72.735 122.083 72.701 140.171 90.73 140.204 113.007z" fill="url(#SvgjsRadialGradient7408)" opacity="1"/>
            <path id="SvgjsPath7411" d="M135,55.999c0,19.329-15.671,35-35,35c-19.329,0-35-15.671-35-35s15.671-35,35-35C119.329,20.999,135,36.67,135,55.999z" fill="url(#SvgjsRadialGradient7412)" opacity="1"/>
          </g>
          <g id="svga-group-eyebrows-left-move" transform="matrix(1,0,0,1,0,0)">
            <g id="svga-group-eyebrows-left-rotate" transform="matrix(1,0,0,1,0,0)">
              <g id="svga-group-eyebrows-left" transform="matrix(1,0,0,1,0,0)">
                <path id="SvgjsPath7665" d="M57.992 72.441c14.723-3.028 33.357 2.799 33.336-0.649 0-0.869-0.892-1.128-1.755-1.194C74.692 69.333 68.299 68.423 57.992 72.441z" fill="#caa478" stroke-width="none" opacity="1" stroke="none"/>
              </g>
            </g>
          </g>
          <g id="svga-group-eyebrows-right-move" transform="matrix(1,0,0,1,0,0)">
            <g id="svga-group-eyebrows-right-rotate" transform="matrix(1,0,0,1,0,0)">
              <g id="svga-group-eyebrows-right" transform="matrix(1,0,0,1,0,0)">
                <path id="SvgjsPath7666" d="M142.008 72.441c-4.028-0.829-6.352-1.175-12.865-0.904 -7.413 0.219-20.486 2.799-20.471 0.254 0-0.869 0.892-1.128 1.755-1.194C125.38 69.328 131.708 68.426 142.008 72.441z" fill="#caa478" stroke-width="none" opacity="1" stroke="none"/>
              </g>
            </g>
          </g>
          <g id="svga-group-nose-single-move" transform="matrix(1,0,0,1,0,0)">
            <g id="svga-group-nose-single" transform="matrix(1,0,0,1,0,0)">
              <path id="SvgjsPath7676" d="M100.809 119.998c-0.345 0.375-0.628 0.33-0.954-0.059l-3.63-4.392h8.911L100.809 119.998z" fill="#be8a67" stroke-width="none" opacity="1" stroke="none"/>
              <path id="SvgjsPath7677" d="M95.208 116.229l4.719 3.839c0.394 0.32 0.545 0.199 0.34-0.27l-1.683-3.813c-0.082-0.185-0.107-0.495-0.057-0.691l1.229-19.37 -4.681 19.008C94.755 115.327 94.814 115.91 95.208 116.229z" fill="#9f6037" stroke-width="none" opacity="1" stroke="none"/>
            </g>
          </g>
          <g id="svga-group-hair-front" transform="matrix(1,0,0,1,0,0)">
            <path id="SvgjsPath7576" d="M135.453 136.583c4.073-9.43 7.262-21.972 9.477-37.279 0.067-0.451 0.117-0.808 0.156-1.061 0.992-6.489 0.009-15.862-4.491-21.104l-0.209-0.244 1.063-0.289c-0.539 0.124-1.096 0.247-1.669 0.366 -3.895 0.812-7.551 1.224-10.876 1.224 -8.797 0-15.616-2.829-20.263-8.409 -2.884-3.464-4.68-11.368-6.582-19.735 -2.544-11.194-5.175-22.769-10.662-26.053 -1.272-0.758-2.77-1.193-4.105-1.193 -1.154 0-2.151 0.307-2.96 0.912C80.825 26.344 81.281 34 82.011 37.903c-6.661-4.193-11.245-3.647-14.132-1.808 -5.428 3.459-8.168 11.845-9.025 21.554 -0.647 7.344-1.381 15.668-4.235 23.526 -3.619 9.945 0.764 1.836 0.764 1.836l0.112 0.573c2.247 11.564 3.201 20.767 2.542 28.887 -0.72 8.862-0.989 15.863 2.911 22.094l0.237 0.378 -0.427-0.071c-7.892-1.313-24.733-9.192-26.417-25.176l-0.051-0.488 0.363 0.313c0.315 0.271 2.397 1.733 4.077 2.905 -8.249-8.001-12.972-15.939-12.972-30.242l0.361-0.091c0.516 1.047 1.169 2.106 1.751 2.979 -3.586-8.104-3.808-18.838-2.478-23.624l0.124-0.445 0.225 0.399c0.955 1.693 2.194 3.886 3.725 5.646 -6.986-11.897-4.496-23.937 0.998-30.318l0.298-0.345 0.036 0.463c0.138 1.79 0.315 4.052 1.052 5.933 -1.572-6.165-0.748-20.448 12.067-29.989l0.496-0.37 -0.206 0.6c-0.432 1.264-0.861 2.679-0.954 3.958 3.524-8.109 9.525-11.792 17.405-14.465l0.453-0.153 -0.225 0.438c-0.544 1.061-1.988 3.876-1.5 5.569 0.003-0.282 0.051-0.613 0.159-1.001C60.68 3.291 67.8-4.195 76.029-4.195h0.348l-0.186 0.308c-0.233 0.382-0.436 0.783-0.606 1.2 2.336-3.445 6.864-5.813 11.42-5.813 2.583 0 4.913 0.759 6.735 2.196l0.227 0.179 -0.244 0.152c-1.506 0.943-2.912 2.001-4.195 3.053 5.901-3.859 10.306-6.315 16.26-6.315 3.459 0 7.326 0.824 12.176 2.592 14.423 5.252 24.526 7.891 28.151 20.928 -0.557-1.779-1.009-1.875-2.27-4.387l-0.214-0.425 0.44 0.142c16.21 5.222 16.52 13.536 16.745 21.066 0.017 0.563 0.033 1.115 0.056 1.651 0.056-0.743 0.12-1.481 0.187-2.209 0.125-1.394 0.255-2.836 0.29-4.253l0.01-0.353 0.285 0.189c2.37 1.573 10.314 12.614 12.4 25.004 1.406 8.331 0.191 12.962-0.979 17.442 -0.246 0.938-0.496 1.892-0.723 2.884 0.282-0.947 0.574-1.869 0.88-2.777l0.147-0.44 0.203 0.416c8.769 17.928 1.639 25.74-4.09 32.018 -0.592 0.648-1.17 1.282-1.713 1.907 1.346-1.315 2.674-2.543 3.867-3.634l0.306-0.279 0.013 0.424c0.222 7.91-5.008 11.922-9.624 15.462 -2.078 1.594-4.063 3.116-5.325 4.851 1.519-1.341 3.349-2.649 5.654-4.049l0.402-0.242 -0.12 0.466c-1.854 7.306-9.894 11.861-23.215 19.408 -1.289 0.729-4.51 2.563-4.51 2.563L135.453 136.583z" fill="#caa478" stroke-width="none" opacity="1" stroke="none"/>
            <path id="SvgjsPath7577" d="M140.595 77.138c-18.193 3.675-29.7 1.541-36.476-13.193 -3.777-30.062-8.219-39.376-16.828-41.14C113.185 25.574 94.168 79.888 140.595 77.138zM140.595 77.138c9.312 14.194-0.924 49.657-5.376 59.989C149.215 110.903 159.604 81.384 140.595 77.138zM76 34c-11-4-17 6-19 15 -2.18 13.077-0.38 31.068-17 52 12.198-10.494 16.776-14.285 20.089-43.505 1.098-9.685 2.362-17.94 7.79-21.399 2.514-1.602 6.315-2.22 11.652 0.414C78.539 34.84 76.646 34 76 34zM58.505 111.733c0.612-7.55 0.017-16.946-3.195-28.105 -0.783 18.777-8.53 30.985 4.649 49.982 0.188 0.073 0.375 0.147 0.563 0.219C57.105 127.782 57.814 120.249 58.505 111.733z" fill="#bb8f5c" stroke-width="none" opacity="1" stroke="none"/>
            <path id="SvgjsPath7578" d="M145.324 58.292c-0.047-0.001-0.045 0 0.128 0.007 -22.872-0.234-30.695-9.824-34.782-22.714 -7.638-24.12-29.693-24.206-33.143-8.625 3.043-18.274 28.903-14.735 35.651 7.876C118.056 51.152 130.186 57.602 145.324 58.292zM143.106 16.533C126.913-8.439 75.532 3.522 73.752 23.993 74.334 1.445 126.233-11.253 143.106 16.533zM76.913 31.942c-1.056-1.893-4.586-6.564-11.645-4.432C35.254 36.578 47.72 78.588 31.98 95.961c11.476-14.691 0.321-59.338 32.529-69.053C69.394 25.434 74.831 27.185 76.913 31.942zM76.915 22.284c2.541-10.911 16.292-16.115 26.676-14.975 12.555 1.378 15.997 14.619 21.2 20.917 8.055 9.752 17.439 10.502 27.63 8.976 -1.863 0.279-14.891 5.226-27.305-5.945 -9.141-8.23-8.852-18.521-21.154-22.038C97.229 7.295 80.559 10.274 76.915 22.284zM155.196 90.875c0.313-0.373 0.79-0.663 1.149-0.99 12.229-11.132 8.885-32.389 1.794-37.559C164.268 58.415 166.035 77.955 155.196 90.875zM161.098 100.625c-3.946 4.501-9.933 12.873-9.688 13.873 -0.295-1.215 9.346-10.466 10.222-11.625 4.784-6.33 7-12.439 4.996-18.441C167.539 90.212 167.093 93.787 161.098 100.625zM55.378 16.227c-14.68 3.301-12.107 23.189-12.345 24.189 0.238-1 0.325-20.632 15.298-22.799 -0.077 0.004-0.098 0.004-0.064 0.002 5.048-0.217 11 0.109 14.91 3.705C69.087 16.51 59.341 15.335 55.378 16.227zM74.958 2.319c1.366-1.797 3.992-4.456 7.554-4.432 -3.028-0.017-6.302-0.051-9.26 3.725 -1.752 2.238-3.791 8.079-2.474 10.984C70.391 9.074 73.379 4.396 74.958 2.319zM63.869 45.645c2.527-12.586 9.961-12.044 17.205-8.103C73.12 37.329 66.293 41.478 63.869 45.645zM82.033 37.471c-1.833-16.426 8.435-20.688 14.353-3.372C91.807 33.275 85.371 34.062 82.033 37.471z" fill="#ab7b44" stroke-width="none" opacity="1" stroke="none"/>
            <path id="SvgjsPath7579" d="M43.245 88.393c6.21-11.865 3.609-32.352 9.748-41.739C47.896 60.12 49.558 74.716 43.245 88.393zM54.231 129.125c-7.173-7.228-10.447-16.268-9.544-26.425C41.055 113.881 45.882 121.858 54.231 129.125zM32.207 47.33c-4.514 7.856-1.646 12.65 2.774 20.101C31.552 62.645 28.107 52.807 32.207 47.33zM33.572 85.294c-2.736-3.85-5.306-8.574-5.276-13.561C29.902 76.546 28.766 81.792 33.572 85.294zM40.7 47.569c-3.393-8.802-1.508-19.53 2.261-27.923C36.927 28.282 35.782 38.328 40.7 47.569zM117.56-4.839C99.84-6.906 83.557-4.017 73.519 13.085 83.277-0.626 101.23-6.846 117.56-4.839zM150.921 28.691c-19.725-0.53-23.47-23.613-42.557-23.028C127.391 6.139 129.372 29.359 150.921 28.691zM162.892 88.441c5.6-15.989 10.484-30.128 0.417-46.175C171.733 58.934 168.165 71.989 162.892 88.441zM154.505 115.547c-3.428 7.385-8.313 9.885-13.778 15.539C147.598 128.183 152.767 122.906 154.505 115.547zM155.112 46.88c-14.333 0.554-27.096-3.42-35.116-15.573C126.915 45.62 140.449 48.376 155.112 46.88z" fill="#d9ba97" stroke-width="none" opacity="1" stroke="none"/>
            <path id="SvgjsPath7580" d="M179.475 82.804c0.005 0.018 0.006-0.012-0.001-0.142 -0.01-0.068-0.017-0.106-0.021-0.127 -0.681-4.582-1.776-8.134-4.785-13.389 -0.303-0.525-1.071-1.37-0.882-1.951 0.822-2.485 4.435-11.733 0.758-23.114 -1.646-5.076-8.407-16.142-12.744-18.91 -1.355-11.878-6.353-13.801-18.127-16.226 0.169 0.294 0.332 0.596 0.49 0.904 19.536 6.37 15.576 18.102 16.786 25.495 -0.024-3.157 0.515-6.309 0.599-9.465 2.242 1.489 10.189 12.306 12.307 24.868 2.062 12.204-1.492 16.26-2.392 24.204 0.567-2.246 1.199-4.433 1.944-6.627 10.874 22.246-2.971 28.891-7.729 36.23 1.949-2.05 3.989-3.97 6.084-5.875 0.35 12.208-12.526 15.039-15.665 21.416 1.974-1.952 4.282-3.552 6.666-4.99 -2.01 7.926-11.433 12.604-27.135 21.559 6.678-15.453 9.153-35.195 9.645-38.389 0.893-5.856 0.302-15.627-4.534-21.273 2.936-0.798 5.926-1.575 8.768-2.664 -2.385 0-27.827 10.785-40.72-4.686 -6.831-8.199-7.54-39.99-17.292-45.823 -2.11-1.262-5.17-1.845-7.277-0.27 -3.157 2.361-3.334 8.466-2.694 12.726 0.001 0.607 0.064 1.201 0.064 1.201s-1-0.656-1.38-0.875c-3.825-2.035-8.559-3.158-12.427-0.689 -9.606 6.133-6.676 26.843-13.343 45.18 -6.091 16.753-12.381 14.397-17.286 23.911 6-9.295 11.27-6.831 18.158-21.384 4.75 24.441-1.98 39.14 5.477 51.048 -6.8-1.127-24.501-8.387-26.255-24.997 0.54 0.46 6.15 4.352 6.284 4.437 -9.746-8.919-14.863-16.825-14.863-31.927 1.233 2.52 3.216 5.03 3.216 5.03 0.018-0.088-0.264-0.461-0.304-0.537 -4.259-8.017-4.749-19.923-3.287-25.177 1.336 2.372 2.909 5.096 4.982 6.932 -8.201-12.494-5.386-25.259 0.048-31.57 0.206 2.59 0.475 6.017 2.29 8.082 -2.109-3.291-3.982-20.742 11.13-31.998 -0.505 1.474-1.096 3.403-0.961 4.984C46.744 8.83 53.23 5.248 60.722 2.7c-0.82 1.595-2.976 5.865-0.408 6.993C56.953 8.215 65.631-3.999 76.033-3.999c-0.544 0.896-0.917 1.88-1.123 2.906 2.922-6.477 12.93-9.608 18.715-5.051 -2.37 1.478-4.53 3.266-6.61 5.114 12.854-8.234 21.979-8.207 34.624-3.891 7.605 2.596 17.111 5.483 24.73 19.78C144.19 3.939 130.166-4.423 122.695-6.942c-20.28-6.846-28.51 0.08-28.51 0.08 -6.209-7.016-14.417-2.535-17.698 2.159C61.433-5.065 62.594 1.579 60.955 1.884c-14.59 2.726-14.66 8.385-17.02 9.676 -10.961 6.003-13.735 13.668-13.402 24.191 -12.438 12.35-5.392 23.111-5.887 24.23 -5.069 11.436 0.464 18.845 0.238 20.38 -3.08 20.905 8.766 27.064 8.769 28.864 0.045 22.594 23.879 26.713 28.836 26.308 -7.255-14.38 1.09-23.773-6.729-52.88 4.149-9.398 6.389-21.289 7.314-30.863 1.03-10.639 14.588-14.209 18.938-13.887 4.391-3.255 8.96-3.179 14.78-2.578 3.275 10.267 4.844 23.685 5.561 26.507 4.188 16.459 20.678 19.766 37.427 15.424 1.043-0.269 5.199 6.586 4.059 17.601 -0.146 1.409-5.579 32.572-9.609 43.643 9.359-4.462 26.288-9.968 29.666-24.11 6.988-4.789 10.256-7.462 8.856-16.221C172.75 98.169 179.908 92.106 179.475 82.804z" fill="#9c692e" stroke-width="none" opacity="1" stroke="none"/>
          </g>
          <g id="svga-group-glasses-single-move" transform="matrix(1,0,0,1,0,0)">
            <g id="svga-group-glasses-single" transform="matrix(1,0,0,1,0,0)">
              <path id="SvgjsPath7704" d="M100,18.13L100,18.13L100,18.13L100,18.13z" fill="#f3d4cf" stroke-width="none" opacity="1"/>
            </g>
          </g>
        </g>
      </g>
    </g>
    <rect id="SvgjsRect7392" width="200" height="15" x="0" y="185" fill="#ecf0f1" opacity="0.5" style="display: none;"/>
    <text id="SvgjsText7393" font-family="Roboto, Helvetica, Arial, sans-serif" font-size="10px" text-anchor="start" font-weight="400" anchor="start" fill="#333333" x="58.03125" y="182.4140625" style="display: none;">
      <tspan id="SvgjsTspan7394" dy="13" x="58.03125">Created on face.co</tspan>
    </text>
  </g>
</svg>
