<?xml version="1.0"?>
<svg xmlns="http://www.w3.org/2000/svg" version="1.1" width="600px" height="600px" viewBox="0 0 200 200" style="overflow:hidden!important;">
  <defs id="SvgjsDefs10462">
    <radialGradient id="SvgjsRadialGradient10523" cx="100" cy="113" r="40" gradientUnits="userSpaceOnUse" class="svga-on-canvas-facehighlight-gradient-single-0">
      <stop id="SvgjsStop10524" stop-opacity="0.5" stop-color="#fff4f3" offset="0"/>
      <stop id="SvgjsStop10525" stop-opacity="0" stop-color="#f3d4cf" offset="0.9"/>
    </radialGradient>
    <radialGradient id="SvgjsRadialGradient10527" cx="100" cy="57" r="36" gradientUnits="userSpaceOnUse" class="svga-on-canvas-facehighlight-gradient-single-1">
      <stop id="SvgjsStop10528" stop-opacity="0.5" stop-color="#fff4f3" offset="0"/>
      <stop id="SvgjsStop10529" stop-opacity="0" stop-color="#f3d4cf" offset="0.9"/>
    </radialGradient>
    <radialGradient id="SvgjsRadialGradient10612" cx="-565.337" cy="-492.691" r="84.644" gradientTransform="matrix(0.0991 8.856325e-004 -0.0011 0.0991 130.3774 136.3533)" gradientUnits="userSpaceOnUse" class="svga-on-canvas-eyesiris-gradient-left-2">
      <stop id="SvgjsStop10613" stop-opacity="0.8" stop-color="#ffffff" offset="0"/>
      <stop id="SvgjsStop10614" stop-opacity="0" stop-color="#ffffff" offset="1"/>
    </radialGradient>
    <linearGradient id="SvgjsLinearGradient10618" x1="122.283" y1="93.047" x2="123.61" y2="91.466" gradientTransform="matrix(1 0 0 1 -52 0)" gradientUnits="userSpaceOnUse" class="svga-on-canvas-eyesiris-gradient-left-5">
      <stop id="SvgjsStop10619" stop-opacity="1" stop-color="#ffffff" offset="0"/>
      <stop id="SvgjsStop10620" stop-opacity="0" stop-color="#ffffff" offset="1"/>
    </linearGradient>
    <linearGradient id="SvgjsLinearGradient10622" x1="127" y1="85" x2="125" y2="87" gradientTransform="matrix(1 0 0 1 -50 0)" gradientUnits="userSpaceOnUse" class="svga-on-canvas-eyesiris-gradient-left-6">
      <stop id="SvgjsStop10623" stop-opacity="1" stop-color="#ffffff" offset="0"/>
      <stop id="SvgjsStop10624" stop-opacity="0" stop-color="#ffffff" offset="1"/>
    </linearGradient>
    <linearGradient id="SvgjsLinearGradient10626" x1="130" y1="81" x2="126" y2="85" gradientTransform="matrix(1 0 0 1 -50 0)" gradientUnits="userSpaceOnUse" class="svga-on-canvas-eyesiris-gradient-left-7">
      <stop id="SvgjsStop10627" stop-opacity="1" stop-color="#ffffff" offset="0"/>
      <stop id="SvgjsStop10628" stop-opacity="0" stop-color="#ffffff" offset="1"/>
    </linearGradient>
    <radialGradient id="SvgjsRadialGradient10635" cx="-584.778" cy="-487.329" r="84.644" gradientTransform="matrix(0.0991 8.856325e-004 -0.0011 0.0991 182.3104 135.839)" gradientUnits="userSpaceOnUse" class="svga-on-canvas-eyesiris-gradient-right-2">
      <stop id="SvgjsStop10636" stop-opacity="0.8" stop-color="#ffffff" offset="0"/>
      <stop id="SvgjsStop10637" stop-opacity="0" stop-color="#ffffff" offset="1"/>
    </radialGradient>
    <linearGradient id="SvgjsLinearGradient10641" x1="120.284" y1="93.047" x2="121.611" y2="91.467" gradientUnits="userSpaceOnUse" class="svga-on-canvas-eyesiris-gradient-right-5">
      <stop id="SvgjsStop10642" stop-opacity="1" stop-color="#ffffff" offset="0"/>
      <stop id="SvgjsStop10643" stop-opacity="0" stop-color="#ffffff" offset="1"/>
    </linearGradient>
    <linearGradient id="SvgjsLinearGradient10645" x1="127" y1="85" x2="125" y2="87" gradientUnits="userSpaceOnUse" class="svga-on-canvas-eyesiris-gradient-right-6">
      <stop id="SvgjsStop10646" stop-opacity="1" stop-color="#ffffff" offset="0"/>
      <stop id="SvgjsStop10647" stop-opacity="0" stop-color="#ffffff" offset="1"/>
    </linearGradient>
    <linearGradient id="SvgjsLinearGradient10649" x1="130" y1="81" x2="126" y2="85" gradientUnits="userSpaceOnUse" class="svga-on-canvas-eyesiris-gradient-right-7">
      <stop id="SvgjsStop10650" stop-opacity="1" stop-color="#ffffff" offset="0"/>
      <stop id="SvgjsStop10651" stop-opacity="0" stop-color="#ffffff" offset="1"/>
    </linearGradient>
    <radialGradient id="SvgjsRadialGradient10707" cx="126.391" cy="85.989" r="13.763" gradientTransform="matrix(-1.0172 0 0 1.0172 202.565 -1.469)" gradientUnits="userSpaceOnUse" class="svga-on-canvas-eyesback-gradient-left-0">
      <stop id="SvgjsStop10708" stop-opacity="1" stop-color="#ffffff" offset="0"/>
      <stop id="SvgjsStop10709" stop-opacity="1" stop-color="#fdfefe" offset="0.544"/>
      <stop id="SvgjsStop10710" stop-opacity="1" stop-color="#f6f8f9" offset="0.74"/>
      <stop id="SvgjsStop10711" stop-opacity="1" stop-color="#eaeff2" offset="0.879"/>
      <stop id="SvgjsStop10712" stop-opacity="1" stop-color="#d9e3e8" offset="0.992"/>
      <stop id="SvgjsStop10713" stop-opacity="1" stop-color="#d8e2e7" offset="1"/>
    </radialGradient>
    <radialGradient id="SvgjsRadialGradient10715" cx="126.391" cy="85.989" r="13.763" gradientTransform="matrix(1.0172 0 0 1.0172 -2.565 -1.469)" gradientUnits="userSpaceOnUse" class="svga-on-canvas-eyesback-gradient-right-0">
      <stop id="SvgjsStop10716" stop-opacity="1" stop-color="#ffffff" offset="0"/>
      <stop id="SvgjsStop10717" stop-opacity="1" stop-color="#fdfefe" offset="0.544"/>
      <stop id="SvgjsStop10718" stop-opacity="1" stop-color="#f6f8f9" offset="0.74"/>
      <stop id="SvgjsStop10719" stop-opacity="1" stop-color="#eaeff2" offset="0.879"/>
      <stop id="SvgjsStop10720" stop-opacity="1" stop-color="#d9e3e8" offset="0.992"/>
      <stop id="SvgjsStop10721" stop-opacity="1" stop-color="#d8e2e7" offset="1"/>
    </radialGradient>
    <radialGradient id="SvgjsRadialGradient10723" cx="126.391" cy="85.989" r="13.763" gradientTransform="matrix(-1.0172 0 0 1.0172 202.565 -1.469)" gradientUnits="userSpaceOnUse" class="svga-on-canvas-eyesfront-gradient-left-0">
      <stop id="SvgjsStop10724" stop-opacity="1" stop-color="#ffffff" offset="0"/>
      <stop id="SvgjsStop10725" stop-opacity="1" stop-color="#fdfefe" offset="0.544"/>
      <stop id="SvgjsStop10726" stop-opacity="1" stop-color="#f6f8f9" offset="0.74"/>
      <stop id="SvgjsStop10727" stop-opacity="1" stop-color="#eaeff2" offset="0.879"/>
      <stop id="SvgjsStop10728" stop-opacity="1" stop-color="#d9e3e8" offset="0.992"/>
      <stop id="SvgjsStop10729" stop-opacity="1" stop-color="#d8e2e7" offset="1"/>
    </radialGradient>
    <radialGradient id="SvgjsRadialGradient10733" cx="123.411" cy="85.41" fx="136.047" fy="85.446" r="17.971" gradientTransform="matrix(0.9998 0.0208 0.0166 -0.7998 -48.2173 151.1555)" gradientUnits="userSpaceOnUse" class="svga-on-canvas-eyesfront-gradient-left-3">
      <stop id="SvgjsStop10734" stop-opacity="1" stop-color="#e4b3ab" offset="0"/>
      <stop id="SvgjsStop10735" stop-opacity="0.3" stop-color="#e4b3ab" offset="0.7"/>
      <stop id="SvgjsStop10736" stop-opacity="0" stop-color="#f3d4cf" offset="1"/>
    </radialGradient>
    <radialGradient id="SvgjsRadialGradient10738" cx="78.542" cy="109.585" r="29.473" gradientTransform="matrix(0.9362 -0.0488 0.049 0.9315 -2.5399 10.6886)" gradientUnits="userSpaceOnUse" class="svga-on-canvas-eyesfront-gradient-left-4">
      <stop id="SvgjsStop10739" stop-opacity="0" stop-color="#000000" offset="0.95"/>
      <stop id="SvgjsStop10740" stop-opacity="0.3" stop-color="#000000" offset="1"/>
    </radialGradient>
    <radialGradient id="SvgjsRadialGradient10744" cx="126.391" cy="85.989" r="13.763" gradientTransform="matrix(1.0172 0 0 1.0172 -2.565 -1.469)" gradientUnits="userSpaceOnUse" class="svga-on-canvas-eyesfront-gradient-right-0">
      <stop id="SvgjsStop10745" stop-opacity="1" stop-color="#ffffff" offset="0"/>
      <stop id="SvgjsStop10746" stop-opacity="1" stop-color="#fdfefe" offset="0.544"/>
      <stop id="SvgjsStop10747" stop-opacity="1" stop-color="#f6f8f9" offset="0.74"/>
      <stop id="SvgjsStop10748" stop-opacity="1" stop-color="#eaeff2" offset="0.879"/>
      <stop id="SvgjsStop10749" stop-opacity="1" stop-color="#d9e3e8" offset="0.992"/>
      <stop id="SvgjsStop10750" stop-opacity="1" stop-color="#d8e2e7" offset="1"/>
    </radialGradient>
    <radialGradient id="SvgjsRadialGradient10754" cx="123.411" cy="85.41" fx="136.047" fy="85.446" r="17.971" gradientTransform="matrix(-0.9998 0.0208 -0.0166 -0.7998 248.2173 151.1555)" gradientUnits="userSpaceOnUse" class="svga-on-canvas-eyesfront-gradient-right-3">
      <stop id="SvgjsStop10755" stop-opacity="1" stop-color="#e4b3ab" offset="0"/>
      <stop id="SvgjsStop10756" stop-opacity="0.3" stop-color="#e4b3ab" offset="0.7"/>
      <stop id="SvgjsStop10757" stop-opacity="0" stop-color="#f3d4cf" offset="1"/>
    </radialGradient>
    <radialGradient id="SvgjsRadialGradient10759" cx="78.542" cy="109.585" r="29.473" gradientTransform="matrix(-0.9362 -0.0488 -0.049 0.9315 202.5399 10.6886)" gradientUnits="userSpaceOnUse" class="svga-on-canvas-eyesfront-gradient-right-4">
      <stop id="SvgjsStop10760" stop-opacity="0" stop-color="#000000" offset="0.95"/>
      <stop id="SvgjsStop10761" stop-opacity="0.3" stop-color="#000000" offset="1"/>
    </radialGradient>
    <linearGradient id="SvgjsLinearGradient10766" x1="130" y1="81" x2="126" y2="85" gradientTransform="matrix(1 0 0 1 -50 0)" gradientUnits="userSpaceOnUse" class="svga-on-canvas-eyesiris-gradient-left-1">
      <stop id="SvgjsStop10767" stop-opacity="1" stop-color="#ffffff" offset="0"/>
      <stop id="SvgjsStop10768" stop-opacity="0" stop-color="#ffffff" offset="1"/>
    </linearGradient>
    <linearGradient id="SvgjsLinearGradient10771" x1="130" y1="81" x2="126" y2="85" gradientUnits="userSpaceOnUse" class="svga-on-canvas-eyesiris-gradient-right-1">
      <stop id="SvgjsStop10772" stop-opacity="1" stop-color="#ffffff" offset="0"/>
      <stop id="SvgjsStop10773" stop-opacity="0" stop-color="#ffffff" offset="1"/>
    </linearGradient>
    <linearGradient id="SvgjsLinearGradient10808" x1="99.98" y1="171.27" x2="99.98" y2="136.351" gradientUnits="userSpaceOnUse" class="svga-on-canvas-chinshadow-gradient-single-0">
      <stop id="SvgjsStop10809" stop-opacity="0.8" stop-color="#e4b3ab" offset="0"/>
      <stop id="SvgjsStop10810" stop-opacity="1" stop-color="#c5796d" offset="0.7"/>
    </linearGradient>
    <linearGradient id="SvgjsLinearGradient10817" x1="100" y1="142" x2="100" y2="139" gradientUnits="userSpaceOnUse" class="svga-on-canvas-mouth-gradient-single-0">
      <stop id="SvgjsStop10818" stop-opacity="1" stop-color="#ebc3bd" offset="0.1"/>
      <stop id="SvgjsStop10819" stop-opacity="1" stop-color="#e4b3ab" offset="1"/>
    </linearGradient>
  </defs>
  <g id="svga-group-wrapper">
    <g id="svga-group-backs-single">
      <path id="SvgjsPath10823" d="M225 225H-25V-25h250V225z" fill="#f9f2e7" stroke-width="none" opacity="1" stroke="none"/>
    </g>
    <g id="svga-group-humanwrap-move" transform="matrix(1,0,0,1,0,0)">
      <g id="svga-group-humanwrap" transform="matrix(1,0,0,1,0,0)">
        <g id="svga-group-hair-back-move" transform="matrix(1,0,0,1,0,0)">
          <g id="svga-group-hair-back" transform="matrix(1,0,0,1,0,0)">
            <path id="SvgjsPath10682" d="M100.5,100.5h-1v-1h1V100.5z" fill="#cac1b2" stroke-width="none" opacity="1" stroke="none"/>
          </g>
        </g>
        <g id="svga-group-humanbody-single">
          <path id="SvgjsPath10530" d="M190.858 199.866c-6.008-10.158-13.474-11.973-19.628-13.936 -6.323-2.016-19.346-3.178-26.449-4.6 -6.86-1.373-23.153-5.789-23.339-13.488 -0.192-8.066 4.291-40.09 4.291-40.09H74.005c0 0 4.487 32.023 4.294 40.09 -0.184 7.699-16.48 12.115-23.341 13.488 -7.104 1.422-20.125 2.584-26.448 4.6 -6.156 1.963-13.624 3.777-19.632 13.936 -3.644 6.16-6.008 16.133-6.008 27.133h194C196.869 215.999 194.509 206.026 190.858 199.866z" fill="#f3d4cf" stroke-width="none" opacity="1" stroke="none"/>
          <path id="SvgjsPath10531" d="M121.442 167.843c2.495 10.929 18.165 13.698 26.293 15.325 21.909 4.379 33.772 5.134 42.297 19.539 2.903 4.916 5.459 15.864 5.962 24.153 1.835 0.291 0.531-17.432-5.136-26.994 -9.742-16.472-29.089-15.135-46.077-18.535C137.921 179.958 121.628 175.542 121.442 167.843L121.442 167.843zM78.558 167.843c-0.186 7.699-16.479 12.115-23.339 13.488 -16.988 3.4-36.335 2.063-46.077 18.535 -5.667 9.563-6.971 27.285-5.136 26.994 0.503-8.289 3.059-19.237 5.962-24.153 8.524-14.405 20.388-15.16 42.297-19.539C60.393 181.541 76.063 178.771 78.558 167.843L78.558 167.843z" fill="#fff4f3" stroke-width="none" opacity="1" stroke="none"/>
          <path id="SvgjsPath10532" d="M51.206 189.513c0 0 28.641 0.299 33.473 1.885 2.314 0.758 8.372 5.633 8.372 5.633s-6.556-3.17-8.658-3.758C79.51 191.909 51.206 189.513 51.206 189.513zM99.795 199.999c2.053-0.041 7.887-3.799 7.887-3.799s-5.574 2.059-7.342 2.16c-1.491 0.086-6.366-1.238-6.366-1.238S98.112 200.032 99.795 199.999zM117.008 192.757c6.75-1.818 29.786-3.23 29.786-3.23s-23.791-0.516-30.51 1.725c-2.252 0.752-7.562 5.16-7.562 5.16S114.786 193.354 117.008 192.757z" fill="#e4b3ab" stroke-width="none" opacity="1" stroke="none"/>
          <path id="SvgjsPath10533" d="M190.858 199.866c-9.741-16.471-29.122-15.142-46.077-18.535 -6.86-1.373-23.153-5.789-23.339-13.488 -0.192-8.066 4.291-40.09 4.291-40.09H74.005c0 0 4.487 32.023 4.294 40.09 -0.184 7.699-16.48 12.115-23.341 13.488 -7.104 1.422-20.125 2.584-26.448 4.6 -6.156 1.963-13.624 3.777-19.632 13.936 -3.644 6.16-6.008 16.133-6.008 27.133h194C196.869 215.999 194.509 206.026 190.858 199.866z" fill="none" stroke="#c5796d" stroke-width="1.5" opacity="1"/>
        </g>
        <g id="svga-group-chinshadow-single">
          <path id="SvgjsPath10807" d="M100.021 171.27c5.607-0.009 13.53-3.627 20.967-8.478 0.485-6.84 1.756-17.341 2.758-25.098 -13.972-1.825-33.828-1.785-47.741 0.101 0.995 7.702 2.249 18.065 2.739 24.877C86.278 167.593 94.344 171.279 100.021 171.27z" fill="url(#SvgjsLinearGradient10808)" opacity="1"/>
        </g>
        <g id="svga-group-clothes-single">
          <path id="SvgjsPath10789" d="M190.188 199.647c-9.662-17.92-26.803-14.749-44.614-19.556 -1.348 1.637-13.686 17.468-16.485 25.934 -1.572-1.256-3.449-2.938-4.804-4.477 -6.628-7.46-16.453-31.601-19.75-12.749 0.717-8.463 4.614-10.327 10.025-3.234 5.817 7.633 6.033 11.575 14.333 19.875 1.466-5.831 4.273-10.037 7.966-15.201 3.573-5.005 6.435-8.945 10.566-12.492 -2.261-1.226-4.647-2.217-6.801-3.596 -13.515-8.76-5.435-17.647-17.685-19.764 -0.096 1.058-0.217 2.245-0.317 3.137 2.619 1.29 3.128 6.32-0.905 10.002 -6.41 6.742-14.866 7.077-17.552 17.429l-0.006-0.001c-0.854 3.071-1.539 7.776-1.863 10.533l-4.542 0.389c-1.847-16.224-4.261-17.811-12.157-22.824 -5.231-3.321-12.489-8.335-9.698-14.003 0.318-0.656 0.705-1.059 1.186-1.361 -0.138-1.296-0.22-2.048-0.326-3.251 -12.216 2.312-4.037 11.604-17.651 19.873 -2.06 1.247-4.075 2.097-6.543 3.416 4.879 4.251 16.31 18.506 18.561 27.717 8.378-8.476 8.442-12.181 14.294-19.847 5.04-6.597 9.156-5.921 10.021 3.007 -0.476-2.682-1.603-6.787-4.045-6.787 -2.012 0-4.109 2.844-5.147 4.217 -5.809 7.667-6.742 13.154-15.352 20 -0.596-1.716-1.294-3.438-2.128-5.043 -3.412-6.604-13.291-19.595-14.342-20.887 -4.083 1.102-9.667 1.984-13.408 2.58 -24.442 3.897-33.916 8.81-37.519 44.213 89.639-0.87 126.166-0.49 192.932-0.49C195.594 218.524 193.953 206.642 190.188 199.647z" fill="#653220" stroke-width="none" opacity="1" stroke="none"/>
          <path id="SvgjsPath10790" d="M95.717 224.342c-3.653 0-6.286-0.061-7.83-0.178 0.466-2.48 1.856-7.125 2.656-9.437 -2.555-3.227-3.274-6.568-3.908-9.518 -0.377-1.754-0.705-3.274-1.361-4.468 0.136-0.077 0.49-0.274 0.49-0.274l-0.063-0.091c-1.685-2.413-3.682-5.039-5.754-6.277l0.34-0.566c1.692-2.82 4.515-7.526 6.942-9.985 4.186 3.168 8.991 9.141 10.865 12.259l0.035 0.057 0.066-0.01c1.296-0.193 2.722-0.309 3.815-0.309 2.926-4.474 7.014-9.048 10.768-12 1.966 1.719 5.101 6.956 6.614 9.487 0.293 0.488 0.517 0.863 0.65 1.074 -2.356 1.583-4.58 4.592-5.434 5.822l-0.054 0.077 0.074 0.059c0.338 0.263 0.988 0.809 1.331 1.15 -0.691 5.103-2.874 10.362-5.725 13.645 0.685 2.18 0.951 4.674 1.32 8.126l0.123 1.141c-0.251 0.003-0.797 0.014-1.564 0.029C107.169 224.216 101.044 224.342 95.717 224.342 95.718 224.342 95.718 224.342 95.717 224.342z" fill="#141111" stroke-width="none" opacity="1"/>
          <path id="SvgjsPath10791" d="M113.911 202.273c-0.201 4.322-1.702 7.874-4.265 12.068 2.646-3.301 5.655-8.274 6.313-13.127 -2.801-2.801-12.774-7.511-23.341-3.521C101.263 195.991 111.48 197.412 113.911 202.273z" fill="#2c2526" stroke-width="none" opacity="1"/>
          <path id="SvgjsPath10792" d="M143.952 181.126c-2.462 2.676-4.609 5.634-7.094 9.113 -3.192 4.465-5.719 8.218-7.293 12.92 1.813-9.701 7.918-18.479 15.435-25.159 -7.906-1.438-11.68-8.559-13.549-15.792 1.174 3.502 2.683 7.736 9.173 11.943 2.153 1.379 4.54 2.37 6.801 3.596C147.273 177.877 143.952 181.126 143.952 181.126zM186 198c5.681 7.102 8.332 16.221 10.11 25.565 -0.919-7.689-2.586-17.72-5.923-23.918 -9.662-17.92-26.803-14.749-44.614-19.556 -0.158 0.191-0.471 0.584-0.897 1.131C159.32 183.163 176.369 185.48 186 198zM52.575 177.747c2.261-1.226 4.647-2.217 6.801-3.596 6.49-4.207 7.999-8.441 9.173-11.943C66.68 169.441 62.906 176.563 55 178c7.517 6.681 13.621 15.458 15.435 25.159 -1.574-4.702-4.101-8.455-7.293-12.92 -2.484-3.479-4.632-6.438-7.094-9.113C56.048 181.126 52.727 177.877 52.575 177.747zM55.324 181.223c-0.427-0.547-0.739-0.939-0.897-1.131 -17.812 4.807-34.952 1.636-44.614 19.556 -3.337 6.198-5.004 16.229-5.923 23.918C5.668 214.221 8.319 205.102 14 198 23.631 185.48 40.68 183.163 55.324 181.223z" fill="#545b8e" stroke-width="none" opacity="1"/>
          <path id="SvgjsPath10793" d="M143.952 181.126c-2.462 2.676-4.609 5.634-7.094 9.113 -3.192 4.465-5.719 8.218-7.293 12.92 1.813-9.701 7.918-18.479 15.435-25.159 -7.906-1.438-11.68-8.559-13.549-15.792 1.174 3.502 2.683 7.736 9.173 11.943 2.153 1.379 4.54 2.37 6.801 3.596C147.273 177.877 143.952 181.126 143.952 181.126zM186 198c5.681 7.102 8.332 16.221 10.11 25.565 -0.919-7.689-2.586-17.72-5.923-23.918 -9.662-17.92-26.803-14.749-44.614-19.556 -0.158 0.191-0.471 0.584-0.897 1.131C159.32 183.163 176.369 185.48 186 198zM52.575 177.747c2.261-1.226 4.647-2.217 6.801-3.596 6.49-4.207 7.999-8.441 9.173-11.943C66.68 169.441 62.906 176.563 55 178c7.517 6.681 13.621 15.458 15.435 25.159 -1.574-4.702-4.101-8.455-7.293-12.92 -2.484-3.479-4.632-6.438-7.094-9.113C56.048 181.126 52.727 177.877 52.575 177.747zM55.324 181.223c-0.427-0.547-0.739-0.939-0.897-1.131 -17.812 4.807-34.952 1.636-44.614 19.556 -3.337 6.198-5.004 16.229-5.923 23.918C5.668 214.221 8.319 205.102 14 198 23.631 185.48 40.68 183.163 55.324 181.223z" fill="#744230" stroke-width="none" opacity="1" stroke="none"/>
          <path id="SvgjsPath10794" d="M118.303 173c-4.485 2.492-8.283 4.938-10.802 8.379 0.979 0.283 3.556 0.964 4.767 2.375 -4.003 3.142-6.432 6.012-9.915 11.611 0.397-3.133 0.558-5.563 1.203-7.858 0.188-0.914 0.39-1.785 0.604-2.553l0.006 0.001c2.686-10.352 11.142-10.687 17.552-17.429 4.033-3.682 3.524-8.712 0.905-10.002 0.101-0.892 0.222-2.079 0.317-3.137 0.672 0.116 1.271 0.257 1.828 0.413C133.028 161.766 123.939 170.584 118.303 173zM80.601 173c4.485 2.492 9.97 5.445 12.482 8.587 -0.979 0.283-4.14 0.756-5.351 2.167 4.551 4.245 7.303 7.188 10.266 11.982 -0.397-3.133-0.908-5.935-1.554-8.229 -0.188-0.914-0.39-1.785-0.604-2.553l-0.006 0.001c-2.686-10.352-11.142-10.687-17.552-17.429 -4.033-3.682-3.524-8.712-0.905-10.002 -0.101-0.892-0.222-2.079-0.317-3.137 -0.672 0.116-1.271 0.257-1.828 0.413C68.311 162.904 75.536 170.056 80.601 173z" fill="#562413" stroke-width="none" opacity="1" stroke="none"/>
          <path id="SvgjsPath10795" d="M123.859 159.785c0.569 2.32-0.34 4.21-1.75 5.82 0.01-1.72 0.16-3.45 0.319-5.15 0.08-0.84 0.171-1.689 0.25-2.529C123.219 158.295 123.639 158.896 123.859 159.785zM77.309 160.815c0.11 1.47 0.24 2.939 0.27 4.41 -1.22-1.53-1.95-3.271-1.44-5.42 0.17-0.74 0.48-1.271 0.89-1.65C77.129 159.045 77.219 159.926 77.309 160.815z" fill="#461808" stroke-width="none" opacity="1" stroke="none"/>
          <path id="SvgjsPath10796" d="M192.56 200.686c-8.84-20.244-29.707-17.8-46.46-21.05 0.696-0.843 1.549-1.73 1.739-1.9 -2.635-1.86-11.126-5.595-14.239-12.38 -2.229-4.835-1.683-10.37-10.851-11.26 -0.503 2.816-1.225 9.009-1.09 12 -9.604 9.907-19.063 5.479-20.226 29.359l0.779-0.018c0 0 0.221-0.146 0.229-0.215 2.844-23.354 10.041-17.837 19.347-27.627 4.168-3.829 3.449-8.9 0.94-10.13 0.109-0.99 0.21-1.971 0.3-2.961 7.887 1.39 7.203 5.838 9.67 11.271 3.279 7.224 11.345 10.264 14.55 11.99 -4.338 3.729-7.473 8.221-10.939 13.069 -5.453 7.563-6.714 11.421-7.471 14.41 -8.276-8.33-8.281-11.981-14.2-19.74 -6.311-8.277-10.367-3.908-10.289 5.37 0.18-2.319 1.569-10.83 5.51-8.6 4.556 2.544 9.029 13.352 14.35 19.34 1.42 1.611 3.248 3.229 4.93 4.58 2.071-6.931 9.616-16.647 14.271-23.13 0.71-0.98 1.44-1.94 2.2-2.86 6.49 1.69 13.26 2.46 19.83 3.66 23.784 4.36 28.162 17.492 30.88 42.44 -37.937 0.194-79.138-0.603-192.71 0.489 1.646-16.292 4.431-29.61 14.5-36.81 4.32-3.1 9.33-4.72 14.49-5.75 7.19-1.43 14.66-2.17 21.79-4.02 0.83 1.01 1.62 2.05 2.39 3.13 8.804 12.243 11.1 14.931 14.07 22.85 10.018-7.514 14.024-21.616 19.54-24.05 3.84-1.69 5.08 6.42 5.26 8.729 0.075-9.841-4.519-15.681-13.81-0.22 -4.578 7.621-5.792 9.687-10.66 14.59 -1.955-7.948-12.36-22.256-18.44-27.5 3.772-2.028 10.592-4.438 14.24-11.3 2.409-4.707 1.339-10.294 9.69-11.89 0.09 1.029 0.2 2.05 0.31 3.08 -2.287 1.441-2.683 6.284 0.97 9.67 3.29 3.609 7.75 5.67 11.67 8.55 4.621 3.419 6.449 6.918 7.92 19.15 0.032 0.267 0.375 0.777 0.375 0.777l0.643-0.083c-0.379-8.482-1.601-15.681-6.567-19.825 -4.29-3.668-10.305-6.005-13.94-10.1 0.11-3.072-0.706-9.294-1.1-11.64 -8.308 0.811-8.378 5.859-10.14 10.279 -2.667 6.687-9.6 10.256-14.65 13.311 0.335 0.333 1.129 1.187 1.74 1.91 -6.99 1.369-14.23 1.76-21.24 2.989 -10.46 1.83-20.33 7.12-24.83 17.19 -3.418 7.642-4.409 18.603-4.66 26.99 -0.01 0.06-0.01 0.13-0.01 0.189 0.14 0.01 0.29 0.01 0.43 0.01 120.323 1.226 192.229-0.51 193.23-0.51C196.819 225.494 196.378 209.429 192.56 200.686zM122.109 165.605c0.015-2.591 0.373-5.593 0.569-7.68C124.151 158.933 125.021 162.281 122.109 165.605zM77.579 165.226c-2.446-3.068-1.66-6.042-0.55-7.07C77.261 160.228 77.537 163.13 77.579 165.226z" fill="#370f01" stroke-width="none" opacity="1" stroke="none"/>
        </g>
        <g id="svga-group-head" transform="matrix(1,0,0,1,0,0)">
          <g id="svga-group-ears-left-move" transform="matrix(1,0,0,1,0,0)" style="display: none;">
            <g id="svga-group-ears-left" transform="matrix(1,0,0,1,0,0)">
              <path id="SvgjsPath10784" d="M47.218 82.634c-0.967-2.31-8.082-5.576-11.21-5.06 -3.538 0.583-4.838 4.047-4.369 6.612 1.103 6.025 3.996 8.563 5.296 13.268 1.096 3.97 3.433 6.253 4.588 7.938 1.42 2.07 2.73 6.818 3.023 7.512 0.463 1.096 2.103 3.757 5.002 3.619 3.333-0.16 7.545-6.211 7.614-7.557C57.544 101.679 49.733 88.647 47.218 82.634z" fill="#f3d4cf" stroke="#c5796d" stroke-width="1.5" opacity="1"/>
              <path id="SvgjsPath10785" d="M47.953 107.204c0 0 0.429-0.995-0.094-1.879 -0.672-1.134-2.423-3.219-2.821-4.467 -0.325-1.021-0.16-3.2-0.213-4.266 -0.094-1.886-1.492-3.177-1.927-4.26 -2.914-7.238-6.792-11.723-9-12.656 -1.633 3.705-0.339 6.416 1.94 12.116 -1.375-7.748-0.054-10.17-0.054-10.17S39.803 84.842 41.786 92c0.359 1.292-1.111 3.988-0.83 5.299 0.352 1.646 4.184 4.83 5.257 6.163C47.049 104.5 47.953 107.204 47.953 107.204z" fill="#c5796d" stroke-width="none" opacity="1" stroke="none"/>
            </g>
          </g>
          <g id="svga-group-ears-right-move" transform="matrix(1,0,0,1,0,0)" style="display: none;">
            <g id="svga-group-ears-right" transform="matrix(1,0,0,1,0,0)">
              <path id="SvgjsPath10786" d="M152.52 82.634c0.967-2.31 8.082-5.576 11.211-5.06 3.539 0.583 4.838 4.047 4.369 6.612 -1.104 6.025-3.996 8.563-5.297 13.268 -1.096 3.97-3.434 6.253-4.588 7.938 -1.42 2.07-2.73 6.818-3.023 7.512 -0.463 1.096-2.104 3.757-5.002 3.619 -3.332-0.16-7.545-6.211-7.613-7.557C142.193 101.679 150.006 88.647 152.52 82.634z" fill="#f3d4cf" stroke="#c5796d" stroke-width="1.5" opacity="1"/>
              <path id="SvgjsPath10787" d="M151.785 107.204c0 0-0.43-0.995 0.094-1.879 0.672-1.134 2.424-3.219 2.82-4.467 0.324-1.021 0.16-3.2 0.215-4.266 0.094-1.886 1.49-3.177 1.926-4.26 2.914-7.238 6.793-11.723 9-12.656 1.633 3.705 0.338 6.416-1.939 12.116 1.375-7.748 0.053-10.17 0.053-10.17s-4.018 3.219-6.002 10.376c-0.357 1.292 1.111 3.988 0.83 5.299 -0.352 1.646-4.184 4.83-5.256 6.163C152.689 104.5 151.785 107.204 151.785 107.204z" fill="#c5796d" stroke-width="none" opacity="1" stroke="none"/>
            </g>
          </g>
          <g id="svga-group-faceshape-wrap" transform="matrix(1,0,0,1,0,0)">
            <g id="svga-group-faceshape-single">
              <path id="SvgjsPath10804" d="M158.785 76.762l-0.005 0c-0.012 0.053-10.717 44.373-18.919 56.95 -6.452 9.895-28.166 25.54-39.84 25.558 -11.671 0.02-33.437-15.559-39.918-25.433C51.861 121.285 41.017 77 41.005 76.946h-0.001c-1.298-4.911-1.994-10.066-2.002-15.382C38.949 28.09 66.155 0.919 99.773 0.867c33.621-0.052 60.913 27.033 60.964 60.507C160.746 66.69 160.068 71.846 158.785 76.762z" fill="#f3d4cf" stroke-width="none" opacity="1" stroke="none"/>
              <path id="SvgjsPath10805" d="M125.766 6.622c19.104 10.248 32.075 30.355 32.039 53.476 -0.009 5.316-0.704 10.471-2.003 15.382h-0.001c-0.012 0.053-10.856 44.339-19.099 56.891 -5.946 9.061-24.555 25.121-36.833 25.121 -12.279 0-30.886-16.061-36.833-25.121 -8.242-12.552-19.086-56.837-19.098-56.891h-0.001c-1.298-4.911-1.994-10.066-2.002-15.382C41.898 36.977 54.87 16.87 73.972 6.622 53.277 16.324 38.963 37.28 39.001 61.564c0.008 5.316 0.704 10.471 2.002 15.382h0.001c0.012 0.053 10.856 44.339 19.098 56.891 4.416 6.728 15.922 16.095 26.5 21.382 -0.529-0.226-1.062-0.466-1.599-0.717 5.408 2.875 10.664 4.763 14.713 4.768 0.049 0 0.103-0.005 0.152-0.005s0.103 0.005 0.152 0.005c4.049-0.005 9.305-1.893 14.714-4.768 -0.538 0.253-1.071 0.491-1.601 0.718 10.577-5.287 22.085-14.655 26.501-21.383 8.242-12.552 19.087-56.837 19.098-56.891h0.002c1.298-4.911 1.994-10.066 2.002-15.382C160.775 37.28 146.462 16.324 125.766 6.622z" fill="#ebc3bd" stroke-width="none" opacity="1" stroke="none"/>
              <path id="SvgjsPath10806" d="M158.785 76.762l-0.005 0c-0.012 0.053-10.717 44.373-18.919 56.95 -6.452 9.895-28.166 25.54-39.84 25.558 -11.671 0.02-33.437-15.559-39.918-25.433C51.861 121.285 41.017 77 41.005 76.946h-0.001c-1.298-4.911-1.994-10.066-2.002-15.382C38.949 28.09 66.155 0.919 99.773 0.867c33.621-0.052 60.913 27.033 60.964 60.507C160.746 66.69 160.068 71.846 158.785 76.762z" fill="none" stroke="#c5796d" stroke-width="1.5" opacity="1"/>
            </g>
          </g>
          <g id="svga-group-mouth-single-move" transform="matrix(1,0,0,1,0,0)">
            <g id="svga-group-mouth-single" transform="matrix(1,0,0,1,0,0)">
              <path id="SvgjsPath10816" d="M100.457 141.651c-3.24 0-3.697-2.678-3.697-2.678l7.125-0.188C103.884 138.785 103.307 141.651 100.457 141.651z" fill="url(#SvgjsLinearGradient10817)" opacity="1"/>
              <path id="SvgjsPath10820" d="M99.886 139.415c-1.668 0-2.938-0.171-3.027-0.184 -0.137-0.02-0.232-0.146-0.213-0.282 0.019-0.138 0.147-0.227 0.282-0.214 0.037 0.006 3.7 0.5 6.766-0.195 0.146-0.03 0.27 0.057 0.3 0.189 0.03 0.135-0.055 0.269-0.188 0.299C102.485 139.327 101.082 139.415 99.886 139.415zM100.071 134.142c-1.291 0-2.542-0.477-3.8-0.71 -1.408-0.262-2.812-0.038-4.221 0.096 -1.202 0.114-2.384 0.097-3.574-0.118 -0.566-0.103-1.409-0.165-1.893-0.491 -0.496-0.335-0.404-1.114 0.155-1.324 0.528-0.2 1.35 0.216 1.882 0.317 0.608 0.116 1.225 0.189 1.845 0.198 1.366 0.018 2.719-0.258 4.083-0.306 1.445-0.048 2.835 0.352 4.231 0.658 1.247 0.273 2.325 0.09 3.553-0.174 2.13-0.459 4.259-0.573 6.429-0.67 1.073-0.049 2.167-0.256 3.19-0.583 0.436-0.141 0.953-0.512 1.411-0.261 0.528 0.29 0.503 1.082-0.042 1.337 -1.781 0.837-3.78 0.972-5.715 1.061 -1.235 0.056-2.475 0.117-3.694 0.334C102.64 133.731 101.371 134.142 100.071 134.142z" fill="#c5796d" stroke-width="none" opacity="1"/>
            </g>
          </g>
          <g id="svga-group-eyes-left-move" transform="matrix(1,0,0,1,0,0)">
            <g id="svga-group-eyes-left" transform="matrix(1,0,0,1,0,0)">
              <g id="svga-group-eyesback-left">
                <path id="SvgjsPath10706" d="M80.854 79.416c2.436 1.371 4.469 3.053 6.65 5.942 0.047 0.184 0.088 0.364 0.1 0.534 0.218 3.267-1.324 6.223-3.851 8.345 -2.66 1.242-9.155 4.42-18.706-0.284 -1.653-1.546-2.925-3.497-3.748-5.672 0.075 0.106 0.168 0.208 0.236 0.317 -0.439-0.952-0.988-2.855-0.988-4.983C69.383 80.367 73.652 78.675 80.854 79.416z" fill="url(#SvgjsRadialGradient10707)" opacity="1"/>
              </g>
              <g id="svga-group-eyesiriswrapper-left" transform="matrix(1,0,0,1,0,0.5)">
                <g id="svga-group-eyesiriscontrol-left" transform="matrix(1,0,0,1,0,0)">
                  <g id="svga-group-eyesiris-left" transform="matrix(1,0,0,1,0,0)">
                    <path id="SvgjsPath10764" d="M83.199 89.25c-1.231 4.522-5.896 7.187-10.429 5.944 -4.528-1.241-7.203-5.918-5.97-10.442 1.23-4.526 5.905-7.19 10.434-5.947C81.761 80.045 84.433 84.723 83.199 89.25z" fill="#4d3623" stroke="#1f1105" stroke-width="0.75" opacity="1"/>
                    <path id="SvgjsPath10765" d="M81.682 85.121c-0.806 1.237-2.884 1.31-4.641 0.166 -1.756-1.145-2.527-3.075-1.722-4.311 0.806-1.235 2.884-1.31 4.641-0.166C81.715 81.956 82.485 83.887 81.682 85.121L81.682 85.121z" fill="url(#SvgjsLinearGradient10766)" opacity="0.5"/>
                  </g>
                </g>
              </g>
              <g id="svga-group-eyesfront-left">
                <path id="SvgjsPath10731" d="M56 88c0 13.808 8.06 24.999 18 24.999S92 101.808 92 88c0-13.809-8.06-25.001-18-25.001S56 74.191 56 88zM61.299 88.281c0.075 0.106 0.168 0.208 0.236 0.317 -0.439-0.952-0.988-2.855-0.988-4.983 8.836-3.248 13.105-4.939 20.307-4.199 2.436 1.371 4.469 3.053 6.65 5.942 0.047 0.184 0.088 0.364 0.1 0.534 0.218 3.267-1.324 6.223-3.851 8.345 -2.66 1.242-9.155 4.42-18.706-0.284C63.394 92.407 62.122 90.456 61.299 88.281z" fill="#f3d4cf" stroke-width="none" opacity="1" stroke="none"/>
                <path id="SvgjsPath10732" d="M59.401 85.081c0.024 8.284 7.916 14.961 17.639 14.918 9.72-0.048 17.583-6.796 17.559-15.08 -0.024-8.286-7.918-14.964-17.641-14.92C67.236 70.047 59.377 76.795 59.401 85.081zM61.299 88.281c0.075 0.106 0.168 0.208 0.236 0.317 -0.439-0.952-0.988-2.855-0.988-4.983 8.836-3.248 13.105-4.939 20.307-4.199 2.436 1.371 4.469 3.053 6.65 5.942 0.047 0.184 0.088 0.364 0.1 0.534 0.218 3.267-1.324 6.223-3.851 8.345 -2.66 1.242-9.155 4.42-18.706-0.284C63.394 92.407 62.122 90.456 61.299 88.281z" fill="url(#SvgjsRadialGradient10733)" opacity="1"/>
                <path id="SvgjsPath10737" d="M65.047 93.953c-1.653-1.546-2.925-3.497-3.748-5.672 0.075 0.106 0.168 0.208 0.236 0.317 -0.439-0.952-0.988-2.855-0.988-4.983 8.836-3.248 13.105-4.939 20.307-4.199 2.436 1.371 4.469 3.053 6.65 5.942 0.047 0.184 0.088 0.364 0.1 0.534 0.218 3.267-1.324 6.223-3.851 8.345C81.093 95.479 74.598 98.657 65.047 93.953z" fill="url(#SvgjsRadialGradient10738)" opacity="1"/>
                <path id="SvgjsPath10741" d="M66.338 77.989c3.414-1.34 14.297-4.254 19.581-1.339C78.348 74.293 70.782 76.817 66.338 77.989z" fill="#c5796d" stroke-width="none" opacity="1" stroke="none"/>
                <path id="SvgjsPath10742" d="M84.036 93.981c-2.524 1.13-9.385 4.81-19.647-0.458C69.603 98.517 79.131 98.235 84.036 93.981zM83.049 78.924c2.323 1.77 3.414 3.542 4.665 6.75 -2.263-3.004-4.346-4.705-6.86-6.092 -7.201-0.726-11.471 0.933-20.307 4.116 0 2.086 0.549 3.952 0.988 4.885 -1.601-2.492-5.104-4.364-10.209-6.147 2.632 0.313 6.078 0.089 7.684-0.439 -0.786-0.515-1.213-1.037-1.646-1.701 2.461 0.715 4.014 0.617 6.586-0.055 -1.376-0.106-2.349-0.687-3.622-1.701 0 0 4.934 0.549 6.586 0.549 2.305 0 4.83-1.976 15.313-1.701 1.563 0.041 6.146 1.152 6.146 1.152L83.049 78.924z" fill="#2e0914" stroke-width="none" opacity="1" stroke="none"/>
              </g>
            </g>
          </g>
          <g id="svga-group-eyes-right-move" transform="matrix(1,0,0,1,0,0)">
            <g id="svga-group-eyes-right" transform="matrix(1,0,0,1,0,0)">
              <g id="svga-group-eyesback-right">
                <path id="SvgjsPath10714" d="M119.146 79.416c-2.436 1.371-4.469 3.053-6.65 5.942 -0.047 0.184-0.088 0.364-0.1 0.534 -0.218 3.267 1.324 6.223 3.851 8.345 2.66 1.242 9.155 4.42 18.706-0.284 1.653-1.546 2.925-3.497 3.748-5.672 -0.075 0.106-0.168 0.208-0.236 0.317 0.439-0.952 0.988-2.855 0.988-4.983C130.617 80.367 126.348 78.675 119.146 79.416z" fill="url(#SvgjsRadialGradient10715)" opacity="1"/>
              </g>
              <g id="svga-group-eyesiriswrapper-right" transform="matrix(1,0,0,1,0,0.5)">
                <g id="svga-group-eyesiriscontrol-right" transform="matrix(1,0,0,1,0,0)">
                  <g id="svga-group-eyesiris-right" transform="matrix(1,0,0,1,0,0)">
                    <path id="SvgjsPath10769" d="M133.199 89.25c-1.231 4.522-5.896 7.187-10.429 5.944 -4.528-1.241-7.203-5.918-5.97-10.442 1.23-4.526 5.905-7.19 10.434-5.947C131.761 80.045 134.433 84.723 133.199 89.25z" fill="#4d3623" stroke="#1f1105" stroke-width="0.75" opacity="1"/>
                    <path id="SvgjsPath10770" d="M131.682 85.121c-0.806 1.237-2.884 1.31-4.641 0.166 -1.756-1.145-2.527-3.075-1.722-4.311 0.806-1.235 2.884-1.31 4.641-0.166C131.715 81.956 132.485 83.887 131.682 85.121L131.682 85.121z" fill="url(#SvgjsLinearGradient10771)" opacity="0.5"/>
                  </g>
                </g>
              </g>
              <g id="svga-group-eyesfront-right">
                <path id="SvgjsPath10752" d="M126 62.999c-9.94 0-18 11.193-18 25.001 0 13.808 8.06 24.999 18 24.999S144 101.808 144 88C144 74.191 135.94 62.999 126 62.999zM134.953 93.953c-9.551 4.704-16.046 1.526-18.706 0.284 -2.526-2.122-4.068-5.078-3.851-8.345 0.012-0.17 0.053-0.351 0.1-0.534 2.182-2.889 4.215-4.572 6.65-5.942 7.201-0.74 11.471 0.952 20.307 4.199 0 2.128-0.549 4.031-0.988 4.983 0.068-0.109 0.161-0.211 0.236-0.317C137.878 90.456 136.606 92.407 134.953 93.953z" fill="#f3d4cf" stroke-width="none" opacity="1" stroke="none"/>
                <path id="SvgjsPath10753" d="M123.042 69.999c-9.723-0.044-17.616 6.635-17.641 14.92 -0.024 8.284 7.839 15.032 17.559 15.08 9.723 0.042 17.614-6.635 17.639-14.918C140.623 76.795 132.764 70.047 123.042 69.999zM134.953 93.953c-9.551 4.704-16.046 1.526-18.706 0.284 -2.526-2.122-4.068-5.078-3.851-8.345 0.012-0.17 0.053-0.351 0.1-0.534 2.182-2.889 4.215-4.572 6.65-5.942 7.201-0.74 11.471 0.952 20.307 4.199 0 2.128-0.549 4.031-0.988 4.983 0.068-0.109 0.161-0.211 0.236-0.317C137.878 90.456 136.606 92.407 134.953 93.953z" fill="url(#SvgjsRadialGradient10754)" opacity="1"/>
                <path id="SvgjsPath10758" d="M134.953 93.953c1.653-1.546 2.925-3.497 3.748-5.672 -0.075 0.106-0.168 0.208-0.236 0.317 0.439-0.952 0.988-2.855 0.988-4.983 -8.836-3.248-13.105-4.939-20.307-4.199 -2.436 1.371-4.469 3.053-6.65 5.942 -0.047 0.184-0.088 0.364-0.1 0.534 -0.218 3.267 1.324 6.223 3.851 8.345C118.907 95.479 125.402 98.657 134.953 93.953z" fill="url(#SvgjsRadialGradient10759)" opacity="1"/>
                <path id="SvgjsPath10762" d="M114.081 76.65c5.284-2.915 16.167-0.001 19.581 1.339C129.218 76.817 121.652 74.293 114.081 76.65z" fill="#c5796d" stroke-width="none" opacity="1" stroke="none"/>
                <path id="SvgjsPath10763" d="M135.611 93.522c-10.263 5.269-17.123 1.588-19.647 0.458C120.869 98.235 130.397 98.517 135.611 93.522zM111.628 78.54c0 0 4.584-1.111 6.146-1.152 10.482-0.274 13.008 1.701 15.313 1.701 1.652 0 6.586-0.549 6.586-0.549 -1.273 1.015-2.246 1.595-3.622 1.701 2.572 0.672 4.125 0.77 6.586 0.055 -0.434 0.665-0.86 1.186-1.646 1.701 1.605 0.528 5.052 0.751 7.684 0.439 -5.105 1.783-8.608 3.655-10.209 6.147 0.439-0.933 0.988-2.799 0.988-4.885 -8.836-3.183-13.105-4.842-20.307-4.116 -2.515 1.387-4.598 3.088-6.86 6.092 1.251-3.208 2.342-4.98 4.665-6.75L111.628 78.54z" fill="#2e0914" stroke-width="none" opacity="1" stroke="none"/>
              </g>
            </g>
          </g>
          <g id="svga-group-facehighlight-single">
            <path id="SvgjsPath10522" d="M140.204 113.007c0.035 22.275-17.995 40.365-40.273 40.396 -22.274 0.036-40.361-17.993-40.396-40.272C59.501 90.857 77.53 72.77 99.808 72.735 122.083 72.701 140.171 90.73 140.204 113.007z" fill="url(#SvgjsRadialGradient10523)" opacity="1"/>
            <path id="SvgjsPath10526" d="M135,55.999c0,19.329-15.671,35-35,35c-19.329,0-35-15.671-35-35s15.671-35,35-35C119.329,20.999,135,36.67,135,55.999z" fill="url(#SvgjsRadialGradient10527)" opacity="1"/>
          </g>
          <g id="svga-group-eyebrows-left-move" transform="matrix(1,0,0,1,0,0)">
            <g id="svga-group-eyebrows-left-rotate" transform="matrix(1,0,0,1,0,0)">
              <g id="svga-group-eyebrows-left" transform="matrix(1,0,0,1,0,0)">
                <path id="SvgjsPath10774" d="M90.857 72.446c-12.948-4.229-18.875-4.225-33.252-2.519 -0.434 0.051-2.459 0.548-2.637 0.221 11.896-2.694 21.942-3.566 33.164 0.925C88.531 71.233 90.911 72.118 90.857 72.446z" fill="#cac1b2" stroke-width="none" opacity="1" stroke="none"/>
              </g>
            </g>
          </g>
          <g id="svga-group-eyebrows-right-move" transform="matrix(1,0,0,1,0,0)">
            <g id="svga-group-eyebrows-right-rotate" transform="matrix(1,0,0,1,0,0)">
              <g id="svga-group-eyebrows-right" transform="matrix(1,0,0,1,0,0)">
                <path id="SvgjsPath10775" d="M108.978 72.414c9.882-6.264 21.947-6.458 33.14-3.238 0.444 0.128 2.899 0.624 2.915 1.026C120.586 64.812 108.978 72.414 108.978 72.414z" fill="#cac1b2" stroke-width="none" opacity="1" stroke="none"/>
              </g>
            </g>
          </g>
          <g id="svga-group-nose-single-move" transform="matrix(1,0,0,1,0,0)">
            <g id="svga-group-nose-single" transform="matrix(1,0,0,1,0,0)">
              <path id="SvgjsPath10781" d="M108.922 115.926c0.172-0.464 0.276-0.95 0.358-1.437 0.03-0.18-0.207-0.842-0.228-0.632 -0.092 0.854-0.554 2.051-1.445 2.313 -1.022 0.299-1.61-0.05-1.703-1.063 -0.094-1.02 0.269-2.375-0.099-3.323 -0.238-0.613-0.773-1.111-1.321-1.456 0.413 1.849 0.743 4.265-1.02 5.589 0.151 0.18 0.289 0.266 0.422 0.302 -0.139 0.023-0.278 0.053-0.422 0.118 -0.697 0.317-3.238 0.92-3.978 0.596 -0.175-0.077-0.561-0.139-1.047-0.186 -0.326-0.286-0.924-1.031-1.203-1.204 -1.098-0.682-1.671-1.876-1.739-3.148 -0.147-2.679 1.239-5.664 4.39-6.829 -3.231-0.91-4.574 4.413-6.69 5.6 -1.267 0.711-2.476 1.342-2.453 2.929 0.007 0.525 0.07 1.286 0.307 1.925 -0.38-0.536-0.631-1.021-0.667-0.594 -0.309 3.608 4.084 2.615 5.457 2.864 1.134 0.205 3.081 0.493 4.027 0.51 1.027 0.018 2.582-0.342 3.596-0.51 0.982-0.165 2.696 0.033 3.957-0.535 0.744-0.336 1.812-0.556 1.812-2.005l-0.363 0.296C108.887 116.005 108.907 115.967 108.922 115.926z" fill="#e4b3ab" stroke-width="none" opacity="1" stroke="none"/>
              <path id="SvgjsPath10782" d="M90.631 113.653c0.136-0.436 0.335-0.872 0.66-1.201 -0.57 0.992-0.649 2.412-0.137 3.444 0.629 1.269 1.752 1 2.828 0.511s1.976-0.851 3.094-0.478c0.87 0.29 1.569 0.722 2.526 0.72 1.023-0.002 1.786-0.428 2.736-0.724 1.155-0.345 2.129-0.147 3.214 0.342 1.021 0.461 2.191 1.044 2.981-0.106 0.698-1.04 0.623-2.648 0.015-3.709 1.364 1.398 1.034 5.385-1.576 4.882 -0.358-0.073-0.991-0.512-1.311-0.425 -0.577 0.157-1.305 0.006-1.889-0.05 -1.061-0.103-1.982-0.099-2.991 0.158 -0.387 0.09-0.784 0.143-1.182 0.139 -0.474-0.005-0.954-0.241-1.404-0.214 -1.265 0.077-2.516-0.194-3.785-0.112 -1.081 0.069-1.945 1.023-3.018 0.159C90.445 116.193 90.3 114.78 90.631 113.653 90.7 113.431 90.5 114.099 90.631 113.653zM101.079 105.797c0.503 0.105 0.96 0.334 1.384 0.62 -1.257-2.003-4.454-1.277-5.726 0.313C98.038 106.036 99.59 105.465 101.079 105.797 101.32 105.848 100.598 105.689 101.079 105.797z" fill="#c5796d" stroke-width="none" opacity="1" stroke="none"/>
              <path id="SvgjsPath10783" d="M91.934 113.093c-1.776 0.928 1.459 5.222 0.898 1.789C92.598 113.45 93.403 112.469 91.934 113.093 91.338 113.348 92.263 112.921 91.934 113.093z" fill="#fff4f3" stroke-width="none" opacity="1" stroke="none"/>
            </g>
          </g>
          <g id="svga-group-hair-front" transform="matrix(1,0,0,1,0,0)">
            <path id="SvgjsPath10684" d="M47.869 62.985c3.513-27.218 48.858-44.766 54.189-42.089 3.002-1.44 59.328 41.036 59.561 62.839 0 0-22.007 19.356-22.043 12.485 -0.167-6.713-13.667-24.08-19.264-31.097 -5.428-6.805-11.027-15.225-14.647-23.392 -4.578 8.854-19.762 23.128-25.737 27.531C67.71 78.266 61 97.833 57.482 108.704c-0.619 1.911-4.764 11.061-5.409 13.031C47.527 110.639 44.016 90.357 47.869 62.985z" fill="#cac1b2" stroke-width="none" opacity="0.1" stroke="none"/>
            <path id="SvgjsPath10685" d="M168.612 36.164c-11.808-25.213-46.156-48.481-67.878-36.371C56.411-23.993-12.496 66.971 47.647 132.54c0.04 0.039 0.068 0.08 0.106 0.117 6.074 6.596 13.227 12.621 20.452 17.504 -7.228-9.984-13.803-23.407-15.666-35.879 5.939-18.021 9.266-33.725 25.459-47.317 11.026-9.255 24.281-19.122 26.669-31.375 8.063 19.831 29.816 38.467 34.742 52.624 0.175 14.627-3.735 28.098-4.854 32.623 0.078-0.156 0.164-0.309 0.252-0.461 2.984-5.375 5.861-10.77 7.771-16.451 0.83 17.059-5.808 30.435-9.904 39.925 -0.024 0.074-0.057 0.152-0.096 0.229 0.096-0.055 0.184-0.117 0.277-0.174 10.322-6.818 20.082-19.361 26.105-31.27 -0.029 6.242-0.487 14.134-0.654 16.42 12.835-17.958 14.087-34.884 15.084-37.911 1.148 5.97 3.297 11.975 4.45 14.41C177.24 88.977 179.117 61.413 168.612 36.164z" fill="#cac1b2" stroke-width="none" opacity="1" stroke="none"/>
            <path id="SvgjsPath10686" d="M51.208 109.438c0-6.093 5.659-15.235 9.328-19.373 -2.775 5.59-9.544 23.984-12.005 36.941 -10.121-26.649-12.492-60.43 1.831-85.612 -7.582 20.698-12.034 42.867-4.909 64.212 -0.282-10.386-3.378-28.761 11.511-52.691C52.404 70.117 49.348 88.952 51.208 109.438zM132.976 143.647c7.391-16.72 11.956-30.775 10.782-43.793 -2.152-25.444-27.056-37.068-38.985-64.839 0.318-1.777 0.471-3.621 0.444-5.539 9.521 17.034 19.978 32.215 32.325 47.389 8.24 11.171 9.617 24.143 9.675 37.368 8.372-21.988 6.938-47.563-1.999-68.982 10.55 22.035 11.512 45.986 7.673 69.938 9.591-21.079 15.347-44.071 9.591-67.063 7.674 15.328 6.716 32.574 4.798 49.817 4.887-15.444 4.245-31.577 4.527-47.23 4.599 17.244 5.055 34.973 5.669 53.032 -1.95-5.682-2.966-10.747-3.828-15.828 -0.933 7.967-8.212 29.021-13.68 36.627 0.328-4.131 1.277-12.111 0.624-15.301 7.063-15.559 9.48-33.147 4.829-48.237 5.855 21.703-3.052 49.26-18.405 68.239C140.26 137.597 132.976 143.647 132.976 143.647zM31.064 89.32c-6.8-45.275 9.097-58.79 13.522-70.31 -29.467 43.476-22.078 83.66 4.453 113.845 -4.957-12.771-8.754-27.238-9.195-40.821 -2.356-23.177 2.663-43.048 16.813-60.129C36.466 39.67 32.89 69.26 31.064 89.32zM61.507 71.393c0.009-0.046 0.054-0.11 0.073-0.151 6.306-13.188 36.734-34.118 34.307-50.216C95.953 36.276 64.273 57.929 61.507 71.393zM144.898 70.541c-6.164-26.016-21.354-29.824-28.256-47.629C121.069 39.346 141.615 56.636 144.898 70.541zM156.993 57.518c-0.429-1-2.813-44.361-41.932-52.052C147.991 14.834 155.178 53.282 156.993 57.518zM54.609 48.921c2.004-8.177 19.884-29.726 44.862-36.666C66.938 18.025 56.496 41.245 54.609 48.921z" fill="#bbab92" stroke-width="none" opacity="1" stroke="none"/>
            <path id="SvgjsPath10687" d="M139.866 89.507c1.416 4.177 2.241 8.354 2.585 12.531 -1.793 5.488-4.423 10.873-7.097 16.119C138.077 106.88 139.948 98.58 139.866 89.507zM66.029 147.937c-6.774-9.178-12.443-20.299-14.15-31.596 -1.161 3.689-2.178 7.482-3.069 11.373 -0.164 1-7.26-16.94-9.166-35.68 0.441 13.583 3.739 27.053 8.696 39.825C53.527 137.663 59.466 143.026 66.029 147.937z" fill="#ab9775" stroke-width="none" opacity="1" stroke="none"/>
            <path id="SvgjsPath10688" d="M99.492 21.262c6.403 27.793-34.873 40.474-47.226 76.474C58.369 65.985 105.136 46.985 99.492 21.262zM61.565 55.39c7.799-16.374 20.656-28.475 35.459-38.564C80.005 25.778 68.787 37.707 61.565 55.39zM44.976 31.335C57.328 16.982 73.192 2.764 93.413 6.039 71.708-0.369 56.906 15.907 44.976 31.335zM144.42 40.044c-7.511-14.379-11.145-24.352-28.859-28.113C128.931 15.938 138.894 27.608 144.42 40.044zM160.831 41.313c-8.623-20.082-15.026-37.805-40.267-40.29C140.522 4.832 153.31 23.794 160.831 41.313zM148.999 87.979c-6.548-25.538-31.097-43.208-37.737-69.219C117.109 44.848 140.279 62.557 148.999 87.979z" fill="#d9d8d5" stroke-width="none" opacity="1" stroke="none"/>
            <path id="SvgjsPath10689" d="M68.099 150.319c-0.357-0.24-0.713-0.482-1.071-0.742 -7.286-5.061-13.82-10.709-19.416-16.789l-0.105-0.117c-18.576-20.25-26.419-44.969-22.688-71.48C28.485 32.793 56.267-4.408 85.672-4.408c5.168 0 10.234 1.339 15.061 3.98 3.049-1.681 6.354-2.657 9.824-2.902 0.989-0.11 2.008-0.165 3.02-0.165 22.907 0 46.485 20.957 55.21 39.577 10.676 25.664 8.609 53.598 9.244 69.465 -1.773 0.431-4.38-14.611-4.7-13.611 -2.573 15.701-7.636 27.015-15.258 37.785 0.342-5.056 0.642-11.302 0.69-16.279 -5.813 11.226-16.08 24.686-26.651 31.145 0.644-1.295 5.088-11.688 6.555-15.709 2.759-8.625 3.989-16.467 3.762-23.93 -1.189 3.328-7.057 16.209-8.058 15.842 1.29-5.103 5.015-18.297 4.849-32.574 -2.741-7.384-12.181-19.162-16.715-24.847 -6.644-8.33-13.507-16.938-17.777-27.128 -2.516 11.593-15.759 20.462-25.535 29.844l-1.06 1.019C62.619 79.735 58.88 95.656 52.723 114.343c1.617 10.686 6.855 22.955 14.758 34.453l0.317 0.453c0.187 0.271 0.373 0.535 0.563 0.799L68.099 150.319zM85.601-3.042c-27.724 0-51.227 30.485-57.536 57.25 -8.282 38.193 6.515 69.453 37.047 92.8 -5.138-7.166-11.279-17.813-13.293-29.828 -1.255 4.081-2.127 7.559-2.953 11.145 -0.874-1.174-11.19-25.575-9.863-52.053 1.522-30.324 18.792-47.229 19.792-46.254C34.57 56.681 38.052 98.385 48.472 126.302c8.589-43.809 21.73-53.742 30.996-62.736 9.346-9.079 22.174-17.653 24.512-29.297 0.84-3.792 0.87-8.88-0.459-14.422 1-0.263 2.621 8.516 1.45 15.145 4.28 9.938 11.15 18.077 17.798 25.946 11.641 13.784 20.032 24.737 21.18 38.901 1.676 18.497-6.649 34.395-10.519 43.248 9.021-7.685 19.341-20.076 25.357-33.021 12.789-27.033 6.814-49.114 6.814-49.114 4.394 14.256 2.641 31.864-4.81 48.315 0.605 3.115-0.233 10.563-0.574 14.588 4.892-7.168 12.303-27.878 13.241-35.958 0.15-0.004 3.665 14.189 3.777 14.535 -0.797-25.368-1.724-48.296-12.615-70.531 -7.655-16.931-31.764-34.917-52.126-34.917 -5.002 0-10.735 1.879-15.997 6.018l-0.243-0.296c1.055-0.911 2.188-1.744 3.368-2.48C95.049-1.944 90.333-3.042 85.601-3.042zM136.789 112.726c-0.259 1.234-0.548 2.518-0.87 3.895 2.262-4.479 4.684-9.54 6.353-14.64 -0.331-3.818-1.073-7.623-2.217-11.269C139.975 98.485 138.447 105.874 136.789 112.726z" fill="#9c845b" stroke-width="none" opacity="1" stroke="none"/>
          </g>
          <g id="svga-group-glasses-single-move" transform="matrix(1,0,0,1,0,0)">
            <g id="svga-group-glasses-single" transform="matrix(1,0,0,1,0,0)">
              <path id="SvgjsPath10654" d="M100,18.13L100,18.13L100,18.13L100,18.13z" fill="#f3d4cf" stroke-width="none" opacity="1" stroke="none"/>
            </g>
          </g>
        </g>
      </g>
    </g>
    <rect id="SvgjsRect10507" width="200" height="15" x="0" y="185" fill="#ecf0f1" opacity="0.5" style="display: none;"/>
    <text id="SvgjsText10508" font-family="Roboto, Helvetica, Arial, sans-serif" font-size="10px" text-anchor="start" font-weight="400" anchor="start" fill="#333333" x="58.03125" y="182.4140625" style="display: none;">
      <tspan id="SvgjsTspan10509" dy="13" x="58.03125">Created on face.co</tspan>
    </text>
  </g>
</svg>
