<?xml version="1.0"?>
<svg xmlns="http://www.w3.org/2000/svg" version="1.1" width="600px" height="600px" viewBox="0 0 200 200" style="overflow:hidden!important;">
  <defs id="SvgjsDefs6643">
    <radialGradient id="SvgjsRadialGradient6704" cx="100" cy="113" r="40" gradientUnits="userSpaceOnUse" class="svga-on-canvas-facehighlight-gradient-single-0">
      <stop id="SvgjsStop6705" stop-opacity="0.5" stop-color="#e9bfa9" offset="0"/>
      <stop id="SvgjsStop6706" stop-opacity="0" stop-color="#daa488" offset="0.9"/>
    </radialGradient>
    <radialGradient id="SvgjsRadialGradient6708" cx="100" cy="57" r="36" gradientUnits="userSpaceOnUse" class="svga-on-canvas-facehighlight-gradient-single-1">
      <stop id="SvgjsStop6709" stop-opacity="0.5" stop-color="#e9bfa9" offset="0"/>
      <stop id="SvgjsStop6710" stop-opacity="0" stop-color="#daa488" offset="0.9"/>
    </radialGradient>
    <radialGradient id="SvgjsRadialGradient6789" cx="-558.588" cy="-490.918" r="84.646" gradientTransform="matrix(0.096 -0.0248 0.0245 0.0961 140.5478 120.3577)" gradientUnits="userSpaceOnUse" class="svga-on-canvas-eyesiris-gradient-left-1">
      <stop id="SvgjsStop6790" stop-opacity="0.8" stop-color="#ffffff" offset="0"/>
      <stop id="SvgjsStop6791" stop-opacity="0" stop-color="#ffffff" offset="1"/>
    </radialGradient>
    <radialGradient id="SvgjsRadialGradient6793" cx="-565.337" cy="-492.691" r="84.644" gradientTransform="matrix(0.0991 8.856325e-004 -0.0011 0.0991 130.3774 136.3533)" gradientUnits="userSpaceOnUse" class="svga-on-canvas-eyesiris-gradient-left-2">
      <stop id="SvgjsStop6794" stop-opacity="0.8" stop-color="#ffffff" offset="0"/>
      <stop id="SvgjsStop6795" stop-opacity="0" stop-color="#ffffff" offset="1"/>
    </radialGradient>
    <linearGradient id="SvgjsLinearGradient6799" x1="122.283" y1="93.047" x2="123.61" y2="91.466" gradientTransform="matrix(1 0 0 1 -52 0)" gradientUnits="userSpaceOnUse" class="svga-on-canvas-eyesiris-gradient-left-5">
      <stop id="SvgjsStop6800" stop-opacity="1" stop-color="#ffffff" offset="0"/>
      <stop id="SvgjsStop6801" stop-opacity="0" stop-color="#ffffff" offset="1"/>
    </linearGradient>
    <linearGradient id="SvgjsLinearGradient6803" x1="127" y1="85" x2="125" y2="87" gradientTransform="matrix(1 0 0 1 -50 0)" gradientUnits="userSpaceOnUse" class="svga-on-canvas-eyesiris-gradient-left-6">
      <stop id="SvgjsStop6804" stop-opacity="1" stop-color="#ffffff" offset="0"/>
      <stop id="SvgjsStop6805" stop-opacity="0" stop-color="#ffffff" offset="1"/>
    </linearGradient>
    <linearGradient id="SvgjsLinearGradient6807" x1="130" y1="81" x2="126" y2="85" gradientTransform="matrix(1 0 0 1 -50 0)" gradientUnits="userSpaceOnUse" class="svga-on-canvas-eyesiris-gradient-left-7">
      <stop id="SvgjsStop6808" stop-opacity="1" stop-color="#ffffff" offset="0"/>
      <stop id="SvgjsStop6809" stop-opacity="0" stop-color="#ffffff" offset="1"/>
    </linearGradient>
    <radialGradient id="SvgjsRadialGradient6812" cx="-578.76" cy="-490.73" r="84.646" gradientTransform="matrix(0.096 -0.0248 0.0245 0.0961 192.4794 119.8404)" gradientUnits="userSpaceOnUse" class="svga-on-canvas-eyesiris-gradient-right-1">
      <stop id="SvgjsStop6813" stop-opacity="0.8" stop-color="#ffffff" offset="0"/>
      <stop id="SvgjsStop6814" stop-opacity="0" stop-color="#ffffff" offset="1"/>
    </radialGradient>
    <radialGradient id="SvgjsRadialGradient6816" cx="-584.778" cy="-487.329" r="84.644" gradientTransform="matrix(0.0991 8.856325e-004 -0.0011 0.0991 182.3104 135.839)" gradientUnits="userSpaceOnUse" class="svga-on-canvas-eyesiris-gradient-right-2">
      <stop id="SvgjsStop6817" stop-opacity="0.8" stop-color="#ffffff" offset="0"/>
      <stop id="SvgjsStop6818" stop-opacity="0" stop-color="#ffffff" offset="1"/>
    </radialGradient>
    <linearGradient id="SvgjsLinearGradient6822" x1="120.284" y1="93.047" x2="121.611" y2="91.467" gradientUnits="userSpaceOnUse" class="svga-on-canvas-eyesiris-gradient-right-5">
      <stop id="SvgjsStop6823" stop-opacity="1" stop-color="#ffffff" offset="0"/>
      <stop id="SvgjsStop6824" stop-opacity="0" stop-color="#ffffff" offset="1"/>
    </linearGradient>
    <linearGradient id="SvgjsLinearGradient6826" x1="127" y1="85" x2="125" y2="87" gradientUnits="userSpaceOnUse" class="svga-on-canvas-eyesiris-gradient-right-6">
      <stop id="SvgjsStop6827" stop-opacity="1" stop-color="#ffffff" offset="0"/>
      <stop id="SvgjsStop6828" stop-opacity="0" stop-color="#ffffff" offset="1"/>
    </linearGradient>
    <linearGradient id="SvgjsLinearGradient6830" x1="130" y1="81" x2="126" y2="85" gradientUnits="userSpaceOnUse" class="svga-on-canvas-eyesiris-gradient-right-7">
      <stop id="SvgjsStop6831" stop-opacity="1" stop-color="#ffffff" offset="0"/>
      <stop id="SvgjsStop6832" stop-opacity="0" stop-color="#ffffff" offset="1"/>
    </linearGradient>
    <radialGradient id="SvgjsRadialGradient6879" cx="127" cy="87.834" r="14" gradientTransform="matrix(-1 0 0 1 200 0)" gradientUnits="userSpaceOnUse" class="svga-on-canvas-eyesback-gradient-left-0">
      <stop id="SvgjsStop6880" stop-opacity="1" stop-color="#ffffff" offset="0"/>
      <stop id="SvgjsStop6881" stop-opacity="1" stop-color="#fdfefe" offset="0.544"/>
      <stop id="SvgjsStop6882" stop-opacity="1" stop-color="#f6f8f9" offset="0.74"/>
      <stop id="SvgjsStop6883" stop-opacity="1" stop-color="#eaeff2" offset="0.879"/>
      <stop id="SvgjsStop6884" stop-opacity="1" stop-color="#d9e3e8" offset="0.992"/>
      <stop id="SvgjsStop6885" stop-opacity="1" stop-color="#d8e2e7" offset="1"/>
    </radialGradient>
    <radialGradient id="SvgjsRadialGradient6887" cx="127" cy="87.834" r="14" gradientUnits="userSpaceOnUse" class="svga-on-canvas-eyesback-gradient-right-0">
      <stop id="SvgjsStop6888" stop-opacity="1" stop-color="#ffffff" offset="0"/>
      <stop id="SvgjsStop6889" stop-opacity="1" stop-color="#fdfefe" offset="0.544"/>
      <stop id="SvgjsStop6890" stop-opacity="1" stop-color="#f6f8f9" offset="0.74"/>
      <stop id="SvgjsStop6891" stop-opacity="1" stop-color="#eaeff2" offset="0.879"/>
      <stop id="SvgjsStop6892" stop-opacity="1" stop-color="#d9e3e8" offset="0.992"/>
      <stop id="SvgjsStop6893" stop-opacity="1" stop-color="#d8e2e7" offset="1"/>
    </radialGradient>
    <radialGradient id="SvgjsRadialGradient6895" cx="127" cy="87.834" r="14" gradientTransform="matrix(-1 0 0 1 200 0)" gradientUnits="userSpaceOnUse" class="svga-on-canvas-eyesfront-gradient-left-0">
      <stop id="SvgjsStop6896" stop-opacity="1" stop-color="#ffffff" offset="0"/>
      <stop id="SvgjsStop6897" stop-opacity="1" stop-color="#fdfefe" offset="0.544"/>
      <stop id="SvgjsStop6898" stop-opacity="1" stop-color="#f6f8f9" offset="0.74"/>
      <stop id="SvgjsStop6899" stop-opacity="1" stop-color="#eaeff2" offset="0.879"/>
      <stop id="SvgjsStop6900" stop-opacity="1" stop-color="#d9e3e8" offset="0.992"/>
      <stop id="SvgjsStop6901" stop-opacity="1" stop-color="#d8e2e7" offset="1"/>
    </radialGradient>
    <radialGradient id="SvgjsRadialGradient6905" cx="125.16" cy="86.942" fx="138.734" fy="85.449" r="18.705" gradientTransform="matrix(0.9998 0.0208 0.0131 -0.6281 -51.4298 138.9481)" gradientUnits="userSpaceOnUse" class="svga-on-canvas-eyesfront-gradient-left-3">
      <stop id="SvgjsStop6906" stop-opacity="1" stop-color="#cb8b6a" offset="0"/>
      <stop id="SvgjsStop6907" stop-opacity="0.3" stop-color="#cb8b6a" offset="0.7"/>
      <stop id="SvgjsStop6908" stop-opacity="0" stop-color="#daa488" offset="1"/>
    </radialGradient>
    <radialGradient id="SvgjsRadialGradient6910" cx="67.721" cy="109.165" r="29.505" gradientTransform="matrix(1.0322 -0.0541 0.0541 1.0322 -5.8613 6.0176)" gradientUnits="userSpaceOnUse" class="svga-on-canvas-eyesfront-gradient-left-4">
      <stop id="SvgjsStop6911" stop-opacity="0" stop-color="#000000" offset="0.95"/>
      <stop id="SvgjsStop6912" stop-opacity="0.3" stop-color="#000000" offset="1"/>
    </radialGradient>
    <radialGradient id="SvgjsRadialGradient6916" cx="127" cy="87.834" r="14" gradientUnits="userSpaceOnUse" class="svga-on-canvas-eyesfront-gradient-right-0">
      <stop id="SvgjsStop6917" stop-opacity="1" stop-color="#ffffff" offset="0"/>
      <stop id="SvgjsStop6918" stop-opacity="1" stop-color="#fdfefe" offset="0.544"/>
      <stop id="SvgjsStop6919" stop-opacity="1" stop-color="#f6f8f9" offset="0.74"/>
      <stop id="SvgjsStop6920" stop-opacity="1" stop-color="#eaeff2" offset="0.879"/>
      <stop id="SvgjsStop6921" stop-opacity="1" stop-color="#d9e3e8" offset="0.992"/>
      <stop id="SvgjsStop6922" stop-opacity="1" stop-color="#d8e2e7" offset="1"/>
    </radialGradient>
    <radialGradient id="SvgjsRadialGradient6926" cx="125.16" cy="86.942" fx="138.734" fy="85.449" r="18.705" gradientTransform="matrix(-0.9998 0.0208 -0.0131 -0.6281 251.4298 138.9481)" gradientUnits="userSpaceOnUse" class="svga-on-canvas-eyesfront-gradient-right-3">
      <stop id="SvgjsStop6927" stop-opacity="1" stop-color="#cb8b6a" offset="0"/>
      <stop id="SvgjsStop6928" stop-opacity="0.3" stop-color="#cb8b6a" offset="0.7"/>
      <stop id="SvgjsStop6929" stop-opacity="0" stop-color="#daa488" offset="1"/>
    </radialGradient>
    <radialGradient id="SvgjsRadialGradient6931" cx="67.721" cy="109.165" r="29.506" gradientTransform="matrix(-1.0322 -0.0541 -0.0541 1.0322 205.8613 6.0176)" gradientUnits="userSpaceOnUse" class="svga-on-canvas-eyesfront-gradient-right-4">
      <stop id="SvgjsStop6932" stop-opacity="0" stop-color="#000000" offset="0.95"/>
      <stop id="SvgjsStop6933" stop-opacity="0.3" stop-color="#000000" offset="1"/>
    </radialGradient>
    <linearGradient id="SvgjsLinearGradient6952" x1="100" y1="141" x2="100" y2="138" gradientUnits="userSpaceOnUse" class="svga-on-canvas-mouth-gradient-single-0">
      <stop id="SvgjsStop6953" stop-opacity="1" stop-color="#d29779" offset="0.1"/>
      <stop id="SvgjsStop6954" stop-opacity="1" stop-color="#cb8b6a" offset="1"/>
    </linearGradient>
    <linearGradient id="SvgjsLinearGradient6982" x1="99.98" y1="171.27" x2="99.98" y2="136.351" gradientUnits="userSpaceOnUse" class="svga-on-canvas-chinshadow-gradient-single-0">
      <stop id="SvgjsStop6983" stop-opacity="0.8" stop-color="#cb8b6a" offset="0"/>
      <stop id="SvgjsStop6984" stop-opacity="1" stop-color="#ac5f38" offset="0.7"/>
    </linearGradient>
  </defs>
  <g id="svga-group-wrapper">
    <g id="svga-group-backs-single">
      <path id="SvgjsPath6987" d="M225 225H-25V-25h250V225z" fill="#f9f2e7" stroke-width="none" opacity="1"/>
    </g>
    <g id="svga-group-humanwrap-move" transform="matrix(1,0,0,1,0,0)">
      <g id="svga-group-humanwrap" transform="matrix(1,0,0,1,0,0)">
        <g id="svga-group-hair-back-move" transform="matrix(1,0,0,1,0,0)">
          <g id="svga-group-hair-back" transform="matrix(1,0,0,1,0,0)">
            <path id="SvgjsPath6870" d="M160.527 108.896c-0.826 32.13-25.267 102.589-58.469 102.589 -33.201 0-60.969-69.5-61.767-102.589 -1.15-47.67 26.917-86.339 60.118-86.339C133.611 22.558 161.753 61.229 160.527 108.896z" fill="#4c2d1e" stroke-width="none" opacity="1" stroke="none"/>
          </g>
        </g>
        <g id="svga-group-humanbody-single">
          <path id="SvgjsPath6711" d="M190.858 199.866c-6.008-10.158-13.474-11.973-19.628-13.936 -6.323-2.016-19.346-3.178-26.449-4.6 -6.86-1.373-23.153-5.789-23.339-13.488 -0.192-8.066 4.291-40.09 4.291-40.09H74.005c0 0 4.487 32.023 4.294 40.09 -0.184 7.699-16.48 12.115-23.341 13.488 -7.104 1.422-20.125 2.584-26.448 4.6 -6.156 1.963-13.624 3.777-19.632 13.936 -3.644 6.16-6.008 16.133-6.008 27.133h194C196.869 215.999 194.509 206.026 190.858 199.866z" fill="#daa488" stroke-width="none" opacity="1" stroke="none"/>
          <path id="SvgjsPath6712" d="M121.442 167.843c2.495 10.929 18.165 13.698 26.293 15.325 21.909 4.379 33.772 5.134 42.297 19.539 2.903 4.916 5.459 15.864 5.962 24.153 1.835 0.291 0.531-17.432-5.136-26.994 -9.742-16.472-29.089-15.135-46.077-18.535C137.921 179.958 121.628 175.542 121.442 167.843L121.442 167.843zM78.558 167.843c-0.186 7.699-16.479 12.115-23.339 13.488 -16.988 3.4-36.335 2.063-46.077 18.535 -5.667 9.563-6.971 27.285-5.136 26.994 0.503-8.289 3.059-19.237 5.962-24.153 8.524-14.405 20.388-15.16 42.297-19.539C60.393 181.541 76.063 178.771 78.558 167.843L78.558 167.843z" fill="#e9bfa9" stroke-width="none" opacity="1" stroke="none"/>
          <path id="SvgjsPath6713" d="M51.206 189.513c0 0 28.641 0.299 33.473 1.885 2.314 0.758 8.372 5.633 8.372 5.633s-6.556-3.17-8.658-3.758C79.51 191.909 51.206 189.513 51.206 189.513zM99.795 199.999c2.053-0.041 7.887-3.799 7.887-3.799s-5.574 2.059-7.342 2.16c-1.491 0.086-6.366-1.238-6.366-1.238S98.112 200.032 99.795 199.999zM117.008 192.757c6.75-1.818 29.786-3.23 29.786-3.23s-23.791-0.516-30.51 1.725c-2.252 0.752-7.562 5.16-7.562 5.16S114.786 193.354 117.008 192.757z" fill="#cb8b6a" stroke-width="none" opacity="1" stroke="none"/>
          <path id="SvgjsPath6714" d="M190.858 199.866c-9.741-16.471-29.122-15.142-46.077-18.535 -6.86-1.373-23.153-5.789-23.339-13.488 -0.192-8.066 4.291-40.09 4.291-40.09H74.005c0 0 4.487 32.023 4.294 40.09 -0.184 7.699-16.48 12.115-23.341 13.488 -7.104 1.422-20.125 2.584-26.448 4.6 -6.156 1.963-13.624 3.777-19.632 13.936 -3.644 6.16-6.008 16.133-6.008 27.133h194C196.869 215.999 194.509 206.026 190.858 199.866z" fill="none" stroke="#ac5f38" stroke-width="1.5" opacity="1"/>
        </g>
        <g id="svga-group-chinshadow-single">
          <path id="SvgjsPath6981" d="M74.767 128.517c0.729 5.276 4.358 31.969 4.182 39.342 -0.001 0.048-0.011 0.094-0.013 0.141 5.877 2.477 12.865 4.005 21.167 4 8.141 0.005 14.977-1.448 20.719-3.824 -0.008-0.105-0.026-0.209-0.029-0.315 -0.175-7.381 3.45-34.068 4.179-39.343l0.017-0.113H74.751L74.767 128.517z" fill="url(#SvgjsLinearGradient6982)" opacity="1"/>
        </g>
        <g id="svga-group-clothes-single">
          <path id="SvgjsPath6967" d="M93.589 228.292c-8.632 0-18.516-0.143-30.217-0.437 -5.24-0.133-10.38-0.197-15.713-0.197 -8.082 0-15.041 0.146-21.771 0.288 -5.62 0.118-10.929 0.229-16.081 0.229 -4.201 0-7.974-0.075-11.533-0.23l-0.612-0.026 -0.023-0.281c-0.55-6.277-0.329-11.201 0.657-14.635 2.739-9.57 11.779-22.221 13.349-22.804 17.165-5.583 22.101-5.852 26.671-6.81 1.788-0.086 3.637-0.176 6.081-0.586 1.753-0.305 3.492-1.017 5.174-1.705 2.067-0.846 4.019-1.645 5.835-1.645 0.592 0 1.129 0.084 1.643 0.256 0.212 0.077 0.427 0.165 0.632 0.282l-0.024 0.12 0.026 0.198c0.479 4.203 0.973 7.772 1.408 10.921l0.011 0.079 0.081 0.015c11.784 1.007 26.305 2.259 40.89 2.259 14.972 0 29.065-1.255 40.758-2.309l0.079-0.007 0.011-0.079c0.422-3.005 0.913-6.566 1.4-10.813l0.061-0.52c0.146-0.037 0.349-0.126 0.57-0.196 0.488-0.163 0.997-0.242 1.557-0.242 1.702 0 3.576 0.752 5.561 1.547 1.637 0.656 3.33 1.336 5.133 1.697 1.221 0.247 2.486 0.299 3.71 0.349 0.322 0.014 0.645 0.026 0.965 0.043 11.05 1.62 12.476 1.811 27.626 6.813 0.092 0.038 0.205 0.077 0.328 0.119 0.38 0.13 0.9 0.308 1.043 0.567 1.617 2.864 3.238 5.418 4.806 7.889 5.13 8.081 9.56 15.062 10.143 27.528 0.008 0.11 0.015 0.203 0.019 0.295h-0.778c-40.024 0.014-59.705 0.721-75.52 1.289C116.521 227.95 107.005 228.292 93.589 228.292z" fill="#653220" stroke-width="none" opacity="1" stroke="none"/>
          <path id="SvgjsPath6968" d="M203.838 226.266c-0.296 0-0.61 0-0.906 0.001 -3.369-15.058-15.396-31.068-18.229-32.479 -9.956-4.956-30.352-7.399-40.493-11.396 -0.742 12.815-3.105 19.729-4.671 34.673 -1.357-7.705 2.116-31.016 2.697-35.99 0.027-0.233 0.143-1.218 0.143-1.218 1.688-0.431 2.109-1.127 7.688 1.108 4.488 1.8 5.622 1.925 8.843 2.046 13.716 0.514 15.933 3.408 28.591 6.855 2.022 0.551 0.082-1.032 6.177 8.575C198.883 206.643 203.301 213.636 203.838 226.266zM-3.838 226.266c0.296 0 0.61 0 0.906 0.001 3.369-15.058 15.396-31.068 18.229-32.479 9.956-4.956 30.256-7.399 40.397-11.396 0.742 12.815 3.201 19.729 4.767 34.673 1.357-7.705-2.116-31.016-2.697-35.99 -0.027-0.233-0.143-1.218-0.143-1.218 -1.688-0.431-2.109-1.127-7.688 1.108 -4.488 1.8-5.622 1.915-8.843 2.046 -11.774 1.875-13.637 2.176-28.591 6.855 -1.936 0.804-0.082-1.032-6.177 8.575C1.117 206.643-3.301 213.636-3.838 226.266z" fill="#744230" stroke-width="none" opacity="1" stroke="none"/>
          <path id="SvgjsPath6969" d="M100.071 195.291c-14.397 0-28.77-0.943-40.47-1.926 -0.103-1.298 0.002 0.355-0.45-1.647l0.131 0.019c12.446 1.671 26.582 2.555 40.878 2.555 0.001 0 0.003 0 0.004 0 14.571 0 28.595-0.894 40.561-2.584l0.132-0.02 -0.02 0.133c-0.122 0.829-0.229 1.131-0.329 1.91C128.269 194.738 101.071 195.291 100.071 195.291zM140.105 197.306c0.098-0.799 0.199-1.606 0.313-2.437l0.019-0.131 -0.131 0.019c-11.884 1.659-25.772 2.536-40.166 2.536 -14.12 0-28.104-0.866-40.438-2.507l-0.13-0.017 0.018 0.13c0.104 0.76 0.199 1.503 0.289 2.238C86.621 199.086 108.168 200.16 140.105 197.306z" fill="#562413" stroke-width="none" opacity="1" stroke="none"/>
          <path id="SvgjsPath6970" d="M203.919 225.966c-0.76-16.261-7.99-23.11-14.96-35.461 -0.21-0.38-1.019-0.603-1.42-0.729 -12.39-3.909-15.91-6.21-27.66-6.82 -1.55-0.08-3.13-0.08-4.66-0.39 -4.729-0.95-8.85-4.15-12.3-3 -0.22 0.07-0.43 0.16-0.64 0.28 -0.021 0.18-0.04 0.35-0.061 0.52 -0.479 4.18-0.96 7.68-1.399 10.811 -24.459 2.949-57.911 2.638-81.63 0.05 -0.44-3.181-0.93-6.721-1.41-10.931 -0.02-0.13-0.03-0.26-0.05-0.39 -0.21-0.12-0.43-0.21-0.65-0.29 -3.7-1.24-8.16 1.901-12.7 2.691 -8.426 1.466-8.81-0.086-32.77 7.799 -1.67 0.62-10.74 13.54-13.41 22.87 -1.16 4.04-1.11 9.54-0.66 14.67 0.01 0.13 0.02 0.25 0.03 0.37 0.24 0.01 0.47 0.02 0.7 0.029 18.55 0.811 35.87-0.829 65.1-0.09 62.13 1.561 54.81-1.56 139.69-1.59 0.29 0 0.59 0 0.88 0C203.939 226.226 203.929 226.096 203.919 225.966zM140.739 191.806c-0.12 0.83-0.23 1.63-0.33 2.41 -26.396 2.747-55.546 2.747-80.8 0.05 -0.11-0.79-0.22-1.601-0.34-2.431C86.149 195.445 117.819 195.045 140.739 191.806zM139.839 198.695c-23.66 2.05-55.979 1.99-79.67 0.04 -0.14-1.25-0.3-2.53-0.48-3.85 26.63 3.54 57.86 3.149 80.63-0.03C140.139 196.176 139.979 197.455 139.839 198.695zM172.77 225.335c-6.54 0.07-13.091 0.131-19.631 0.21 -14.439 0.171-40.329 1.511-49.81 1.521 -43.15 0.09-33.54-0.41-52.82-0.49 -19.22-0.04-34.91 1.53-52.25 1.09 -0.1-7.37 0.5-12.37 2.95-17.479 3.34-6.91 6.22-12.351 11.11-18.22 0.14-0.16 0.4-0.2 0.59-0.271 5.14-1.9 11.21-4.22 17.85-5.69 8.16-1.81 12.65-1.109 17.87-3.46 3.45-1.55 6.08-3.189 8.45-2.51 0.06 4.23 0.32 7.69 0.68 11.07 0.02 0.18 0.04 0.35 0.06 0.53 0.09 0.83 0.19 1.659 0.3 2.5 0.02 0.189 0.04 0.369 0.06 0.55 0.16 1.28 0.33 2.569 0.5 3.93 0.03 0.19 0.06 0.38 0.08 0.58 0.6 4.72 1.24 10.19 1.7 17.87 0.57-7.17 0.36-12.3-0.21-17.67 26.29 3.42 56.96 3.05 79.521-0.03 -0.601 5.4-0.801 10.49-0.23 17.7 0.46-7.55 1.12-13.061 1.73-17.91 0.02-0.2 0.05-0.4 0.069-0.59 0.17-1.35 0.34-2.64 0.5-3.92 0.021-0.19 0.04-0.38 0.061-0.57 0.1-0.83 0.2-1.66 0.279-2.49 0.03-0.18 0.051-0.359 0.061-0.54 0.36-3.369 0.62-6.84 0.67-10.96 3.87-1.17 8.32 3.391 14.25 4.021 5.85 0.63 11.84 1.457 17.47 3.308 4.15 1.359 11.21 3.362 12.891 4.372 0.34 0.21 0.77 1.49 0.96 1.891 4.87 9.71 12.439 15.149 14.52 32.26C178.06 225.315 177.529 225.285 172.77 225.335z" fill="#370f01" stroke-width="none" opacity="1" stroke="none"/>
        </g>
        <g id="svga-group-head" transform="matrix(1,0,0,1,0,0)">
          <g id="svga-group-ears-left-move" transform="matrix(1,0,0,1,0,0)">
            <g id="svga-group-ears-left" transform="matrix(1,0,0,1,0,0)">
              <path id="SvgjsPath6962" d="M47.34 82.049c-1.378-2.352-9.403-6.527-11.855-6.357 -4.229 0.292-5.137 5.152-5.446 7.479 -0.609 4.591 0.645 9.778 1.485 12.908 0.687 2.557 2.874 7.41 4.214 9.664 1.197 2.016 4.145 5.663 5.733 7.358 1.398 1.495 4.73 4.215 7.248 3.551 2.769-0.728 6.015-3.857 6.239-5.193C56.165 104.212 50.926 88.167 47.34 82.049z" fill="#daa488" stroke="#ac5f38" stroke-width="1.5" opacity="1"/>
              <path id="SvgjsPath6963" d="M42.903 98.548c-0.142-0.572 0.007-1.535 0.151-2.465 0.131-0.848 0.255-1.648 0.18-2.214 -0.284-2.121-1.888-6.15-2.936-8.334 -1.206-2.511-3.157-5.674-5.602-6.492 -1.011-0.338-2.073-0.511-2.145-0.236 -0.611 1.9-0.563 7.178-0.212 11.086 0.987 10.992 10.375 18.911 11.872 20.578 0.276 0.308 0.566 0.49 0.637 0.416 0.072-0.074-0.1-0.379-0.375-0.688 -1.477-1.654-8.314-8.49-9.27-12.807 -1.012-4.581 3-12.111 3.776-13.548 0.397 0.675 0.732 1.322 0.991 1.862 0.204 0.424 0.429 0.92 0.66 1.456 -0.456 0.75-3.656 6.219-2.489 10.596 0.431 1.615 2.379 3.695 3.67 4.266 0.71 0.314 0.978 0.783 1.287 1.325 0.359 0.63 0.765 1.343 1.946 1.861 0.24 0.106 0.457 0.148 0.649 0.148 0.333 0 0.586-0.132 0.773-0.288 0.019 0.275-0.349 2.463-0.357 2.789 -0.012 0.421 0.045 0.77 0.146 0.778 0.101 0.008 0.207-0.327 0.221-0.749 0.016-0.518 0.379-2.992 0.289-3.297 -0.264-0.902-1.073-1.921-1.93-3C43.994 100.53 43.122 99.432 42.903 98.548zM34.428 94.672c-2.316-7.025 1.456-13.179 1.977-14.144 0.906 0.808 1.704 1.89 2.354 2.948C38.286 84.321 34.526 89.947 34.428 94.672zM45.187 104.856c-1.069-0.469-1.427-1.096-1.774-1.704 -0.313-0.549-0.637-1.118-1.458-1.481 -0.179-0.08-0.375-0.199-0.576-0.338 -2.646-6.164 0.289-8.857 1.025-9.411 0.226 0.754 0.394 1.445 0.468 2 0.067 0.509-0.058 1.317-0.179 2.1 -0.149 0.97-0.305 1.973-0.144 2.621 0.239 0.967 1.137 2.098 2.005 3.191 0.771 0.971 1.562 1.97 1.832 2.786C46.271 104.783 45.905 105.173 45.187 104.856z" fill="#ac5f38" stroke-width="none" opacity="1" stroke="none"/>
            </g>
          </g>
          <g id="svga-group-ears-right-move" transform="matrix(1,0,0,1,0,0)">
            <g id="svga-group-ears-right" transform="matrix(1,0,0,1,0,0)">
              <path id="SvgjsPath6964" d="M152.398 82.049c1.377-2.352 9.402-6.527 11.855-6.357 4.229 0.292 5.137 5.152 5.445 7.479 0.609 4.591-0.645 9.778-1.484 12.908 -0.688 2.557-2.875 7.41-4.215 9.664 -1.197 2.016-4.145 5.663-5.732 7.358 -1.398 1.495-4.73 4.215-7.248 3.551 -2.77-0.728-6.016-3.857-6.238-5.193C143.574 104.212 148.813 88.167 152.398 82.049z" fill="#daa488" stroke="#ac5f38" stroke-width="1.5" opacity="1"/>
              <path id="SvgjsPath6965" d="M154.902 101.59c-0.855 1.08-1.666 2.098-1.93 3 -0.09 0.305 0.273 2.779 0.289 3.297 0.014 0.422 0.119 0.757 0.221 0.749 0.102-0.009 0.158-0.357 0.146-0.778 -0.01-0.326-0.377-2.514-0.357-2.789 0.188 0.156 0.439 0.288 0.771 0.288 0.193 0 0.41-0.042 0.65-0.148 1.182-0.518 1.588-1.23 1.945-1.861 0.311-0.542 0.578-1.011 1.287-1.325 1.291-0.571 3.24-2.651 3.67-4.266 1.168-4.376-2.031-9.846-2.488-10.596 0.23-0.536 0.457-1.032 0.66-1.456 0.26-0.54 0.594-1.188 0.99-1.862 0.777 1.437 4.789 8.967 3.777 13.548 -0.955 4.317-7.793 11.153-9.27 12.807 -0.275 0.31-0.447 0.614-0.375 0.688s0.361-0.108 0.637-0.416c1.498-1.667 10.885-9.585 11.873-20.578 0.35-3.908 0.396-9.187-0.213-11.086 -0.072-0.274-1.135-0.102-2.145 0.236 -2.445 0.817-4.396 3.98-5.604 6.492 -1.047 2.185-2.65 6.213-2.936 8.334 -0.076 0.566 0.049 1.366 0.18 2.214 0.145 0.93 0.293 1.893 0.15 2.465C156.617 99.432 155.744 100.53 154.902 101.59zM160.979 83.476c0.65-1.058 1.449-2.14 2.355-2.948 0.52 0.964 4.291 7.119 1.977 14.144C165.211 89.947 161.453 84.321 160.979 83.476zM153.352 104.62c0.271-0.815 1.063-1.814 1.832-2.786 0.869-1.093 1.766-2.224 2.006-3.191 0.16-0.648 0.006-1.651-0.145-2.621 -0.121-0.783-0.246-1.591-0.178-2.1 0.074-0.555 0.242-1.245 0.467-2 0.736 0.553 3.672 3.247 1.025 9.411 -0.201 0.139-0.396 0.258-0.576 0.338 -0.82 0.363-1.145 0.932-1.457 1.481 -0.348 0.608-0.705 1.235-1.775 1.704C153.834 105.173 153.467 104.783 153.352 104.62z" fill="#ac5f38" stroke-width="none" opacity="1" stroke="none"/>
            </g>
          </g>
          <g id="svga-group-faceshape-wrap" transform="matrix(1,0,0,1,0,0)">
            <g id="svga-group-faceshape-single">
              <path id="SvgjsPath6978" d="M100.103 0.867C66.481 0.814 39.286 27.899 39.234 61.374c-0.008 5.316 0.669 10.473 1.953 15.389l0.004 0c0.011 0.053 6.322 32.098 11.785 46.085 4.253 10.89 10.61 37.576 47.125 37.555 36.515 0.021 42.872-26.665 47.125-37.555 5.463-13.987 11.773-46.032 11.785-46.085l0.005 0c1.283-4.916 1.961-10.072 1.952-15.389C160.919 27.899 133.723 0.814 100.103 0.867z" fill="#daa488" stroke-width="none" opacity="1" stroke="none"/>
              <path id="SvgjsPath6979" d="M150.307 27.3c5.293 9.096 8.347 19.746 8.364 31.14 0.008 5.316-0.645 10.473-1.883 15.389l-0.004 0c-0.012 0.053-5.969 32.098-11.234 46.085 -4.1 10.89-10.353 37.576-45.547 37.555 -35.195 0.021-41.448-26.665-45.547-37.555 -5.266-13.987-11.223-46.032-11.234-46.085l-0.004 0c-1.237-4.916-1.891-10.072-1.882-15.389 0.017-11.394 3.071-22.043 8.362-31.139 -6.647 9.702-10.543 21.43-10.563 34.072 -0.008 5.316 0.669 10.473 1.953 15.389l0.004 0c0.011 0.053 6.322 32.098 11.785 46.085 4.253 10.89 10.61 37.576 47.125 37.555 36.515 0.021 42.873-26.665 47.125-37.555 5.463-13.987 11.773-46.032 11.785-46.085l0.005 0c1.283-4.916 1.961-10.072 1.952-15.389C160.852 48.73 156.954 37.002 150.307 27.3z" fill="#d29779" stroke-width="none" opacity="1" stroke="none"/>
              <path id="SvgjsPath6980" d="M100.103 0.867C66.481 0.814 39.286 27.899 39.234 61.374c-0.008 5.316 0.669 10.473 1.953 15.389l0.004 0c0.011 0.053 6.322 32.098 11.785 46.085 4.253 10.89 10.61 37.576 47.125 37.555 36.515 0.021 42.872-26.665 47.125-37.555 5.463-13.987 11.773-46.032 11.785-46.085l0.005 0c1.283-4.916 1.961-10.072 1.952-15.389C160.919 27.899 133.723 0.814 100.103 0.867z" fill="none" stroke="#ac5f38" stroke-width="1.5" opacity="1"/>
            </g>
          </g>
          <g id="svga-group-mouth-single-move" transform="matrix(1,0,0,1,0,0)">
            <g id="svga-group-mouth-single" transform="matrix(1,0,0,1,0,0)">
              <path id="SvgjsPath6951" d="M100.002 141.248c-4.158 0-5.133-3.404-5.133-3.404 5.5 2.12 10.267-0.146 10.267-0.146S103.659 141.248 100.002 141.248z" fill="url(#SvgjsLinearGradient6952)" opacity="1"/>
              <path id="SvgjsPath6955" d="M86.803 131.94c2.756-0.951 6.973-2.692 9.166-2.789 1.133-0.052 2.351 0.87 3.574 1.165 0.851 0.206 3.264-1.156 4.13-1.165 2.272-0.024 7.06 1.838 9.502 2.789 0.135 0.054 0 0 0 0s-5.789 6.953-13.185 6.953C91.618 138.894 86.803 131.94 86.803 131.94S86.666 131.989 86.803 131.94z" fill="#98a2a2" stroke="#7b9393" stroke-width="0.75" opacity="1"/>
              <path id="SvgjsPath6956" d="M113.541 131.736c-0.048-0.164-0.482-0.367-0.653-0.359 -0.311 0.017-0.672 0.396-1.313 0.41 -0.742 0.018-4.679 0.61-5.736 0.54 -2.129-0.142-3.824 0.666-5.848 0.666 -2.025 0-3.868-0.882-5.996-0.739 -1.057 0.072-4.847-0.448-5.591-0.467 -0.643-0.015-0.892-0.411-1.166-0.464 -0.192-0.036-0.663 0.166-0.757 0.338 -0.083 0.149 0.092 0.67 0.209 0.794 0.285 0.297 1.136 0.242 1.698 0.256 0.777 0.017 4.577 0.538 5.65 0.466 2.081-0.141 3.936 0.822 5.952 0.822s3.725-0.889 5.806-0.748c1.071 0.071 5.015-0.524 5.793-0.54 0.563-0.014 1.366-0.061 1.654-0.292C113.379 132.311 113.59 131.904 113.541 131.736z" fill="#4a7474" stroke-width="none" opacity="1" stroke="none"/>
              <path id="SvgjsPath6957" d="M99.989 137.352c-3.37 0-6.645-1.153-9.241-3.305 1.307-0.072 2.652-0.277 3.961-0.22 1.613 0.07 3.144 0.707 4.756 0.813 1.742 0.116 3.358-0.487 5.064-0.694 1.422-0.17 3.664-0.674 5.091-0.622C107.068 135.28 103.244 137.352 99.989 137.352zM104.562 131.739c1.314-0.037 3.414-0.532 4.724-0.437 -1.405-0.759-3.657-0.941-5.243-1.247 -1.366-0.266-2.738 0.791-4.081 0.968 -1.514 0.199-2.65-1.239-4.119-1.288 -1.593 0.017-3.233 0.991-4.634 1.65 1.284-0.034 2.607-0.176 3.886-0.012 1.566 0.199 3.069 0.817 4.655 0.87C101.373 132.299 102.939 131.782 104.562 131.739z" fill="#b1b1b1" stroke-width="none" opacity="1" stroke="none"/>
              <path id="SvgjsPath6958" d="M99.941 136.4c-2.029 0-4.007-0.702-5.707-2.002 0.38-0.038 0.764-0.067 1.133-0.067 0.117 0 0.234 0.004 0.351 0.011 0.609 0.032 1.209 0.207 1.846 0.393 0.618 0.178 1.256 0.363 1.923 0.42 0.132 0.01 0.264 0.015 0.395 0.015 0.819 0 1.596-0.204 2.348-0.4 0.477-0.125 0.928-0.243 1.392-0.313 0.253-0.04 0.527-0.059 0.837-0.059 0.268 0 0.544 0.015 0.818 0.036C103.862 135.485 102.03 136.4 99.941 136.4z" fill="#c1c1c1" stroke-width="none" opacity="1" stroke="none"/>
            </g>
          </g>
          <g id="svga-group-eyes-left-move" transform="matrix(1,0,0,1,0,0)">
            <g id="svga-group-eyes-left" transform="matrix(1,0,0,1,0,0)">
              <g id="svga-group-eyesback-left">
                <path id="SvgjsPath6878" d="M79.063 92.229c-4.31 0.755-7.656 0.71-10.688-0.204 -3.127-0.943-7.188-4.825-8.596-8.495 3.715-0.277 11.349-0.597 14.89-0.154 4.688 0.586 9.474 2.406 12.305 5.236 -0.016 0.294-0.053 0.583-0.087 0.872C84.602 91.031 81.366 91.825 79.063 92.229z" fill="url(#SvgjsRadialGradient6879)" opacity="1"/>
              </g>
              <g id="svga-group-eyesiriswrapper-left" transform="matrix(1,0,0,1,-1,0.5)">
                <g id="svga-group-eyesiriscontrol-left" transform="matrix(1,0,0,1,0,0)">
                  <g id="svga-group-eyesiris-left" transform="matrix(1,0,0,1,0,0)">
                    <path id="SvgjsPath6936" d="M83.199 89.25c-1.231 4.522-5.896 7.187-10.429 5.944 -4.528-1.241-7.203-5.918-5.97-10.442 1.23-4.526 5.905-7.19 10.434-5.947C81.761 80.045 84.433 84.723 83.199 89.25z" fill="#b0b9d9" stroke="#576aab" stroke-width="0.5" opacity="1"/>
                    <path id="SvgjsPath6937" d="M81.878 89.354c-1.202 3.473-4.827 5.499-8.357 4.531 -3.258-0.894-5.315-4.02-5.048-7.325 1.209-0.096 2.532-0.124 3.904-0.056 -0.014 0.047-0.039 0.087-0.051 0.136 -0.434 1.594 0.576 3.265 2.256 3.726 1.685 0.461 3.401-0.462 3.835-2.056 0.055-0.208 0.085-0.417 0.093-0.623C79.66 88.108 80.792 88.651 81.878 89.354z" fill="#d4d8e8" stroke-width="none" opacity="1" stroke="none"/>
                    <path id="SvgjsPath6938" d="M76.151 84.464c-1.703-0.487-3.44 0.485-3.88 2.181 -0.44 1.687 0.584 3.454 2.286 3.942 1.705 0.489 3.443-0.484 3.884-2.173C78.884 86.719 77.855 84.953 76.151 84.464zM76.523 90.46c-0.708 0.22-1.441-0.072-1.636-0.655 -0.188-0.582 0.231-1.228 0.945-1.443 0.712-0.22 1.442 0.073 1.639 0.651C77.665 89.593 77.241 90.24 76.523 90.46z" fill="#000000" stroke-width="none" opacity="0.9"/>
                    <path id="SvgjsPath6939" d="M70.482 91.476c-0.523 0.314-1.307 0.034-1.754-0.633 -0.448-0.66-0.381-1.451 0.145-1.767 0.521-0.311 1.311-0.03 1.755 0.632C71.07 90.37 71.006 91.162 70.482 91.476z" fill="#ffffff" stroke-width="none" opacity="0.6"/>
                    <path id="SvgjsPath6940" d="M81.673 86.632c-1.198 0.718-2.999 0.072-4.02-1.445 -1.02-1.518-0.867-3.331 0.332-4.047 1.196-0.721 3-0.074 4.015 1.444C83.019 84.101 82.871 85.913 81.673 86.632z" fill="#ffffff" stroke-width="none" opacity="0.9"/>
                  </g>
                </g>
              </g>
              <g id="svga-group-eyesfront-left">
                <path id="SvgjsPath6903" d="M56 88c0 13.808 8.06 24.999 18 24.999S92 101.808 92 88c0-13.809-8.06-25.001-18-25.001S56 74.191 56 88zM59.78 83.53c3.715-0.277 11.349-0.597 14.89-0.154 4.952 0.619 10.04 2.6 12.788 5.71 -2.289 1.82-5.897 2.705-8.395 3.143 -4.31 0.755-7.656 0.71-10.688-0.204C65.249 91.083 61.188 87.2 59.78 83.53z" fill="#daa488" stroke-width="none" opacity="1" stroke="none"/>
                <path id="SvgjsPath6904" d="M56.143 86.915c0.027 8.284 8.484 14.962 18.902 14.919 10.414-0.047 18.836-6.796 18.813-15.08 -0.027-8.285-8.486-14.963-18.902-14.92C64.539 71.881 56.119 78.63 56.143 86.915zM59.78 83.53c3.715-0.277 11.349-0.597 14.89-0.154 4.952 0.619 10.04 2.6 12.788 5.71 -2.289 1.82-5.897 2.705-8.395 3.143 -4.31 0.755-7.656 0.71-10.688-0.204C65.249 91.083 61.188 87.2 59.78 83.53z" fill="url(#SvgjsRadialGradient6905)" opacity="1"/>
                <path id="SvgjsPath6909" d="M59.78 83.53c3.715-0.277 11.349-0.597 14.89-0.154 4.952 0.619 10.04 2.6 12.788 5.71 -2.289 1.82-5.897 2.705-8.395 3.143 -4.31 0.755-7.656 0.71-10.688-0.204C65.249 91.083 61.188 87.2 59.78 83.53z" fill="url(#SvgjsRadialGradient6910)" opacity="1"/>
                <path id="SvgjsPath6913" d="M67.363 79.695c6.133-0.278 8.613 0.088 12.986 1.384 1.662 0.602 1.852 0.772 2.555 1.214C79.119 80.256 68.83 79.641 67.363 79.695zM59.396 86.752c2.854 5.494 4.797 4.894 7.531 6.058 0.025 0.009-1.51-0.579-2.664-1.196C61.273 89.895 60.908 89.163 59.396 86.752z" fill="#ac5f38" stroke-width="none" opacity="1" stroke="none"/>
                <path id="SvgjsPath6914" d="M56 81.734c3.096 2.525 4.363 5.953 7.398 8.529 2.037 1.729 5.877 2.717 9.602 2.773 3.844 0.058 8.59-0.434 10.258-0.855 2.838-0.718 3.539-1.278 6.742-1.472 -1.986-3.039-3.836-4.399-6.268-5.841 -2.977-1.764-5.074-2.279-8.719-2.564C70.16 81.924 56 81.734 56 81.734zM60.705 83.826c3.467-0.258 10.59-0.557 13.895-0.144 4.621 0.577 9.369 2.426 11.934 5.328 -2.137 1.699-5.504 2.524-7.834 2.933 -4.021 0.705-7.145 0.663-9.973-0.19C65.809 90.874 62.02 87.251 60.705 83.826z" fill="#09152e" stroke-width="none" opacity="1" stroke="none"/>
              </g>
            </g>
          </g>
          <g id="svga-group-eyes-right-move" transform="matrix(1,0,0,1,0,0)">
            <g id="svga-group-eyes-right" transform="matrix(1,0,0,1,0,0)">
              <g id="svga-group-eyesback-right">
                <path id="SvgjsPath6886" d="M120.937 92.229c4.31 0.755 7.656 0.71 10.688-0.204 3.127-0.943 7.188-4.825 8.596-8.495 -3.715-0.277-11.349-0.597-14.89-0.154 -4.688 0.586-9.474 2.406-12.305 5.236 0.016 0.294 0.053 0.583 0.087 0.872C115.398 91.031 118.634 91.825 120.937 92.229z" fill="url(#SvgjsRadialGradient6887)" opacity="1"/>
              </g>
              <g id="svga-group-eyesiriswrapper-right" transform="matrix(1,0,0,1,1,0.5)">
                <g id="svga-group-eyesiriscontrol-right" transform="matrix(1,0,0,1,0,0)">
                  <g id="svga-group-eyesiris-right" transform="matrix(1,0,0,1,0,0)">
                    <path id="SvgjsPath6941" d="M133.199 89.25c-1.231 4.522-5.896 7.187-10.429 5.944 -4.528-1.241-7.203-5.918-5.97-10.442 1.23-4.526 5.905-7.19 10.434-5.947C131.761 80.045 134.433 84.723 133.199 89.25z" fill="#b0b9d9" stroke="#576aab" stroke-width="0.5" opacity="1"/>
                    <path id="SvgjsPath6942" d="M131.878 89.354c-1.202 3.473-4.827 5.499-8.357 4.531 -3.258-0.894-5.315-4.02-5.048-7.325 1.209-0.096 2.532-0.124 3.904-0.056 -0.014 0.047-0.039 0.087-0.051 0.136 -0.434 1.594 0.576 3.265 2.256 3.726 1.685 0.461 3.401-0.462 3.835-2.056 0.055-0.208 0.085-0.417 0.093-0.623C129.66 88.108 130.792 88.651 131.878 89.354z" fill="#d4d8e8" stroke-width="none" opacity="1" stroke="none"/>
                    <path id="SvgjsPath6943" d="M126.151 84.464c-1.703-0.487-3.44 0.485-3.88 2.181 -0.44 1.687 0.584 3.454 2.286 3.942 1.705 0.489 3.443-0.484 3.884-2.173C128.884 86.719 127.855 84.953 126.151 84.464zM126.523 90.46c-0.708 0.22-1.441-0.072-1.636-0.655 -0.188-0.582 0.231-1.228 0.945-1.443 0.712-0.22 1.442 0.073 1.639 0.651C127.665 89.593 127.241 90.24 126.523 90.46z" fill="#000000" stroke-width="none" opacity="0.9"/>
                    <path id="SvgjsPath6944" d="M120.482 91.476c-0.523 0.314-1.307 0.034-1.754-0.633 -0.448-0.66-0.381-1.451 0.145-1.767 0.521-0.311 1.311-0.03 1.755 0.632C121.07 90.37 121.006 91.162 120.482 91.476z" fill="#ffffff" stroke-width="none" opacity="0.6"/>
                    <path id="SvgjsPath6945" d="M131.673 86.632c-1.198 0.718-2.999 0.072-4.02-1.445 -1.02-1.518-0.867-3.331 0.332-4.047 1.196-0.721 3-0.074 4.015 1.444C133.019 84.101 132.871 85.913 131.673 86.632z" fill="#ffffff" stroke-width="none" opacity="0.9"/>
                  </g>
                </g>
              </g>
              <g id="svga-group-eyesfront-right">
                <path id="SvgjsPath6924" d="M126 62.999c-9.94 0-18 11.193-18 25.001 0 13.808 8.06 24.999 18 24.999S144 101.808 144 88C144 74.191 135.94 62.999 126 62.999zM131.624 92.025c-3.031 0.914-6.378 0.959-10.688 0.204 -2.497-0.438-6.105-1.323-8.395-3.143 2.748-3.11 7.836-5.091 12.788-5.71 3.541-0.443 11.175-0.123 14.89 0.154C138.812 87.2 134.751 91.083 131.624 92.025z" fill="#daa488" stroke-width="none" opacity="1" stroke="none"/>
                <path id="SvgjsPath6925" d="M125.045 71.834c-10.416-0.043-18.875 6.635-18.902 14.92 -0.023 8.284 8.398 15.033 18.813 15.08 10.418 0.043 18.875-6.635 18.902-14.919C143.881 78.63 135.461 71.881 125.045 71.834zM131.624 92.025c-3.031 0.914-6.378 0.959-10.688 0.204 -2.497-0.438-6.105-1.323-8.395-3.143 2.748-3.11 7.836-5.091 12.788-5.71 3.541-0.443 11.175-0.123 14.89 0.154C138.812 87.2 134.751 91.083 131.624 92.025z" fill="url(#SvgjsRadialGradient6926)" opacity="1"/>
                <path id="SvgjsPath6930" d="M140.22 83.53c-3.715-0.277-11.349-0.597-14.89-0.154 -4.952 0.619-10.04 2.6-12.788 5.71 2.289 1.82 5.897 2.705 8.395 3.143 4.31 0.755 7.656 0.71 10.688-0.204C134.751 91.083 138.812 87.2 140.22 83.53z" fill="url(#SvgjsRadialGradient6931)" opacity="1"/>
                <path id="SvgjsPath6934" d="M117.096 82.293c0.703-0.442 0.893-0.613 2.555-1.214 4.373-1.295 6.854-1.662 12.986-1.384C131.17 79.641 120.881 80.256 117.096 82.293zM135.736 91.614c-1.154 0.617-2.689 1.205-2.664 1.196 2.734-1.164 4.678-0.564 7.531-6.058C139.092 89.163 138.727 89.895 135.736 91.614z" fill="#ac5f38" stroke-width="none" opacity="1" stroke="none"/>
                <path id="SvgjsPath6935" d="M124.986 82.304c-3.645 0.285-5.742 0.8-8.719 2.564 -2.432 1.441-4.281 2.802-6.268 5.841 3.203 0.193 3.904 0.754 6.742 1.472 1.668 0.421 6.414 0.913 10.258 0.855 3.725-0.056 7.564-1.044 9.602-2.773 3.035-2.576 4.303-6.003 7.398-8.529C144 81.734 129.84 81.924 124.986 82.304zM131.273 91.753c-2.828 0.853-5.951 0.895-9.973 0.19 -2.33-0.409-5.697-1.234-7.834-2.933 2.564-2.902 7.313-4.751 11.934-5.328 3.305-0.413 10.428-0.114 13.895 0.144C137.98 87.251 134.191 90.874 131.273 91.753z" fill="#09152e" stroke-width="none" opacity="1" stroke="none"/>
              </g>
            </g>
          </g>
          <g id="svga-group-facehighlight-single">
            <path id="SvgjsPath6703" d="M140.204 113.007c0.035 22.275-17.995 40.365-40.273 40.396 -22.274 0.036-40.361-17.993-40.396-40.272C59.501 90.857 77.53 72.77 99.808 72.735 122.083 72.701 140.171 90.73 140.204 113.007z" fill="url(#SvgjsRadialGradient6704)" opacity="1"/>
            <path id="SvgjsPath6707" d="M135,55.999c0,19.329-15.671,35-35,35c-19.329,0-35-15.671-35-35s15.671-35,35-35C119.329,20.999,135,36.67,135,55.999z" fill="url(#SvgjsRadialGradient6708)" opacity="1"/>
          </g>
          <g id="svga-group-eyebrows-left-move" transform="matrix(1,0,0,1,0,0)">
            <g id="svga-group-eyebrows-left-rotate" transform="matrix(1,0,0,1,0,0)">
              <g id="svga-group-eyebrows-left" transform="matrix(1,0,0,1,0,0)">
                <path id="SvgjsPath6946" d="M55.326 74.471c5.772-0.588 25.893-4.929 34.203-9.179 0.726-0.372 2.091-1.271 2.933-0.9C96.346 66.103 76.591 75.214 55.326 74.471z" fill="#6b4e40" stroke-width="none" opacity="1" stroke="none"/>
              </g>
            </g>
          </g>
          <g id="svga-group-eyebrows-right-move" transform="matrix(1,0,0,1,0,0)">
            <g id="svga-group-eyebrows-right-rotate" transform="matrix(1,0,0,1,0,0)">
              <g id="svga-group-eyebrows-right" transform="matrix(1,0,0,1,0,0)">
                <path id="SvgjsPath6947" d="M145.13 73.479c0 0.55-13.681-0.174-15.036-0.312 -23.276-2.375-24.632-8.724-21.625-7.963 2.454 0.622 3.619 2.921 21.219 6.063C130.107 71.342 145.13 73.906 145.13 73.479z" fill="#6b4e40" stroke-width="none" opacity="1" stroke="none"/>
              </g>
            </g>
          </g>
          <g id="svga-group-nose-single-move" transform="matrix(1,0,0,1,0,0)">
            <g id="svga-group-nose-single" transform="matrix(1,0,0,1,0,0)">
              <path id="SvgjsPath6959" d="M93.787 116.99c0 0 1.319-0.969 5.75-0.969 5.24 0 6.685 0.759 6.685 0.759s-3.71 2.4-6.937 1.925C96.513 118.295 93.787 116.99 93.787 116.99z" fill="#cb8b6a" stroke-width="none" opacity="1" stroke="none"/>
              <path id="SvgjsPath6960" d="M100.06 120.097c-1.181 0-2.382-0.529-3.423-1.045 -0.423-0.208-0.838-0.374-1.304-0.461 -0.582-0.109-1.656 0.086-2.085-0.356 -0.457-0.473-0.085-1.217 0.54-1.244 0.771 0.012 1.551 0.067 2.298 0.267 1.309 0.35 2.427 1.254 3.814 1.366 1.051 0.084 2.219-0.58 3.159-0.977 0.738-0.312 3.209-1.475 3.805-0.457 0.369 0.629-0.222 1.075-0.789 1.107 -0.702 0.039-1.394 0.277-2.043 0.534C102.777 119.327 101.441 120.097 100.06 120.097z" fill="#bb744f" stroke-width="none" opacity="1" stroke="none"/>
              <path id="SvgjsPath6961" d="M99.989 116.076c0.556 0 1.853-0.647 1.64-1.902 -1.26-7.41-1.64-20.245-1.64-20.245s-0.964 15.033-1.788 20.245C98.001 115.443 99.36 116.076 99.989 116.076z" fill="#f9dccd" stroke-width="none" opacity="0.2" stroke="none"/>
            </g>
          </g>
          <g id="svga-group-hair-front" transform="matrix(1,0,0,1,0,0)">
            <path id="SvgjsPath6872" d="M146.93 34.899H51.19l2.047 63.665c0.413-1.002 6.167-11.347 6.883-9.885 27.017-13.333 35.79-30.203 41.162-43.761 -8.006 33.653-27.315 38.394-27.315 38.394 4.23-0.47 16.372-1.724 24.386-10.048 1.049-1.109 9.917-7.806 17.639-28.686 1.598 17.179 9.102 35.856 21.778 43.817 -4.244-8.364-9.812-29.919-10.834-45.113 7.041 34.369 14.163 52.434 20.596 64.606 2.186 4.135 6.498 11.445 5.991 11.344C155.064 127.09 146.93 34.899 146.93 34.899z" fill="#6b4e40" stroke-width="none" opacity="0.1" stroke="none"/>
            <path id="SvgjsPath6873" d="M123.977 2.768c-3.083-1.172-5.286-2.017-8.009-2.746 -0.046-1-52.547-15.95-79.211 46.22C30 65.827 26.418 96.013 32.644 115.821c1.439 4.387 5.438 10.615 9.24 31.491 1.83 10.049 3.275 17.985 14.18 29.005 2.863 2.896 10.198 8.648 11.516 13.763 4.04-22.237-3.639-28.484-10.942-34.448 -5.008-4.09-9.886-5.026 3.084-1.95 0 0 2.742-0.172 8.082-3.547 -8.452 1.78-14.496-1.088-18.395-7.845 -5.153-8.931-5.126-22.432 0.063-31.404 5.211 2.94 4.943 17.158 5.213 18.975 2.336-7.38-1.068-29.004-1.447-31.296 -0.086-1.031 1.344-4.568 1.344-4.568 0.413-1.002 4.823-9.035 5.539-7.572 27.017-13.333 35.79-30.203 41.162-43.761 -8.006 33.653-26.338 40.13-26.338 40.13 4.23-0.47 15.395-3.46 23.408-11.784 1.049-1.109 10.575-11.543 18.297-32.423 1.598 17.179 9.354 36.563 19.454 48.129 -4.244-8.364-8.146-30.494-9.168-45.688 7.041 34.369 15.773 50.895 22.206 63.066 2.186 4.135 4.633 11.112 4.126 11.011 1.542 7.857-1.689 25.994-16.881 30.317 2.979 0.559 5.525 0.628 7.732 0.33 -16.469 16.26-7.259 25.821-4.188 43.015 0.856-3.048 0.825-6.172 5.466-12.909 8.701-12.646 1.984-12.887 12.664-33.732 11.454-22.361 10.121-31.09 11.148-37.028C169.358 104.3 175.752 22.291 123.977 2.768z" fill="#6b4e40" stroke-width="none" opacity="1" stroke="none"/>
            <path id="SvgjsPath6874" d="M67.764 188.989c0.423-2.594 0.691-4.943 0.835-7.097C68.471 184.053 68.198 186.411 67.764 188.989zM74 74c12.458-18.076 20-31 24-50 -9.526 21.91-26.401 39.19-40.852 57.299 -0.179-4.145 0.471-27.813 19.151-56.07C53.909 45.714 44.072 74.808 50 92.329c-4.381-9.265-7.631-27.423-4.534-39.992C32.93 82.071 50.324 95.5 55.201 114.308c-1.344-18.182-3.149-14.727-0.619-20.983 0.353-0.856 2.804-5.552 2.941-4.476 1.148-1.746 2.267-3.1 2.597-2.425 27.017-13.333 35.79-30.203 41.162-43.761 -8.006 33.653-26.338 40.13-26.338 40.13 12.432-1.38 32.048-22.872 29.337-54.052C99.279 46.741 86.458 62.405 74 74zM167.643 69.768C168.346 85.58 166.535 100.791 164 116c-2-14-5.646-30.432-12.166-48.964 5.535 25.6 4.855 34.796 5.16 44.698 -13.146-28.627-26.344-53.284-31.411-82.828C124.631 39.739 127.384 55.924 129 68c-4.369-9.761-9.298-21.428-11.084-39.259 0 3.435-0.399 5.222-1.558 9.477 1.731 17.014 9.773 37.078 19.745 48.497 -4.244-8.364-8.146-30.494-9.168-45.688 7.041 34.369 15.773 50.895 22.206 63.066 1.876 3.549 3.938 9.179 4.167 10.643 0.038 0.242 0.031 0.383-0.041 0.368 0.158 0.808 0.264 1.729 0.313 2.728 1.77 4.593 2.528 7.402 1.474 10.785 -1.525 4.895-9.049 15.63-18.668 16.805 8.743 2.063 14.341-2.79 18.97-8.827 -6.923 15.946-21.127 8.797-15.486 51.65 0.701-2.468 1.708-6.844 5.527-12.388 8.701-12.646 1.984-12.887 12.664-33.732 11.454-22.361 10.121-31.09 11.148-37.028C169.274 104.75 170.52 89.027 167.643 69.768zM44.483 143.565c2.989 1.909 6.538 10.618 16.535 9.841C41.105 148.271 42 120.18 42 103c-1.471 4.902-2.685 10.05-3.438 15.315 -11.3-30.764-4.969-64.11 9.831-92.716 -4.203 5.701-8.144 12.5-11.637 20.643 -16.692 48.389-0.499 78.419 0.992 83.356 6.717 22.247 2.683 30.923 18.315 46.719 2.863 2.896 10.198 8.648 11.516 13.763C71.369 164.985 48.613 158.099 44.483 143.565zM142.95 25.75c15.545 14.046 21.195 45.833 21.328 69.442C164.39 100.162 164.413 46.131 142.95 25.75zM154.875 82.765c3.342 20.038-2.521-42.627-24.576-58.441C143.508 35.305 152.316 67.792 154.875 82.765zM70.88 22.753c5.942-4.945-2.793 2-5.802 4.808C54.54 37.09 50.033 46.996 47.94 57.751 51.505 42.729 59.444 32.739 70.88 22.753zM84.705 24.485c2.822-2.594-13.942 8.265-22.912 41.27C68.529 45.157 77.302 31.847 84.705 24.485z" fill="#5c3d2e" stroke-width="none" opacity="1" stroke="none"/>
            <path id="SvgjsPath6875" d="M151.671 107.902c17.19 26.816 3.447 35.355 1.861 40.974C155.307 142.587 164.622 133.223 151.671 107.902zM163.42 128.026c0.103-1 3.263-9.188 0.12-24.545 -1.706-8.337-4.72-16.315-6.759-24.558C160.708 97.38 165.319 109.35 163.42 128.026zM40.778 139.904c0.025-1.461-5.489-18.724 2.449-40.017C31.997 123.286 40.828 137.053 40.778 139.904zM47.054 108.148c-0.2-0.831-0.822-1.722-1.174-2.497 -13.39-29.399-4.231-52.055 7.184-80.645C37.802 57.778 30.55 77.146 47.054 108.148zM76.707 21.78c0.036-0.038 3.867-3.963 3.917-3.95 -0.095-0.025-0.761 0.712-0.836 0.781C58.372 38.149 45.057 58.889 48.989 87.389 46.38 61.056 58.712 40.895 76.707 21.78zM99.998 17.774c-3.237 8.17-26.894 43.475-42.375 62.038C83.633 50.897 99.614 20.587 99.998 17.774zM82.755 80.445c-0.234 0.139-2.196 1.563-2.301 1.506 0.045 0.024 1.552-0.942 1.671-1.005 26.81-14.112 29.966-31.518 36.614-59.983C111.34 47.604 106.258 66.473 82.755 80.445zM155.396 106.15c-4.141-9.261-29.368-64.249-29.976-80.447C125.997 52.586 154.947 105.149 155.396 106.15zM148.657 74.301c0.361 1.587 0.849 3.182 1.121 4.785 -3.42-20.115-5.357-34.698-17.969-50.635C140.228 39.304 143.225 50.447 148.657 74.301zM136.445 21.347c0 0.068-0.079 0.248-0.18 0.171 16.048 12.281 24.425 58.902 24.777 59.902 -1.188-3.375 0.299-28.648-19.299-53.957 -1.58-2.04-3.319-4.493-5.468-5.976 0.061 0.017 0.187-0.063 0.143-0.136 0.066 0.106 0.143 0.201 0.221 0.3C136.731 21.704 136.445 21.53 136.445 21.347z" fill="#7a6155" stroke-width="none" opacity="1" stroke="none"/>
            <path id="SvgjsPath6876" d="M152.811 150.46c-5.664 16.369-6.497 17.491-6.497 17.491C145.881 168.951 149.452 157.542 152.811 150.46zM145.609 171.244c-0.081 0.287-0.612 2.203-0.539 1.967 1.925-5.472 3.814-6.661 5.754-14.988C148.631 165.023 148.427 163.099 145.609 171.244zM146.069 171.593c-3.171 4.709-3.991 7.679-3.865 7.369 0.093-0.278 0.782-1.668 1.515-2.844 1.649-2.668 3.643-4.701 5.109-9.896C148.427 167.289 147.835 169.096 146.069 171.593zM50.233 166.038c3.835 4.714-0.635 0.469-6.922-14.783C45.74 159.453 47.645 162.625 50.233 166.038zM55.452 171.15c-1.002-0.743-7.178-6.813-9.562-11.396C49.341 167.897 56.454 171.917 55.452 171.15zM52.553 170.327c10.604 9.982-2.789-2.537-3.953-4.89C48.6 165.438 48.617 166.515 52.553 170.327z" fill="#6b4e40" stroke-width="none" opacity="1" stroke="none"/>
            <path id="SvgjsPath6877" d="M167.879 61.476c-12.103-57.797-52.05-61.709-49.288-60.534C82.706-11.776 39.498 11.482 30.849 62.735c-2.427 14.398-3.457 40.922 0.152 51.061 2.023 5.684 3.274 8.689 5.778 15.28 7.917 21.966-0.744 33.347 24.319 52.629 3.111 2.404 5.166 5.576 6.57 9.28 0.011-0.021 0.206-1.185 0.21-1.21 3.034-17.218 1.952-26.859-14.556-37.602 4.582 2.664 10.785 1.913 14.707-2.328 -18.17 5.154-26.956-19.264-18.035-37.71 3.31 7.742 4.615 15.037 4.415 19.26 3.667-11.231 1.363-15.783-0.26-36.23 1.382-3.195 3.084-5.784 5.23-8.52 18.811-9.406 32.957-18.133 42.583-45.857 -2.319 7.76-3.984 15.355-10.583 25.527 -8.651 13.359-12.577 13.816-17.96 16.7 4.453 0 10.501-1.322 18.886-6.369 -1.375 1.17-2.601 2.299-5.326 4.209 13.693-8.82 23.971-21.423 29.379-42.638 -3.583 16.868-5.419 32.085-22.899 41.488 17.491-8.862 20.781-21.575 23.227-41.07 1.759 30.597 16.143 46.195 21.084 49.76 -6.279-10.305-9.001-34.624-11.224-50.274 2.413 14.985 1.465 10.331 5.243 24.954 6.901 26.356 15.578 41.213 20.585 51.722 2.062 14.443-4.134 27.799-17.385 30.438 3.135 1.249 6.225 1.409 8.729 0.8 -18.508 18.508-7.2 24.044-3.8 43.63 1.291-8.023 5.813-11.861 9.25-18.229 3.456-6.434 2.206-13.346 6.01-21.3C167.924 123.713 178.348 111.793 167.879 61.476zM136.719 145.355c10.184-1.965 18.639-15.794 17.193-27.181 3.127 7.31 3.785 12.573-0.413 18.921C149.909 143.246 143.775 147.014 136.719 145.355zM155.356 136.595L155.356 136.595c-0.008-0.008-0.009-0.01-0.027-0.01C155.316 136.585 155.341 136.58 155.356 136.595zM168.709 105.035c-2.086 29.331-15.352 38.543-17.63 54 -2.551 17.787-8.397 14.561-11.22 28.42 -3.092-17.286-11.779-25.501 4.99-41.729 7.597-2.349 15.125-11.563 12.619-23.141 -3.939-18.205-19.696-28.375-30.75-85.2 0.001 0.021 0.004 0.041 0.005 0.062 -0.188-0.892-0.424-1.969-0.574-2.721 -0.041-0.039-1.392-8.322 0.028 1.145 0.448 15.911 4.518 40.049 9.187 49.243 -14.321-18.218-17.941-38.157-18.659-46.634 0.132-1.054 0.262-2.123 0.391-3.217v0.001c0.594-4.784 1.755-12.568-0.516 1.36 -7.278 20.704-16.344 31.664-18.591 34.042 -7.751 8.047-19.589 11.732-22.89 12.03 19.078-8.456 25.617-31.208 28.85-51.12 -0.116 0.562-1.372 6.57-1.26 6.01 -5.817 15.457-13.401 33.887-42.791 48.39 21.149-26.064 32.342-46.549 37.38-60.3 -10.229 24.39-39.564 59.988-42.96 68.23 -1.051-33.877 10.756-57.804 22.45-68.31 -12.185 9.517-27.02 37.211-24.03 73.01 1.093 6.624 3.499 23.741 2.033 30.36 0.267-4.023-0.573-9.699-1.343-12.41v-0.011c-3.027-10.95-10.455-19.118-11.85-31.479 -1.26-11.15-0.79-22.64 4.16-32.88 -3.67 6.9-5.469 14.376-5.76 22.17 -0.845 22.599 5.915 24.877 9.065 36.278 -9.468 16.356-1.527 45.11 17.855 39.802 -11.657 9.495-21.668-7.561-23.435-10.817 -2.728-6.707-3.268-14.404-3.604-21.543 -0.12 51.119 33.988 27.358 27.697 71.093 -0.804-3.887-10.145-12.2-11.137-13.202 -15.067-15.233-11.885-24.441-17-41.98 -2.092-9.778-4.664-13.319-6.303-18.315 -6.389-20.335-2.216-50.915 4.113-69.265 12.133-28.275 31.378-46.868 62-47.87 7.224-0.239 22.339 2.489 13.6 1.26 4.341 0.897 6.861 1.884 10.97 3.44 50.765 19.143 45.277 99.834 44.92 101.77C168.719 105.005 168.709 105.015 168.709 105.035z" fill="#3d2012" stroke-width="none" opacity="1" stroke="none"/>
          </g>
          <g id="svga-group-glasses-single-move" transform="matrix(1,0,0,1,0,0)">
            <g id="svga-group-glasses-single" transform="matrix(1,0,0,1,0,0)">
              <path id="SvgjsPath6991" d="M142.29 97.41c-4.18 2.89-9.99 4.5-16.48 3.86 -10.05-0.98-16.01-7.51-18.24-13.28 -1.93-4.85-1.14-8.25 2.64-11.36 2.87-2.36 8.27-4.17 14.16-4.76C135.43 75.65 145.22 86.87 142.29 97.41zM67.01 71.94c-6.66 0.84-12.69 3.67-15.12 9.47 -4.22 10.71 7.21 21.33 22.29 19.86 4.2-0.41 7.68-1.8 10.48-3.69C87.73 87.06 78.04 75.82 67.01 71.94z" fill="#ffffff" stroke-width="none" opacity="0.2"/>
              <path id="SvgjsPath6992" d="M142.29 97.41c2.93-10.54-6.86-21.75-17.91-25.54 9.5-0.95 20.27 1.28 23.73 9.54C150.51 87.51 147.83 93.58 142.29 97.41zM89.78 76.62c-4.25-3.5-14.06-5.79-22.77-4.68 11.03 3.88 20.72 15.12 17.65 25.64 3.89-2.63 6.46-6.23 7.76-9.6C94.36 83.14 93.57 79.74 89.78 76.62z" fill="#ffffff" stroke-width="none" opacity="0.4"/>
              <path id="SvgjsPath6993" d="M153.71 83.76c-0.2-0.95-0.69-2.01-1.04-2.35 -0.7-0.7-2.57-1.14-3.87-1.19 -6.82-14.51-37.85-11.21-42.69-0.22 -3.34-1.97-8.87-1.98-12.23 0 -4.85-11-35.88-14.29-42.69 0.22 -1.3 0.05-3.17 0.49-3.87 1.19 -0.34 0.34-0.84 1.4-1.04 2.35 -0.13 0.63-0.6 1.16-0.44 1.53 0.44 1 1.33 0.38 1.71 0.13 0.29-0.1 1.55 0.06 2.36 0.69 0.08 9.47 10.7 17.59 24.38 16.25 13.97-1.36 21.1-13.38 20.15-20.44 1.91-1.42 9.19-1.43 11.11 0 -0.95 7.05 6.18 19.07 20.15 20.44 13.67 1.34 24.3-6.78 24.38-16.25 0.81-0.63 2.06-0.79 2.36-0.69 0.38 0.25 1.28 0.87 1.72-0.13C154.31 84.92 153.84 84.39 153.71 83.76zM50.03 84.34c-0.7-0.33-1.46-0.53-2.11-0.53 0.14-0.52 0.37-1.11 0.53-1.27 0.26-0.26 1.12-0.64 2.07-0.61C50.28 82.71 50.12 83.52 50.03 84.34zM91.98 87.81c-2.16 5.6-7.98 12.01-17.83 12.98 -14.85 1.45-25.84-8.92-21.8-19.2 0.1-0.24 0.15-0.35 0.22-0.54C58.11 68.82 82.13 70.96 89.48 77 92.8 79.73 93.99 82.75 91.98 87.81zM125.86 100.79c-9.85-0.96-15.68-7.38-17.84-12.98 -2.02-5.06-0.82-8.08 2.5-10.81 7.35-6.04 31.36-8.17 36.91 4.04 0.07 0.2 0.13 0.3 0.22 0.54C151.7 91.86 140.7 102.24 125.86 100.79zM149.97 84.34c-0.1-0.82-0.25-1.63-0.49-2.41 0.95-0.03 1.81 0.34 2.07 0.61 0.16 0.17 0.39 0.75 0.53 1.27C151.43 83.82 150.67 84.01 149.97 84.34z" fill="#210d34" stroke-width="none" opacity="1"/>
            </g>
          </g>
        </g>
      </g>
    </g>
    <rect id="SvgjsRect6688" width="200" height="15" x="0" y="185" fill="#ecf0f1" opacity="0.5" style="display: none;"/>
    <text id="SvgjsText6689" font-family="Roboto, Helvetica, Arial, sans-serif" font-size="10px" text-anchor="start" font-weight="400" anchor="start" fill="#333333" x="58.03125" y="182.4140625" style="display: none;">
      <tspan id="SvgjsTspan6690" dy="13" x="58.03125">Created on face.co</tspan>
    </text>
  </g>
</svg>
