<?xml version="1.0"?>
<svg xmlns="http://www.w3.org/2000/svg" version="1.1" width="600px" height="600px" viewBox="0 0 200 200" style="overflow:hidden!important;">
  <defs id="SvgjsDefs8572">
    <radialGradient id="SvgjsRadialGradient8633" cx="100" cy="113" r="40" gradientUnits="userSpaceOnUse" class="svga-on-canvas-facehighlight-gradient-single-0">
      <stop id="SvgjsStop8634" stop-opacity="0.5" stop-color="#fdc5a5" offset="0"/>
      <stop id="SvgjsStop8635" stop-opacity="0" stop-color="#eeaa83" offset="0.9"/>
    </radialGradient>
    <radialGradient id="SvgjsRadialGradient8637" cx="100" cy="57" r="36" gradientUnits="userSpaceOnUse" class="svga-on-canvas-facehighlight-gradient-single-1">
      <stop id="SvgjsStop8638" stop-opacity="0.5" stop-color="#fdc5a5" offset="0"/>
      <stop id="SvgjsStop8639" stop-opacity="0" stop-color="#eeaa83" offset="0.9"/>
    </radialGradient>
    <radialGradient id="SvgjsRadialGradient8718" cx="-558.588" cy="-490.918" r="84.646" gradientTransform="matrix(0.096 -0.0248 0.0245 0.0961 140.5478 120.3577)" gradientUnits="userSpaceOnUse" class="svga-on-canvas-eyesiris-gradient-left-1">
      <stop id="SvgjsStop8719" stop-opacity="0.8" stop-color="#ffffff" offset="0"/>
      <stop id="SvgjsStop8720" stop-opacity="0" stop-color="#ffffff" offset="1"/>
    </radialGradient>
    <radialGradient id="SvgjsRadialGradient8722" cx="-565.337" cy="-492.691" r="84.644" gradientTransform="matrix(0.0991 8.856325e-004 -0.0011 0.0991 130.3774 136.3533)" gradientUnits="userSpaceOnUse" class="svga-on-canvas-eyesiris-gradient-left-2">
      <stop id="SvgjsStop8723" stop-opacity="0.8" stop-color="#ffffff" offset="0"/>
      <stop id="SvgjsStop8724" stop-opacity="0" stop-color="#ffffff" offset="1"/>
    </radialGradient>
    <linearGradient id="SvgjsLinearGradient8728" x1="122.283" y1="93.047" x2="123.61" y2="91.466" gradientTransform="matrix(1 0 0 1 -52 0)" gradientUnits="userSpaceOnUse" class="svga-on-canvas-eyesiris-gradient-left-5">
      <stop id="SvgjsStop8729" stop-opacity="1" stop-color="#ffffff" offset="0"/>
      <stop id="SvgjsStop8730" stop-opacity="0" stop-color="#ffffff" offset="1"/>
    </linearGradient>
    <linearGradient id="SvgjsLinearGradient8732" x1="127" y1="85" x2="125" y2="87" gradientTransform="matrix(1 0 0 1 -50 0)" gradientUnits="userSpaceOnUse" class="svga-on-canvas-eyesiris-gradient-left-6">
      <stop id="SvgjsStop8733" stop-opacity="1" stop-color="#ffffff" offset="0"/>
      <stop id="SvgjsStop8734" stop-opacity="0" stop-color="#ffffff" offset="1"/>
    </linearGradient>
    <linearGradient id="SvgjsLinearGradient8736" x1="130" y1="81" x2="126" y2="85" gradientTransform="matrix(1 0 0 1 -50 0)" gradientUnits="userSpaceOnUse" class="svga-on-canvas-eyesiris-gradient-left-7">
      <stop id="SvgjsStop8737" stop-opacity="1" stop-color="#ffffff" offset="0"/>
      <stop id="SvgjsStop8738" stop-opacity="0" stop-color="#ffffff" offset="1"/>
    </linearGradient>
    <radialGradient id="SvgjsRadialGradient8741" cx="-578.76" cy="-490.73" r="84.646" gradientTransform="matrix(0.096 -0.0248 0.0245 0.0961 192.4794 119.8404)" gradientUnits="userSpaceOnUse" class="svga-on-canvas-eyesiris-gradient-right-1">
      <stop id="SvgjsStop8742" stop-opacity="0.8" stop-color="#ffffff" offset="0"/>
      <stop id="SvgjsStop8743" stop-opacity="0" stop-color="#ffffff" offset="1"/>
    </radialGradient>
    <radialGradient id="SvgjsRadialGradient8745" cx="-584.778" cy="-487.329" r="84.644" gradientTransform="matrix(0.0991 8.856325e-004 -0.0011 0.0991 182.3104 135.839)" gradientUnits="userSpaceOnUse" class="svga-on-canvas-eyesiris-gradient-right-2">
      <stop id="SvgjsStop8746" stop-opacity="0.8" stop-color="#ffffff" offset="0"/>
      <stop id="SvgjsStop8747" stop-opacity="0" stop-color="#ffffff" offset="1"/>
    </radialGradient>
    <linearGradient id="SvgjsLinearGradient8751" x1="120.284" y1="93.047" x2="121.611" y2="91.467" gradientUnits="userSpaceOnUse" class="svga-on-canvas-eyesiris-gradient-right-5">
      <stop id="SvgjsStop8752" stop-opacity="1" stop-color="#ffffff" offset="0"/>
      <stop id="SvgjsStop8753" stop-opacity="0" stop-color="#ffffff" offset="1"/>
    </linearGradient>
    <linearGradient id="SvgjsLinearGradient8755" x1="127" y1="85" x2="125" y2="87" gradientUnits="userSpaceOnUse" class="svga-on-canvas-eyesiris-gradient-right-6">
      <stop id="SvgjsStop8756" stop-opacity="1" stop-color="#ffffff" offset="0"/>
      <stop id="SvgjsStop8757" stop-opacity="0" stop-color="#ffffff" offset="1"/>
    </linearGradient>
    <linearGradient id="SvgjsLinearGradient8759" x1="130" y1="81" x2="126" y2="85" gradientUnits="userSpaceOnUse" class="svga-on-canvas-eyesiris-gradient-right-7">
      <stop id="SvgjsStop8760" stop-opacity="1" stop-color="#ffffff" offset="0"/>
      <stop id="SvgjsStop8761" stop-opacity="0" stop-color="#ffffff" offset="1"/>
    </linearGradient>
    <radialGradient id="SvgjsRadialGradient8826" cx="124.93" cy="86.966" r="13.199" gradientTransform="matrix(-1.0172 0 0 1.0172 202.565 -1.469)" gradientUnits="userSpaceOnUse" class="svga-on-canvas-eyesback-gradient-left-0">
      <stop id="SvgjsStop8827" stop-opacity="1" stop-color="#ffffff" offset="0"/>
      <stop id="SvgjsStop8828" stop-opacity="1" stop-color="#fdfefe" offset="0.544"/>
      <stop id="SvgjsStop8829" stop-opacity="1" stop-color="#f6f8f9" offset="0.74"/>
      <stop id="SvgjsStop8830" stop-opacity="1" stop-color="#eaeff2" offset="0.879"/>
      <stop id="SvgjsStop8831" stop-opacity="1" stop-color="#d9e3e8" offset="0.992"/>
      <stop id="SvgjsStop8832" stop-opacity="1" stop-color="#d8e2e7" offset="1"/>
    </radialGradient>
    <radialGradient id="SvgjsRadialGradient8834" cx="124.93" cy="86.966" r="13.199" gradientTransform="matrix(1.0172 0 0 1.0172 -2.565 -1.469)" gradientUnits="userSpaceOnUse" class="svga-on-canvas-eyesback-gradient-right-0">
      <stop id="SvgjsStop8835" stop-opacity="1" stop-color="#ffffff" offset="0"/>
      <stop id="SvgjsStop8836" stop-opacity="1" stop-color="#fdfefe" offset="0.544"/>
      <stop id="SvgjsStop8837" stop-opacity="1" stop-color="#f6f8f9" offset="0.74"/>
      <stop id="SvgjsStop8838" stop-opacity="1" stop-color="#eaeff2" offset="0.879"/>
      <stop id="SvgjsStop8839" stop-opacity="1" stop-color="#d9e3e8" offset="0.992"/>
      <stop id="SvgjsStop8840" stop-opacity="1" stop-color="#d8e2e7" offset="1"/>
    </radialGradient>
    <radialGradient id="SvgjsRadialGradient8842" cx="124.93" cy="86.966" r="13.199" gradientTransform="matrix(-1.0172 0 0 1.0172 202.565 -1.469)" gradientUnits="userSpaceOnUse" class="svga-on-canvas-eyesfront-gradient-left-0">
      <stop id="SvgjsStop8843" stop-opacity="1" stop-color="#ffffff" offset="0"/>
      <stop id="SvgjsStop8844" stop-opacity="1" stop-color="#fdfefe" offset="0.544"/>
      <stop id="SvgjsStop8845" stop-opacity="1" stop-color="#f6f8f9" offset="0.74"/>
      <stop id="SvgjsStop8846" stop-opacity="1" stop-color="#eaeff2" offset="0.879"/>
      <stop id="SvgjsStop8847" stop-opacity="1" stop-color="#d9e3e8" offset="0.992"/>
      <stop id="SvgjsStop8848" stop-opacity="1" stop-color="#d8e2e7" offset="1"/>
    </radialGradient>
    <radialGradient id="SvgjsRadialGradient8852" cx="122.469" cy="85.751" fx="134.713" fy="85.785" r="17.414" gradientTransform="matrix(0.9998 0.0208 0.0166 -0.7998 -46.3384 151.7877)" gradientUnits="userSpaceOnUse" class="svga-on-canvas-eyesfront-gradient-left-3">
      <stop id="SvgjsStop8853" stop-opacity="1" stop-color="#df9164" offset="0"/>
      <stop id="SvgjsStop8854" stop-opacity="0.3" stop-color="#df9164" offset="0.7"/>
      <stop id="SvgjsStop8855" stop-opacity="0" stop-color="#eeaa83" offset="1"/>
    </radialGradient>
    <radialGradient id="SvgjsRadialGradient8857" cx="71.413" cy="110.215" r="30.925" gradientTransform="matrix(0.875 -0.0456 0.0459 0.8698 2.9059 16.5931)" gradientUnits="userSpaceOnUse" class="svga-on-canvas-eyesfront-gradient-left-4">
      <stop id="SvgjsStop8858" stop-opacity="0" stop-color="#000000" offset="0.95"/>
      <stop id="SvgjsStop8859" stop-opacity="0.3" stop-color="#000000" offset="1"/>
    </radialGradient>
    <radialGradient id="SvgjsRadialGradient8863" cx="124.93" cy="86.966" r="13.199" gradientTransform="matrix(1.0172 0 0 1.0172 -2.565 -1.469)" gradientUnits="userSpaceOnUse" class="svga-on-canvas-eyesfront-gradient-right-0">
      <stop id="SvgjsStop8864" stop-opacity="1" stop-color="#ffffff" offset="0"/>
      <stop id="SvgjsStop8865" stop-opacity="1" stop-color="#fdfefe" offset="0.544"/>
      <stop id="SvgjsStop8866" stop-opacity="1" stop-color="#f6f8f9" offset="0.74"/>
      <stop id="SvgjsStop8867" stop-opacity="1" stop-color="#eaeff2" offset="0.879"/>
      <stop id="SvgjsStop8868" stop-opacity="1" stop-color="#d9e3e8" offset="0.992"/>
      <stop id="SvgjsStop8869" stop-opacity="1" stop-color="#d8e2e7" offset="1"/>
    </radialGradient>
    <radialGradient id="SvgjsRadialGradient8873" cx="122.469" cy="85.751" fx="134.713" fy="85.785" r="17.414" gradientTransform="matrix(-0.9998 0.0208 -0.0166 -0.7998 246.3384 151.7877)" gradientUnits="userSpaceOnUse" class="svga-on-canvas-eyesfront-gradient-right-3">
      <stop id="SvgjsStop8874" stop-opacity="1" stop-color="#df9164" offset="0"/>
      <stop id="SvgjsStop8875" stop-opacity="0.3" stop-color="#df9164" offset="0.7"/>
      <stop id="SvgjsStop8876" stop-opacity="0" stop-color="#eeaa83" offset="1"/>
    </radialGradient>
    <radialGradient id="SvgjsRadialGradient8878" cx="71.413" cy="110.215" r="30.925" gradientTransform="matrix(-0.875 -0.0456 -0.0459 0.8698 197.0941 16.5931)" gradientUnits="userSpaceOnUse" class="svga-on-canvas-eyesfront-gradient-right-4">
      <stop id="SvgjsStop8879" stop-opacity="0" stop-color="#000000" offset="0.95"/>
      <stop id="SvgjsStop8880" stop-opacity="0.3" stop-color="#000000" offset="1"/>
    </radialGradient>
    <linearGradient id="SvgjsLinearGradient8925" x1="100" y1="141" x2="100" y2="138" gradientUnits="userSpaceOnUse" class="svga-on-canvas-mouth-gradient-single-0">
      <stop id="SvgjsStop8926" stop-opacity="1" stop-color="#e69d73" offset="0.1"/>
      <stop id="SvgjsStop8927" stop-opacity="1" stop-color="#df9164" offset="1"/>
    </linearGradient>
    <linearGradient id="SvgjsLinearGradient8946" x1="99.98" y1="171.27" x2="99.98" y2="136.351" gradientUnits="userSpaceOnUse" class="svga-on-canvas-chinshadow-gradient-single-0">
      <stop id="SvgjsStop8947" stop-opacity="0.8" stop-color="#df9164" offset="0"/>
      <stop id="SvgjsStop8948" stop-opacity="1" stop-color="#c06530" offset="0.7"/>
    </linearGradient>
  </defs>
  <g id="svga-group-wrapper">
    <g id="svga-group-backs-single">
      <path id="SvgjsPath8941" d="M225 225H-25V-25h250V225z" fill="#f9f2e7" stroke-width="none" opacity="1" stroke="none"/>
    </g>
    <g id="svga-group-humanwrap-move" transform="matrix(1,0,0,1,0,0)">
      <g id="svga-group-humanwrap" transform="matrix(1,0,0,1,0,0)">
        <g id="svga-group-hair-back-move" transform="matrix(1,0,0,1,0,0)">
          <g id="svga-group-hair-back" transform="matrix(1,0,0,1,0,0)">
            <path id="SvgjsPath8799" d="M156.79,87.186c1.245-4.645,2.08-9.934,2.312-14.214h11.529c1.834,3.925,2.658,6.08,3.9,7.933c-1.84-0.72-3.965-1.467-7.809-4.972c0.318,0.854,4.324,12.487,4.587,14.493c-3.391-2.793-4.635-5.812-6.713-8.063c1.206,8.371,1.873,12.796-2.654,23.504C159.181,90.365,157.449,87.622,156.79,87.186zM34.506,74.599c-0.217,8.956-2.898,15.556-12.347,23.446c2.96-0.94,5.61-2.43,10.271-5.06c0.8-2.13,1.51-4.561,1.79-6.8c-0.82,7.9-5.598,13.347-1.274,22.677c0.606-7.783,3.254-13.309,10.093-17.755c-0.216,0.149-0.716,0.513-1.372,1.089c0.747-0.612,1.527-1.188,2.333-1.728c-1.567-4.835-2.861-12.029-2.909-15.869H34.506z M33.478,81.232c-1.485-1.845-2.84-4.664-3.422-6.633h4.441C34.344,75.986,34.038,79.067,33.478,81.232z" fill="#000000" stroke-width="none" opacity="1" stroke="none"/>
            <path id="SvgjsPath8800" d="M173.749,80.275c-1.258-1.878-2.29-4.05-3.289-6.204h1.082c1.02,2.248,2.179,5.013,3.497,7.194c-3.51-1.04-5.28-2.09-7.91-4.72c3.17,7.87,3.66,11.71,5.19,14.94c-4.49-2.72-5.15-6.06-7.49-8.73c1.51,7.79,2.98,13.92-3.43,25.09c0-6.07-1.29-13.851-3.55-19.8c3.289,3.15,3.819,13.52,4.079,17.08c1.011-2.39,1.851-4.84,2.511-7.37c1.75-6.68,0.18-12.78-0.15-15.8c1.913,1.238,4.051,5.872,6.9,8.22c-1.801-4.38-2-6.61-5.399-15.54C168.6,77.325,171.119,79.245,173.749,80.275z M32.749,108.115c-3.38-8.12,0.65-14.03,1.47-21.93c-0.28,2.24-1.09,4.37-1.89,6.5c-4.66,2.63-6.61,4.12-9.57,5.06c9.449-7.89,11.529-13.99,11.747-22.946h-0.108c-0.153,1.387-0.459,3.801-1.019,5.966c-1.485-1.845-2.559-4.216-3.141-6.185l-1.204,0.011c0.695,2.252,2.058,4.925,4.075,7.094c-1.63,6.99-6.84,12.3-12.02,16.88c3.33-0.1,7.88-2.78,10.79-4.66c-2.09,5.7-2.23,10.66,1.77,17.57c-0.246-10.686,5.281-16.878,8.017-19.28c0.656-0.576,1.156-0.94,1.372-1.089C36.199,95.554,33.355,100.333,32.749,108.115z" fill="#000000" stroke-width="none" opacity="1" stroke="none"/>
          </g>
        </g>
        <g id="svga-group-humanbody-single">
          <path id="SvgjsPath8640" d="M190.858 199.866c-6.008-10.158-13.474-11.973-19.628-13.936 -6.323-2.016-19.346-3.178-26.449-4.6 -6.86-1.373-23.153-5.789-23.339-13.488 -0.192-8.066 4.291-40.09 4.291-40.09H74.005c0 0 4.487 32.023 4.294 40.09 -0.184 7.699-16.48 12.115-23.341 13.488 -7.104 1.422-20.125 2.584-26.448 4.6 -6.156 1.963-13.624 3.777-19.632 13.936 -3.644 6.16-6.008 16.133-6.008 27.133h194C196.869 215.999 194.509 206.026 190.858 199.866z" fill="#eeaa83" stroke-width="none" opacity="1" stroke="none"/>
          <path id="SvgjsPath8641" d="M121.442 167.843c2.495 10.929 18.165 13.698 26.293 15.325 21.909 4.379 33.772 5.134 42.297 19.539 2.903 4.916 5.459 15.864 5.962 24.153 1.835 0.291 0.531-17.432-5.136-26.994 -9.742-16.472-29.089-15.135-46.077-18.535C137.921 179.958 121.628 175.542 121.442 167.843L121.442 167.843zM78.558 167.843c-0.186 7.699-16.479 12.115-23.339 13.488 -16.988 3.4-36.335 2.063-46.077 18.535 -5.667 9.563-6.971 27.285-5.136 26.994 0.503-8.289 3.059-19.237 5.962-24.153 8.524-14.405 20.388-15.16 42.297-19.539C60.393 181.541 76.063 178.771 78.558 167.843L78.558 167.843z" fill="#fdc5a5" stroke-width="none" opacity="1" stroke="none"/>
          <path id="SvgjsPath8642" d="M51.206 189.513c0 0 28.641 0.299 33.473 1.885 2.314 0.758 8.372 5.633 8.372 5.633s-6.556-3.17-8.658-3.758C79.51 191.909 51.206 189.513 51.206 189.513zM99.795 199.999c2.053-0.041 7.887-3.799 7.887-3.799s-5.574 2.059-7.342 2.16c-1.491 0.086-6.366-1.238-6.366-1.238S98.112 200.032 99.795 199.999zM117.008 192.757c6.75-1.818 29.786-3.23 29.786-3.23s-23.791-0.516-30.51 1.725c-2.252 0.752-7.562 5.16-7.562 5.16S114.786 193.354 117.008 192.757z" fill="#df9164" stroke-width="none" opacity="1" stroke="none"/>
          <path id="SvgjsPath8643" d="M190.858 199.866c-9.741-16.471-29.122-15.142-46.077-18.535 -6.86-1.373-23.153-5.789-23.339-13.488 -0.192-8.066 4.291-40.09 4.291-40.09H74.005c0 0 4.487 32.023 4.294 40.09 -0.184 7.699-16.48 12.115-23.341 13.488 -7.104 1.422-20.125 2.584-26.448 4.6 -6.156 1.963-13.624 3.777-19.632 13.936 -3.644 6.16-6.008 16.133-6.008 27.133h194C196.869 215.999 194.509 206.026 190.858 199.866z" fill="none" stroke="#c06530" stroke-width="1.5" opacity="1"/>
        </g>
        <g id="svga-group-chinshadow-single">
          <path id="SvgjsPath8945" d="M100.045 171.737c5.593-0.009 13.488-3.608 20.908-8.44 0.448-6.688 1.717-17.243 2.734-25.146 -13.955-1.813-33.739-1.771-47.623 0.105 1.008 7.831 2.258 18.226 2.713 24.89C86.31 168.063 94.37 171.746 100.045 171.737z" fill="url(#SvgjsLinearGradient8946)" opacity="1"/>
        </g>
        <g id="svga-group-clothes-single">
          <path id="SvgjsPath8920" d="M93.589 228.292c-8.632 0-18.516-0.143-30.217-0.437 -5.24-0.133-10.38-0.197-15.713-0.197 -8.082 0-15.041 0.146-21.771 0.288 -5.62 0.118-10.929 0.229-16.081 0.229 -4.201 0-7.974-0.075-11.533-0.23l-0.612-0.026 -0.023-0.281c-0.55-6.277-0.329-11.201 0.657-14.635 2.739-9.57 11.779-22.221 13.349-22.804 17.165-5.583 22.101-5.852 26.671-6.81 1.788-0.086 3.637-0.176 6.081-0.586 1.753-0.305 3.492-1.017 5.174-1.705 2.067-0.846 4.019-1.645 5.835-1.645 0.592 0 1.129 0.084 1.643 0.256 0.212 0.077 0.427 0.165 0.632 0.282l-0.024 0.12 0.026 0.198c0.479 4.203 0.973 7.772 1.408 10.921l0.011 0.079 0.081 0.015c11.784 1.007 26.305 2.259 40.89 2.259 14.972 0 29.065-1.255 40.758-2.309l0.079-0.007 0.011-0.079c0.422-3.005 0.913-6.566 1.4-10.813l0.061-0.52c0.146-0.037 0.349-0.126 0.57-0.196 0.488-0.163 0.997-0.242 1.557-0.242 1.702 0 3.576 0.752 5.561 1.547 1.637 0.656 3.33 1.336 5.133 1.697 1.221 0.247 2.486 0.299 3.71 0.349 0.322 0.014 0.645 0.026 0.965 0.043 11.05 1.62 12.476 1.811 27.626 6.813 0.092 0.038 0.205 0.077 0.328 0.119 0.38 0.13 0.9 0.308 1.043 0.567 1.617 2.864 3.238 5.418 4.806 7.889 5.13 8.081 9.56 15.062 10.143 27.528 0.008 0.11 0.015 0.203 0.019 0.295h-0.778c-40.024 0.014-59.705 0.721-75.52 1.289C116.521 227.95 107.005 228.292 93.589 228.292z" fill="#4b2824" stroke-width="none" opacity="1" stroke="none"/>
          <path id="SvgjsPath8921" d="M203.838 226.266c-0.296 0-0.61 0-0.906 0.001 -3.369-15.058-15.396-31.068-18.229-32.479 -9.956-4.956-30.352-7.399-40.493-11.396 -0.742 12.815-3.105 19.729-4.671 34.673 -1.357-7.705 2.116-31.016 2.697-35.99 0.027-0.233 0.143-1.218 0.143-1.218 1.688-0.431 2.109-1.127 7.688 1.108 4.488 1.8 5.622 1.925 8.843 2.046 13.716 0.514 15.933 3.408 28.591 6.855 2.022 0.551 0.082-1.032 6.177 8.575C198.883 206.643 203.301 213.636 203.838 226.266zM-3.838 226.266c0.296 0 0.61 0 0.906 0.001 3.369-15.058 15.396-31.068 18.229-32.479 9.956-4.956 30.256-7.399 40.397-11.396 0.742 12.815 3.201 19.729 4.767 34.673 1.357-7.705-2.116-31.016-2.697-35.99 -0.027-0.233-0.143-1.218-0.143-1.218 -1.688-0.431-2.109-1.127-7.688 1.108 -4.488 1.8-5.622 1.915-8.843 2.046 -11.774 1.875-13.637 2.176-28.591 6.855 -1.936 0.804-0.082-1.032-6.177 8.575C1.117 206.643-3.301 213.636-3.838 226.266z" fill="#5a3834" stroke-width="none" opacity="1" stroke="none"/>
          <path id="SvgjsPath8922" d="M100.071 195.291c-14.397 0-28.77-0.943-40.47-1.926 -0.103-1.298 0.002 0.355-0.45-1.647l0.131 0.019c12.446 1.671 26.582 2.555 40.878 2.555 0.001 0 0.003 0 0.004 0 14.571 0 28.595-0.894 40.561-2.584l0.132-0.02 -0.02 0.133c-0.122 0.829-0.229 1.131-0.329 1.91C128.269 194.738 101.071 195.291 100.071 195.291zM140.105 197.306c0.098-0.799 0.199-1.606 0.313-2.437l0.019-0.131 -0.131 0.019c-11.884 1.659-25.772 2.536-40.166 2.536 -14.12 0-28.104-0.866-40.438-2.507l-0.13-0.017 0.018 0.13c0.104 0.76 0.199 1.503 0.289 2.238C86.621 199.086 108.168 200.16 140.105 197.306z" fill="#3c1a17" stroke-width="none" opacity="1" stroke="none"/>
          <path id="SvgjsPath8923" d="M203.919 225.966c-0.76-16.261-7.99-23.11-14.96-35.461 -0.21-0.38-1.019-0.603-1.42-0.729 -12.39-3.909-15.91-6.21-27.66-6.82 -1.55-0.08-3.13-0.08-4.66-0.39 -4.729-0.95-8.85-4.15-12.3-3 -0.22 0.07-0.43 0.16-0.64 0.28 -0.021 0.18-0.04 0.35-0.061 0.52 -0.479 4.18-0.96 7.68-1.399 10.811 -24.459 2.949-57.911 2.638-81.63 0.05 -0.44-3.181-0.93-6.721-1.41-10.931 -0.02-0.13-0.03-0.26-0.05-0.39 -0.21-0.12-0.43-0.21-0.65-0.29 -3.7-1.24-8.16 1.901-12.7 2.691 -8.426 1.466-8.81-0.086-32.77 7.799 -1.67 0.62-10.74 13.54-13.41 22.87 -1.16 4.04-1.11 9.54-0.66 14.67 0.01 0.13 0.02 0.25 0.03 0.37 0.24 0.01 0.47 0.02 0.7 0.029 18.55 0.811 35.87-0.829 65.1-0.09 62.13 1.561 54.81-1.56 139.69-1.59 0.29 0 0.59 0 0.88 0C203.939 226.226 203.929 226.096 203.919 225.966zM140.739 191.806c-0.12 0.83-0.23 1.63-0.33 2.41 -26.396 2.747-55.546 2.747-80.8 0.05 -0.11-0.79-0.22-1.601-0.34-2.431C86.149 195.445 117.819 195.045 140.739 191.806zM139.839 198.695c-23.66 2.05-55.979 1.99-79.67 0.04 -0.14-1.25-0.3-2.53-0.48-3.85 26.63 3.54 57.86 3.149 80.63-0.03C140.139 196.176 139.979 197.455 139.839 198.695zM172.77 225.335c-6.54 0.07-13.091 0.131-19.631 0.21 -14.439 0.171-40.329 1.511-49.81 1.521 -43.15 0.09-33.54-0.41-52.82-0.49 -19.22-0.04-34.91 1.53-52.25 1.09 -0.1-7.37 0.5-12.37 2.95-17.479 3.34-6.91 6.22-12.351 11.11-18.22 0.14-0.16 0.4-0.2 0.59-0.271 5.14-1.9 11.21-4.22 17.85-5.69 8.16-1.81 12.65-1.109 17.87-3.46 3.45-1.55 6.08-3.189 8.45-2.51 0.06 4.23 0.32 7.69 0.68 11.07 0.02 0.18 0.04 0.35 0.06 0.53 0.09 0.83 0.19 1.659 0.3 2.5 0.02 0.189 0.04 0.369 0.06 0.55 0.16 1.28 0.33 2.569 0.5 3.93 0.03 0.19 0.06 0.38 0.08 0.58 0.6 4.72 1.24 10.19 1.7 17.87 0.57-7.17 0.36-12.3-0.21-17.67 26.29 3.42 56.96 3.05 79.521-0.03 -0.601 5.4-0.801 10.49-0.23 17.7 0.46-7.55 1.12-13.061 1.73-17.91 0.02-0.2 0.05-0.4 0.069-0.59 0.17-1.35 0.34-2.64 0.5-3.92 0.021-0.19 0.04-0.38 0.061-0.57 0.1-0.83 0.2-1.66 0.279-2.49 0.03-0.18 0.051-0.359 0.061-0.54 0.36-3.369 0.62-6.84 0.67-10.96 3.87-1.17 8.32 3.391 14.25 4.021 5.85 0.63 11.84 1.457 17.47 3.308 4.15 1.359 11.21 3.362 12.891 4.372 0.34 0.21 0.77 1.49 0.96 1.891 4.87 9.71 12.439 15.149 14.52 32.26C178.06 225.315 177.529 225.285 172.77 225.335z" fill="#1d0805" stroke-width="none" opacity="1" stroke="none"/>
        </g>
        <g id="svga-group-head" transform="matrix(1,0,0,1,0,0)">
          <g id="svga-group-ears-left-move" transform="matrix(1,0,0,1,0,0)">
            <g id="svga-group-ears-left" transform="matrix(1,0,0,1,0,0)">
              <path id="SvgjsPath8915" d="M47.218 82.634c-0.967-2.31-8.082-5.576-11.21-5.06 -3.538 0.583-4.838 4.047-4.369 6.612 1.103 6.025 3.996 8.563 5.296 13.268 1.096 3.97 3.433 6.253 4.588 7.938 1.42 2.07 2.73 6.818 3.023 7.512 0.463 1.096 2.103 3.757 5.002 3.619 3.333-0.16 7.545-6.211 7.614-7.557C57.544 101.679 49.733 88.647 47.218 82.634z" fill="#eeaa83" stroke="#c06530" stroke-width="1.5" opacity="1"/>
              <path id="SvgjsPath8916" d="M47.953 107.204c0 0 0.429-0.995-0.094-1.879 -0.672-1.134-2.423-3.219-2.821-4.467 -0.325-1.021-0.16-3.2-0.213-4.266 -0.094-1.886-1.492-3.177-1.927-4.26 -2.914-7.238-6.792-11.723-9-12.656 -1.633 3.705-0.339 6.416 1.94 12.116 -1.375-7.748-0.054-10.17-0.054-10.17S39.803 84.842 41.786 92c0.359 1.292-1.111 3.988-0.83 5.299 0.352 1.646 4.184 4.83 5.257 6.163C47.049 104.5 47.953 107.204 47.953 107.204z" fill="#c06530" stroke-width="none" opacity="1" stroke="none"/>
            </g>
          </g>
          <g id="svga-group-ears-right-move" transform="matrix(1,0,0,1,0,0)">
            <g id="svga-group-ears-right" transform="matrix(1,0,0,1,0,0)">
              <path id="SvgjsPath8917" d="M152.52 82.634c0.967-2.31 8.082-5.576 11.211-5.06 3.539 0.583 4.838 4.047 4.369 6.612 -1.104 6.025-3.996 8.563-5.297 13.268 -1.096 3.97-3.434 6.253-4.588 7.938 -1.42 2.07-2.73 6.818-3.023 7.512 -0.463 1.096-2.104 3.757-5.002 3.619 -3.332-0.16-7.545-6.211-7.613-7.557C142.193 101.679 150.006 88.647 152.52 82.634z" fill="#eeaa83" stroke="#c06530" stroke-width="1.5" opacity="1"/>
              <path id="SvgjsPath8918" d="M151.785 107.204c0 0-0.43-0.995 0.094-1.879 0.672-1.134 2.424-3.219 2.82-4.467 0.324-1.021 0.16-3.2 0.215-4.266 0.094-1.886 1.49-3.177 1.926-4.26 2.914-7.238 6.793-11.723 9-12.656 1.633 3.705 0.338 6.416-1.939 12.116 1.375-7.748 0.053-10.17 0.053-10.17s-4.018 3.219-6.002 10.376c-0.357 1.292 1.111 3.988 0.83 5.299 -0.352 1.646-4.184 4.83-5.256 6.163C152.689 104.5 151.785 107.204 151.785 107.204z" fill="#c06530" stroke-width="none" opacity="1" stroke="none"/>
            </g>
          </g>
          <g id="svga-group-faceshape-wrap" transform="matrix(1,0,0,1,0,0)">
            <g id="svga-group-faceshape-single">
              <path id="SvgjsPath8942" d="M158.918 76.762l-0.005 0c-0.012 0.053-9.983 40.707-18.186 53.285 -6.452 9.894-28.899 29.205-40.573 29.223 -11.671 0.02-34.17-19.225-40.652-29.1C51.261 117.618 41.15 77 41.138 76.946h-0.001c-1.298-4.911-1.994-10.066-2.002-15.382C39.082 28.09 66.289 0.919 99.907 0.867c33.621-0.052 60.913 27.033 60.963 60.507C160.879 66.69 160.201 71.846 158.918 76.762z" fill="#eeaa83" stroke-width="none" opacity="1"/>
              <path id="SvgjsPath8943" d="M125.898 6.622c19.104 10.248 32.075 30.355 32.039 53.476 -0.009 5.316-0.704 10.471-2.003 15.382h-0.001c-0.012 0.053-10.123 40.672-18.365 53.224 -5.946 9.061-25.288 28.788-37.566 28.788 -12.279 0-31.619-19.728-37.566-28.788 -8.241-12.552-18.353-53.17-18.364-53.224H44.07c-1.298-4.911-1.994-10.066-2.002-15.382C42.031 36.977 55.003 16.87 74.105 6.622 53.411 16.324 39.096 37.28 39.134 61.564c0.008 5.316 0.704 10.471 2.002 15.382h0.001C41.15 77 51.261 117.618 59.503 130.17c4.416 6.728 16.656 19.762 27.233 25.049 -0.529-0.226-1.062-0.466-1.599-0.717 5.408 2.875 10.664 4.763 14.713 4.768 0.049 0 0.103-0.005 0.152-0.005s0.103 0.005 0.152 0.005c4.048-0.005 9.304-1.893 14.713-4.768 -0.538 0.253-1.071 0.491-1.601 0.718 10.577-5.287 22.818-18.322 27.234-25.05 8.242-12.552 18.354-53.17 18.364-53.224h0.002c1.298-4.911 1.994-10.066 2.002-15.382C160.908 37.28 146.595 16.324 125.898 6.622z" fill="#e69d73" stroke-width="none" opacity="1"/>
              <path id="SvgjsPath8944" d="M158.918 76.762l-0.005 0c-0.012 0.053-9.983 40.707-18.186 53.285 -6.452 9.894-28.899 29.205-40.573 29.223 -11.671 0.02-34.17-19.225-40.652-29.1C51.261 117.618 41.15 77 41.138 76.946h-0.001c-1.298-4.911-1.994-10.066-2.002-15.382C39.082 28.09 66.289 0.919 99.907 0.867c33.621-0.052 60.913 27.033 60.963 60.507C160.879 66.69 160.201 71.846 158.918 76.762z" fill="none" stroke="#c06530" stroke-width="1.5" opacity="1"/>
            </g>
          </g>
          <g id="svga-group-mouth-single-move" transform="matrix(1,0,0,1,0,0)">
            <g id="svga-group-mouth-single" transform="matrix(1,0,0,1,0,0)">
              <path id="SvgjsPath8924" d="M100.002 141.248c-4.158 0-5.133-3.404-5.133-3.404 5.5 2.12 10.267-0.146 10.267-0.146S103.659 141.248 100.002 141.248z" fill="url(#SvgjsLinearGradient8925)" opacity="1"/>
              <path id="SvgjsPath8928" d="M86.803 131.94c2.756-0.951 6.973-2.692 9.166-2.789 1.133-0.052 2.351 0.87 3.574 1.165 0.851 0.206 3.264-1.156 4.13-1.165 2.272-0.024 7.06 1.838 9.502 2.789 0.135 0.054 0 0 0 0s-5.789 6.953-13.185 6.953C91.618 138.894 86.803 131.94 86.803 131.94S86.666 131.989 86.803 131.94z" fill="#fe856a" stroke="#ef694c" stroke-width="0.75" opacity="1"/>
              <path id="SvgjsPath8929" d="M113.541 131.736c-0.048-0.164-0.482-0.367-0.653-0.359 -0.311 0.017-0.672 0.396-1.313 0.41 -0.742 0.018-4.679 0.61-5.736 0.54 -2.129-0.142-3.824 0.666-5.848 0.666 -2.025 0-3.868-0.882-5.996-0.739 -1.057 0.072-4.847-0.448-5.591-0.467 -0.643-0.015-0.892-0.411-1.166-0.464 -0.192-0.036-0.663 0.166-0.757 0.338 -0.083 0.149 0.092 0.67 0.209 0.794 0.285 0.297 1.136 0.242 1.698 0.256 0.777 0.017 4.577 0.538 5.65 0.466 2.081-0.141 3.936 0.822 5.952 0.822s3.725-0.889 5.806-0.748c1.071 0.071 5.015-0.524 5.793-0.54 0.563-0.014 1.366-0.061 1.654-0.292C113.379 132.311 113.59 131.904 113.541 131.736z" fill="#d03a18" stroke-width="none" opacity="1" stroke="none"/>
              <path id="SvgjsPath8930" d="M99.989 137.352c-3.37 0-6.645-1.153-9.241-3.305 1.307-0.072 2.652-0.277 3.961-0.22 1.613 0.07 3.144 0.707 4.756 0.813 1.742 0.116 3.358-0.487 5.064-0.694 1.422-0.17 3.664-0.674 5.091-0.622C107.068 135.28 103.244 137.352 99.989 137.352zM104.562 131.739c1.314-0.037 3.414-0.532 4.724-0.437 -1.405-0.759-3.657-0.941-5.243-1.247 -1.366-0.266-2.738 0.791-4.081 0.968 -1.514 0.199-2.65-1.239-4.119-1.288 -1.593 0.017-3.233 0.991-4.634 1.65 1.284-0.034 2.607-0.176 3.886-0.012 1.566 0.199 3.069 0.817 4.655 0.87C101.373 132.299 102.939 131.782 104.562 131.739z" fill="#ff9a84" stroke-width="none" opacity="1" stroke="none"/>
              <path id="SvgjsPath8931" d="M99.941 136.4c-2.029 0-4.007-0.702-5.707-2.002 0.38-0.038 0.764-0.067 1.133-0.067 0.117 0 0.234 0.004 0.351 0.011 0.609 0.032 1.209 0.207 1.846 0.393 0.618 0.178 1.256 0.363 1.923 0.42 0.132 0.01 0.264 0.015 0.395 0.015 0.819 0 1.596-0.204 2.348-0.4 0.477-0.125 0.928-0.243 1.392-0.313 0.253-0.04 0.527-0.059 0.837-0.059 0.268 0 0.544 0.015 0.818 0.036C103.862 135.485 102.03 136.4 99.941 136.4z" fill="#ffaf9d" stroke-width="none" opacity="1" stroke="none"/>
            </g>
          </g>
          <g id="svga-group-eyes-left-move" transform="matrix(1,0,0,1,0,0)">
            <g id="svga-group-eyes-left" transform="matrix(1,0,0,1,0,0)">
              <g id="svga-group-eyesback-left">
                <path id="SvgjsPath8825" d="M66.025 80.104c9.208 0.042 15.785 3.133 22.428 9.178 0.138 0.863-0.601 2.567-1.775 2.992 -3.086 0.59-6.199 1.063-9.317 1.41 -7.733 0.859-10.43 0.213-11.361-0.277 -0.518-0.419-0.859-0.95-1.203-1.577 0.039 0.053 0.08 0.11 0.119 0.163C60.692 83.283 63.403 80.092 66.025 80.104z" fill="url(#SvgjsRadialGradient8826)" opacity="1"/>
              </g>
              <g id="svga-group-eyesiriswrapper-left" transform="matrix(1,0,0,1,0,1)">
                <g id="svga-group-eyesiriscontrol-left" transform="matrix(1,0,0,1,0,0)">
                  <g id="svga-group-eyesiris-left" transform="matrix(1,0,0,1,0,0)">
                    <path id="SvgjsPath8949" d="M83.5 87.001c0 4.693-3.806 8.498-8.5 8.498s-8.5-3.805-8.5-8.498c0-4.697 3.806-8.502 8.5-8.502S83.5 82.304 83.5 87.001z" fill="#7085b3" stroke="#2b4785" stroke-width="0.5" opacity="1"/>
                    <path id="SvgjsPath8950" d="M70.058 90.974c1.241-0.103 0.142-0.434 0.142-0.434 -0.613-0.331-1.768-0.839-1.768-1.306 0-1.461 2.002-1.839-0.048-2.416 -2.13-1.955 1.653-1.914 1.625-1.98 -1.381-3.366 0.423-1.518 1.183-2.512 2.816-3.682 0.785 0.378 2.314 0 0.554-0.136-1.105-2.169 0.048-1.884 0.763 0.187 0.937 0.821 0.937 0.821 0.557-0.109 1.428-0.966 1.428-0.966 1.061 0.32 1.806 1.827 1.478 1.545 0.522-0.063 1.252-0.313 1.822-0.483 0 0 0.1-0.338 0.196-0.047 1.3 3.77 4.652 3.5 0.792 4.589 0 0-0.249 0 0.542 0.627 3.839 3.066-2.978 2.117 0.638 3.527 0.147-0.146-2.167 1.368-2.167 1.787 0 0.71-1.477 2.576-2.757 1.841 -0.714-0.408-0.823 0.85-1.243 0.269 -0.823-1.138-2.467-0.049-1.859-1.095 0.898-0.737-0.926 0.289-1.28 0.289 -1.172 0 1.534-3.942 5.516-1.013 1.165 0.853-1.224-2.03 0.886-2.03 0.211 0.069 0.148-0.739 0.148-0.966 -1.098-0.215 1.969-0.005 1.969-1.788 0.193 0.039 0.721-0.495-2.316 0 0 0-0.097-1.063-0.048-1.256 0.156-0.62 1.72-0.422 1.28-1.063 -0.001-0.001-1.132-2.272-1.132-2.272 -3.645-0.586-1.562-0.952-3.841-0.483 -0.108 0.535-4.881 2.811-4.729 3.866 0.142 0.995 2.997 1.328 0.295 3.091C74.157 96.989 67.118 89.06 70.058 90.974z" fill="#8d9ec2" stroke-width="none" opacity="1"/>
                    <path id="SvgjsPath8951" d="M75,79.562l0.243,6.223l2.603-5.656l-2.158,5.84l4.572-4.229l-4.229,4.57l5.842-2.157l-5.655,2.604l6.222,0.242l-6.222,0.242l5.655,2.604l-5.842-2.157l4.229,4.57l-4.572-4.229l2.158,5.84l-2.603-5.656L75,94.437l-0.243-6.223l-2.604,5.656l2.156-5.84l-4.57,4.229l4.229-4.57l-5.842,2.157l5.655-2.604l-6.219-0.242l6.219-0.242l-5.655-2.604l5.842,2.157l-4.229-4.57l4.57,4.229l-2.156-5.84l2.604,5.656L75,79.562z" fill="#7085b3" stroke="#566ea4" stroke-width="0.5" opacity="1"/>
                    <path id="SvgjsPath8952" d="M76.128,81.428l-0.764,4.697l2.808-3.841l-2.501,4.047l4.065-2.476l-3.859,2.783l4.702-0.73l-4.632,1.092l4.626,1.125l-4.699-0.762l3.842,2.808l-4.05-2.5l2.476,4.064l-2.783-3.86l0.73,4.702l-1.092-4.632l-1.126,4.625l0.764-4.697l-2.811,3.841l2.504-4.048l-4.064,2.476l3.86-2.783l-4.702,0.73l4.631-1.093l-4.625-1.125l4.697,0.761l-3.842-2.808l4.05,2.5l-2.475-4.064l2.782,3.86l-0.73-4.701l1.095,4.632L76.128,81.428z" fill="#7085b3" stroke="#3f5a94" stroke-width="0.5" opacity="1"/>
                    <path id="SvgjsPath8953" d="M78.188 87c0 1.761-1.428 3.187-3.188 3.187S71.813 88.76 71.813 87c0-1.76 1.428-3.188 3.188-3.188S78.188 85.239 78.188 87z" fill="#000000" stroke-width="none" opacity="0.9"/>
                    <path id="SvgjsPath8954" d="M71.653 93.108c-0.469 0.469-1.396 0.304-2.069-0.37 -0.674-0.673-0.84-1.6-0.37-2.069 0.469-0.469 1.396-0.304 2.069 0.37S72.123 92.638 71.653 93.108z" fill="#ffffff" stroke-width="none" opacity="0.7"/>
                    <path id="SvgjsPath8955" d="M81.809 85.326c-0.702 0.703-2.404 0.142-3.8-1.255 -1.396-1.396-1.958-3.097-1.255-3.8 0.703-0.703 2.404-0.142 3.8 1.255C81.95 82.922 82.511 84.624 81.809 85.326z" fill="#ffffff" stroke-width="none" opacity="0.9"/>
                  </g>
                </g>
              </g>
              <g id="svga-group-eyesfront-left">
                <path id="SvgjsPath8850" d="M57 88c0 13.808 8.06 24.999 18 24.999S93 101.808 93 88c0-13.809-8.06-25.001-18-25.001S57 74.191 57 88zM64.915 91.992c-4.223-8.709-1.512-11.9 1.11-11.888 9.208 0.042 15.785 3.133 22.428 9.178 0.138 0.863-0.601 2.567-1.775 2.992 -3.086 0.59-6.199 1.063-9.317 1.41 -7.733 0.859-10.43 0.213-11.361-0.277 -0.518-0.419-0.859-0.95-1.203-1.577C64.835 91.882 64.876 91.939 64.915 91.992z" fill="#eeaa83" stroke-width="none" opacity="1" stroke="none"/>
                <path id="SvgjsPath8851" d="M59.888 86.375c0.023 7.713 7.896 13.931 17.596 13.89 9.696-0.043 17.541-6.328 17.516-14.041 -0.023-7.714-7.898-13.933-17.598-13.892C67.704 72.376 59.863 78.66 59.888 86.375zM64.915 91.992c-4.223-8.709-1.512-11.9 1.11-11.888 9.208 0.042 15.785 3.133 22.428 9.178 0.138 0.863-0.601 2.567-1.775 2.992 -3.086 0.59-6.199 1.063-9.317 1.41 -7.733 0.859-10.43 0.213-11.361-0.277 -0.518-0.419-0.859-0.95-1.203-1.577C64.835 91.882 64.876 91.939 64.915 91.992z" fill="url(#SvgjsRadialGradient8852)" opacity="1"/>
                <path id="SvgjsPath8856" d="M88.453 89.282c0.138 0.863-0.601 2.567-1.775 2.992 -3.086 0.59-6.199 1.063-9.317 1.41 -7.733 0.859-10.43 0.213-11.361-0.277 -0.518-0.419-0.859-0.95-1.203-1.577 0.039 0.053 0.08 0.11 0.119 0.163 -3.392-6.996-2.308-10.426-0.392-11.5 0.685-0.148 1.378-0.271 2.079-0.373C75.507 80.287 81.952 83.366 88.453 89.282z" fill="url(#SvgjsRadialGradient8857)" opacity="1"/>
                <path id="SvgjsPath8860" d="M89.364 86.486c-4.879-4.498-11.941-7.793-18.25-9.692 -5.849-1.761-10.449-2.086-18.501-1.266 6.934-0.149 12.094-0.277 18.777 1.841C77.733 79.379 83.972 82.54 89.364 86.486z" fill="#c06530" stroke-width="none" opacity="1" stroke="none"/>
                <path id="SvgjsPath8861" d="M88.584 89.314c-6.688-5.901-13.29-8.915-22.559-8.956 -2.622-0.012-5.333 3.063-1.11 11.455 -2.768-3.59-5.786-8.89-13.915-15.427 4.148 0.993 4.8 0.884 7.131 1.154 -1.786-0.744-3.408-2.237-6.61-4.595 5.178 2.897 7.519 3.967 11.008 5.117 -2.017-1.082-3.605-2.437-5.952-4.387 3.634 2.102 5.978 3.468 8.785 4.61l-2.088-2.608c1.557 1.413 3.101 2.689 4.26 3.205 9.479 0.908 16.21 4.665 21.324 10.109C89.249 89.407 89.012 89.691 88.584 89.314zM65.516 92.776c1.329 2.274 8.103 1.813 10.736 1.609 1.092-0.132 10.735-1.593 10.735-2.268 -0.005-0.027-0.011-0.054-0.017-0.081 -3.182 0.594-6.393 1.063-9.61 1.407C66.093 94.65 65.516 92.776 65.516 92.776z" fill="#09152e" stroke-width="none" opacity="1" stroke="none"/>
              </g>
            </g>
          </g>
          <g id="svga-group-eyes-right-move" transform="matrix(1,0,0,1,0,0)">
            <g id="svga-group-eyes-right" transform="matrix(1,0,0,1,0,0)">
              <g id="svga-group-eyesback-right">
                <path id="SvgjsPath8833" d="M133.975 80.104c-9.208 0.042-15.785 3.133-22.428 9.178 -0.138 0.863 0.601 2.567 1.775 2.992 3.086 0.59 6.199 1.063 9.317 1.41 7.733 0.859 10.43 0.213 11.361-0.277 0.518-0.419 0.859-0.95 1.203-1.577 -0.039 0.053-0.08 0.11-0.119 0.163C139.308 83.283 136.597 80.092 133.975 80.104z" fill="url(#SvgjsRadialGradient8834)" opacity="1"/>
              </g>
              <g id="svga-group-eyesiriswrapper-right" transform="matrix(1,0,0,1,0,1)">
                <g id="svga-group-eyesiriscontrol-right" transform="matrix(1,0,0,1,0,0)">
                  <g id="svga-group-eyesiris-right" transform="matrix(1,0,0,1,0,0)">
                    <path id="SvgjsPath8956" d="M133.5 87.001c0 4.692-3.806 8.498-8.5 8.498s-8.5-3.806-8.5-8.498c0-4.697 3.806-8.502 8.5-8.502S133.5 82.304 133.5 87.001z" fill="#7085b3" stroke="#2b4785" stroke-width="0.5" opacity="1"/>
                    <path id="SvgjsPath8957" d="M120.059 90.974c1.24-0.103 0.142-0.434 0.142-0.434 -0.613-0.33-1.768-0.838-1.768-1.305 0-1.461 2.002-1.84-0.048-2.416 -2.131-1.956 1.652-1.915 1.625-1.981 -1.382-3.366 0.423-1.518 1.182-2.512 2.816-3.682 0.785 0.378 2.314 0 0.555-0.136-1.104-2.169 0.048-1.884 0.763 0.186 0.938 0.821 0.938 0.821 0.557-0.109 1.428-0.966 1.428-0.966 1.061 0.32 1.806 1.828 1.478 1.546 0.521-0.063 1.252-0.313 1.821-0.483 0 0 0.1-0.338 0.196-0.046 1.3 3.77 4.652 3.499 0.791 4.589 0 0-0.249 0 0.542 0.627 3.84 3.065-2.978 2.117 0.638 3.527 0.148-0.147-2.167 1.367-2.167 1.786 0 0.711-1.477 2.576-2.757 1.842 -0.714-0.409-0.822 0.85-1.243 0.269 -0.823-1.138-2.468-0.049-1.859-1.095 0.898-0.737-0.926 0.288-1.28 0.288 -1.172 0 1.534-3.942 5.516-1.013 1.165 0.854-1.225-2.029 0.886-2.029 0.212 0.069 0.148-0.739 0.148-0.967 -1.097-0.214 1.97-0.004 1.97-1.787 0.193 0.038 0.721-0.496-2.316 0 0 0-0.097-1.064-0.048-1.256 0.156-0.619 1.721-0.422 1.28-1.063 -0.001-0.001-1.133-2.271-1.133-2.271 -3.645-0.587-1.562-0.953-3.84-0.483 -0.108 0.535-4.881 2.811-4.729 3.866 0.142 0.994 2.996 1.328 0.295 3.092C124.157 96.989 117.118 89.06 120.059 90.974z" fill="#8d9ec2" stroke-width="none" opacity="1"/>
                    <path id="SvgjsPath8958" d="M125,79.562l0.242,6.222l2.604-5.656l-2.158,5.84l4.571-4.228l-4.229,4.57l5.842-2.157l-5.655,2.604l6.222,0.242l-6.222,0.242l5.655,2.604l-5.842-2.157l4.229,4.57l-4.571-4.228l2.158,5.84l-2.604-5.656L125,94.437l-0.242-6.222l-2.605,5.656l2.157-5.84l-4.57,4.228l4.229-4.57l-5.842,2.157l5.654-2.604l-6.219-0.242l6.219-0.242l-5.654-2.604l5.842,2.157l-4.229-4.57l4.57,4.228l-2.157-5.84l2.605,5.656L125,79.562z" fill="#7085b3" stroke="#566ea4" stroke-width="0.5" opacity="1"/>
                    <path id="SvgjsPath8959" d="M126.128,81.428l-0.764,4.697l2.808-3.841l-2.501,4.047l4.064-2.475l-3.859,2.782l4.702-0.73l-4.632,1.093l4.626,1.125l-4.699-0.762l3.843,2.808l-4.05-2.5l2.476,4.063l-2.783-3.86l0.73,4.702l-1.092-4.632l-1.126,4.625l0.764-4.697l-2.812,3.841l2.505-4.047l-4.065,2.475l3.86-2.782l-4.702,0.73l4.631-1.094l-4.624-1.124l4.696,0.761l-3.842-2.808l4.05,2.501l-2.476-4.063l2.782,3.86l-0.73-4.702l1.095,4.632L126.128,81.428z" fill="#7085b3" stroke="#3f5a94" stroke-width="0.5" opacity="1"/>
                    <path id="SvgjsPath8960" d="M128.188 87c0 1.761-1.428 3.187-3.188 3.187s-3.188-1.426-3.188-3.187c0-1.76 1.428-3.188 3.188-3.188S128.188 85.239 128.188 87z" fill="#000000" stroke-width="none" opacity="0.9"/>
                    <path id="SvgjsPath8961" d="M121.653 93.108c-0.47 0.469-1.396 0.304-2.069-0.369 -0.674-0.673-0.84-1.601-0.369-2.07 0.469-0.47 1.395-0.304 2.068 0.369C121.956 91.712 122.122 92.639 121.653 93.108z" fill="#ffffff" stroke-width="none" opacity="0.7"/>
                    <path id="SvgjsPath8962" d="M131.809 85.326c-0.702 0.703-2.403 0.142-3.8-1.254 -1.396-1.396-1.957-3.098-1.256-3.8 0.703-0.703 2.405-0.142 3.8 1.254C131.949 82.922 132.512 84.624 131.809 85.326z" fill="#ffffff" stroke-width="none" opacity="0.9"/>
                  </g>
                </g>
              </g>
              <g id="svga-group-eyesfront-right">
                <path id="SvgjsPath8871" d="M125 62.999c-9.94 0-18 11.193-18 25.001 0 13.808 8.06 24.999 18 24.999S143 101.808 143 88C143 74.191 134.94 62.999 125 62.999zM135.204 91.829c-0.344 0.627-0.686 1.158-1.203 1.577 -0.932 0.491-3.628 1.137-11.361 0.277 -3.118-0.347-6.231-0.82-9.317-1.41 -1.175-0.425-1.913-2.129-1.775-2.992 6.643-6.044 13.22-9.136 22.428-9.178 2.622-0.012 5.333 3.179 1.11 11.888C135.124 91.939 135.165 91.882 135.204 91.829z" fill="#eeaa83" stroke-width="none" opacity="1" stroke="none"/>
                <path id="SvgjsPath8872" d="M122.599 72.333c-9.699-0.042-17.574 6.177-17.598 13.892 -0.025 7.713 7.819 13.998 17.516 14.041 9.7 0.041 17.572-6.177 17.596-13.89C140.137 78.66 132.296 72.376 122.599 72.333zM135.204 91.829c-0.344 0.627-0.686 1.158-1.203 1.577 -0.932 0.491-3.628 1.137-11.361 0.277 -3.118-0.347-6.231-0.82-9.317-1.41 -1.175-0.425-1.913-2.129-1.775-2.992 6.643-6.044 13.22-9.136 22.428-9.178 2.622-0.012 5.333 3.179 1.11 11.888C135.124 91.939 135.165 91.882 135.204 91.829z" fill="url(#SvgjsRadialGradient8873)" opacity="1"/>
                <path id="SvgjsPath8877" d="M111.547 89.282c-0.138 0.863 0.601 2.567 1.775 2.992 3.086 0.59 6.199 1.063 9.317 1.41 7.733 0.859 10.43 0.213 11.361-0.277 0.518-0.419 0.859-0.95 1.203-1.577 -0.039 0.053-0.08 0.11-0.119 0.163 3.392-6.996 2.308-10.426 0.392-11.5 -0.685-0.148-1.378-0.271-2.079-0.373C124.493 80.287 118.048 83.366 111.547 89.282z" fill="url(#SvgjsRadialGradient8878)" opacity="1"/>
                <path id="SvgjsPath8881" d="M110.636 86.486c4.879-4.498 11.941-7.793 18.25-9.692 5.849-1.761 10.449-2.086 18.501-1.266 -6.934-0.149-12.094-0.277-18.777 1.841C122.267 79.379 116.028 82.54 110.636 86.486z" fill="#c06530" stroke-width="none" opacity="1" stroke="none"/>
                <path id="SvgjsPath8882" d="M111.143 88.992c5.114-5.444 11.846-9.201 21.324-10.109 1.159-0.516 2.703-1.792 4.26-3.205l-2.088 2.608c2.808-1.142 5.151-2.509 8.785-4.61 -2.347 1.951-3.936 3.306-5.952 4.387 3.489-1.15 5.83-2.219 11.008-5.117 -3.202 2.358-4.824 3.851-6.61 4.595 2.331-0.27 2.982-0.161 7.131-1.154 -8.129 6.537-11.147 11.837-13.915 15.427 4.223-8.392 1.512-11.467-1.11-11.455 -9.269 0.041-15.87 3.055-22.559 8.956C110.988 89.691 110.751 89.407 111.143 88.992zM122.64 93.444c-3.218-0.345-6.429-0.813-9.61-1.407 -0.006 0.027-0.012 0.054-0.017 0.081 0 0.675 9.644 2.136 10.735 2.268 2.634 0.205 9.407 0.666 10.736-1.609C134.484 92.776 133.907 94.65 122.64 93.444z" fill="#09152e" stroke-width="none" opacity="1" stroke="none"/>
              </g>
            </g>
          </g>
          <g id="svga-group-facehighlight-single">
            <path id="SvgjsPath8632" d="M140.204 113.007c0.035 22.275-17.995 40.365-40.273 40.396 -22.274 0.036-40.361-17.993-40.396-40.272C59.501 90.857 77.53 72.77 99.808 72.735 122.083 72.701 140.171 90.73 140.204 113.007z" fill="url(#SvgjsRadialGradient8633)" opacity="1"/>
            <path id="SvgjsPath8636" d="M135,55.999c0,19.329-15.671,35-35,35c-19.329,0-35-15.671-35-35s15.671-35,35-35C119.329,20.999,135,36.67,135,55.999z" fill="url(#SvgjsRadialGradient8637)" opacity="1"/>
          </g>
          <g id="svga-group-eyebrows-left-move" transform="matrix(1,0,0,1,0,0)">
            <g id="svga-group-eyebrows-left-rotate" transform="matrix(1,0,0,1,0,0)">
              <g id="svga-group-eyebrows-left" transform="matrix(1,0,0,1,0,0)">
                <path id="SvgjsPath8897" d="M54.964 78.999c3.142-11.595 35.115-1.16 36.543-11.207 0.047-1.179-0.552-1.884-2.627-0.392C83.26 72.169 56.139 66.688 54.964 78.999z" fill="#080806" stroke-width="none" opacity="1" stroke="none"/>
              </g>
            </g>
          </g>
          <g id="svga-group-eyebrows-right-move" transform="matrix(1,0,0,1,0,0)">
            <g id="svga-group-eyebrows-right-rotate" transform="matrix(1,0,0,1,0,0)">
              <g id="svga-group-eyebrows-right" transform="matrix(1,0,0,1,0,0)">
                <path id="SvgjsPath8898" d="M145.036 78.999c-3.181-11.738-35.1-1.047-36.543-11.207 -0.047-1.179 0.553-1.884 2.627-0.392C116.737 72.167 143.861 66.697 145.036 78.999z" fill="#080806" stroke-width="none" opacity="1" stroke="none"/>
              </g>
            </g>
          </g>
          <g id="svga-group-nose-single-move" transform="matrix(1,0,0,1,0,0)">
            <g id="svga-group-nose-single" transform="matrix(1,0,0,1,0,0)">
              <path id="SvgjsPath8912" d="M93.787 116.99c0 0 1.319-0.969 5.75-0.969 5.24 0 6.685 0.759 6.685 0.759s-3.71 2.4-6.937 1.925C96.513 118.295 93.787 116.99 93.787 116.99z" fill="#df9164" stroke-width="none" opacity="1" stroke="none"/>
              <path id="SvgjsPath8913" d="M100.06 120.097c-1.181 0-2.382-0.529-3.423-1.045 -0.423-0.208-0.838-0.374-1.304-0.461 -0.582-0.109-1.656 0.086-2.085-0.356 -0.457-0.473-0.085-1.217 0.54-1.244 0.771 0.012 1.551 0.067 2.298 0.267 1.309 0.35 2.427 1.254 3.814 1.366 1.051 0.084 2.219-0.58 3.159-0.977 0.738-0.312 3.209-1.475 3.805-0.457 0.369 0.629-0.222 1.075-0.789 1.107 -0.702 0.039-1.394 0.277-2.043 0.534C102.777 119.327 101.441 120.097 100.06 120.097z" fill="#cf7a49" stroke-width="none" opacity="1" stroke="none"/>
              <path id="SvgjsPath8914" d="M99.989 116.076c0.556 0 1.853-0.647 1.64-1.902 -1.26-7.41-1.64-20.245-1.64-20.245s-0.964 15.033-1.788 20.245C98.001 115.443 99.36 116.076 99.989 116.076z" fill="#ffd7bf" stroke-width="none" opacity="0.2" stroke="none"/>
            </g>
          </g>
          <g id="svga-group-hair-front" transform="matrix(1,0,0,1,0,0)">
            <path id="SvgjsPath8802" d="M142.198 28.734c-9.237-8.79-44.549-0.761-55.197 0.239C76.86 29.755 63.475-1.366 43.396 78.452c0.045 3.839 1.29 10.633 2.796 15.468 0.145-0.101 0.286-0.208 0.431-0.306 0 0-0.518 3.257 6.058 14.39 -0.348-8.073 1.212-13.893 2.492-21.414 15.709-19.987 30.389-24.674 41.56-28.155C89.233 67.19 81.814 75.225 78.568 84c13.647-9.576 32.409-28.884 32.409-28.884S109.574 59.819 83.292 84c10.943-2.679 31.345-13.679 45.636-34.951 2.746 4.5-12.4 30.794-12.827 31.801 7.663-6.086 18.079-14.636 20.755-24.62 0 0 1.571 4.043 2.662 8.635 2.878 12.162 2.904 27.281 3.429 31.125 1.665-8.721 1.925-18.482 1.922-18.355 3.905 17.893 0.419 30.394 0.352 34.724 5.198-10.435 10.604-22.897 12.177-34.534C157.396 77.824 145.779 27.134 142.198 28.734z" fill="#080806" stroke-width="none" opacity="0.1" stroke="none"/>
            <path id="SvgjsPath8803" d="M170.618 67.866c-0.08-5.39-1.12-13.92-2.921-18.78 3.28 3.39 7.41 7.39 10.78 9.5 -4.46-3.86-5.841-7.16-15.921-28.3 -6.189-12.98-10.287-26.75-22.378-28.37 -4.079-0.56-8.05 0.99-11.779 2.59 -9.61-8.79-21.59-12.331-32.67-11.331 -33.88 2.51-42.917 24.391-61.037 28.771 2.84 0.83 7.616-0.468 10.336-1.748 -3.75 5.06-2.422 4.531-10.692 12.801 -3.37 3.34-6.483 7.444-10.543 9.854 5.449-0.681 8.312-4.834 16.282-9.104 -1.15 1.84-5.249 8.094-11.929 14.494 -2.87 2.74-7.599 6.584-10.899 8.914 2.41-0.96 9.489-3.726 15.608-9.152 -3.169 4.531-12.261 12.94-8.145 29.881 0.832-7.406-0.001-16.415 7.048-20.895 -0.784 3.301-3.814 10.222-1.603 17.708H41.09c0.047 3.839 1.341 10.934 2.909 15.769 0.151-0.101 0.297-0.208 0.449-0.306 0 0 0.502 3.257 7.343 14.39 -0.364-8.073 0.222-13.893 1.553-21.414 16.345-19.987 31.619-24.674 43.241-28.155 -7.804 8.755-13.814 18.837-17.193 27.612 11.046-11.66 33.834-29.767 33.834-29.767s-0.364 4.866-27.712 29.046c9.449-5.795 29.698-15.006 44.566-36.278 2.858 4.5-10.819 30.794-11.264 31.801 7.974-6.086 14.646-16.636 17.435-26.62 0 0 3.716 6.043 4.847 10.635 2.995 12.162 1.984 22.281 2.528 26.125 1.732-8.721 3.042-13.482 3.039-13.355 4.066 17.893-0.604 32.394-0.672 36.724 5.406-10.434 12.072-24.997 13.709-36.634H171.3C170.631 69.944 171.127 69.932 170.618 67.866z" fill="#080806" stroke-width="none" opacity="1" stroke="none"/>
            <path id="SvgjsPath8804" d="M177.236 37.286c-3.811-0.17-5.876 0.099-10.356-0.261 -0.67-1.53-2.738-5.55-3.438-7.07C166.941 33.055 174.206 36.976 177.236 37.286z" fill="#000000" stroke-width="none" opacity="1" stroke="none"/>
            <path id="SvgjsPath8805" d="M40.385 33.266c-7.787 4.224-11.305 8.458-15.656 9.179 4.06-2.41 6.46-5.99 9.83-9.33 8.27-8.27 7.26-8.3 11.01-13.36 -2.604 1.225-7.117 2.837-9.989 2.247C49.1 20.922 63.972 3.71 80 6 63.505 7.833 49.533 19.744 40.385 33.266zM118.817 77.397c11.188-23.146 11.904-26.578 11.264-31.801 -13.432 19.217-40.876 34.016-44.566 36.278 16.33-14.438 23.567-24.358 26.301-27.924C89.192 71.938 89.208 72.234 79.392 82.595c5.663-14.707 2.783-11.447 17.193-27.612 -6.263 1.876-11.361 3.689-15.442 5.618 0.567-1.342 0.738-2.05 2.64-4.833 7.124-4.361 21.086-15.032 31.086-18.481 -3.529 2.783-5.345 6.283-8.84 9.096 5.358-1.356 11.907-2.056 22.24-7.796 -0.553 0.442 17.922-8.631 11.935-19.03 3.684 2.625 0.95 13.336-0.784 23.305 3.888 5.373 4.755 11.915 6.033 18.583 0.121-2.193 0.47-7.496 0.016-9.648 2.284 5.926 5.567 13.815 5.526 22.481C155.411 62.569 152 52 152 41c3.791 6.331 5.29 17.906 6.192 25.033 0.916-4.582 1.52-8.026-0.544-14.033 1.302 1.624 3.089 2.834 4.352 5 -1.721-9.445-4.858-16.042-9.204-22.833C156.921 38.936 163 43 165 49c-1-11-5-22-12-31 3.743 4.367 7.097 8.734 10.061 13.343 9.618 20.183 11.033 23.448 15.417 27.242 -3.37-2.11-7.5-6.109-10.78-9.5 1.801 4.86 2.841 13.39 2.921 18.78 0.509 2.065 0.013 2.178 0.682 6.505h-11.597c-1.637 11.637-8.303 26.1-13.709 36.534 0.066-4.227 4.514-18.146 0.944-35.449 -0.088-0.424-0.175-0.847-0.272-1.275 0.003-0.127-1.307 4.635-3.039 13.355 -0.544-3.844 0.467-13.963-2.528-26.125 -1.131-4.592-4.847-10.635-4.847-10.635C128.832 69.641 120.864 76.769 118.817 77.397zM94.869 43.184C85.796 45.839 77 53 70 60c2-3 3-7 6-10 5-10 14-17 21-25 -15 9-24 22-35 35 3-6 6-14 11-19 -10 5-12 15-19 23 4-32 34-69 69-58C88.059-7.698 53.547 29.071 45.395 68.148 45.361 64.358 45.921 43.079 54 35c-8 6-10 16-15 23 -0.814-4.072 1.024-7.481 2.274-10.767 -1.054 1.576-3.016 2.758-4.23 4.512C39.577 43.671 42.073 35.284 50 30c-4.726 2.363-8.216 5.96-12.902 8.362 -2.15 2.944-5.13 6.637-8.769 10.124 -2.87 2.74-6.98 5.88-10.28 8.21 2.41-0.96 9.3-4.7 15.47-9.49 -2.95 4.77-12.27 12.74-8.9 29.41 0.33-7.42 0.52-15.68 7.57-20.16C31.405 59.757 28.145 67.514 30.356 75H41.09c0.047 3.839 1.341 10.633 2.909 15.468 0.151-0.101 0.297-0.208 0.449-0.306 0 0 0.318 1.985 3.66 8.081 0.96 1.751 2.157 3.824 3.684 6.309 -0.364-8.073 0.222-13.893 1.553-21.414 9.843-12.036 19.295-18.52 27.798-22.537C81.859 58.904 84.681 51.958 94.869 43.184z" fill="#000000" stroke-width="none" opacity="1" stroke="none"/>
            <path id="SvgjsPath8806" d="M39.14 35.028C50.711 12.323 73.942 5.8 82.235 5.829 64.286 9.892 51.536 17.819 39.14 35.028zM112.286 4.067C99.313 3.229 75.107 11.58 62.155 38.708 76.494 13.067 102.913 3.465 112.286 4.067zM144.313 7.883c-0.668-0.242-1.258-0.718-1.929-0.979 -7.811-3.035-14.957 2.381-15.565 7.654C127.992 9.383 135.786 4.803 144.313 7.883zM138.188 11.621c12.901-3.002 23.234 21.063 23.497 22.066C159.6 25.7 150.582 7.854 138.528 10.768c-3.965 0.959-7.038 3.953-9.309 7.198C131.586 15.113 134.468 12.47 138.188 11.621zM92.531 49.976c7.02-5.938 39.023-15.771 37.895-29.705C130.234 32.882 105.025 39.407 92.531 49.976zM123.893 16.667c-2.088-0.968-6.35-4.938-17.326 1.636C88.869 28.902 77.858 46.716 75.207 51.149 83.655 39.44 109.684 10.093 123.893 16.667z" fill="#000000" stroke-width="none" opacity="1" stroke="none"/>
            <path id="SvgjsPath8807" d="M77.774 9.337C58.393 16.2 45.395 30.218 45.395 30.218 54.68 20.083 63.288 12.957 77.774 9.337zM52.747 32.614c1.826-3.136 16.3-19.207 24.673-22.069C68.571 12.888 57.47 24.503 52.747 32.614zM72.415 30.195c0 0 14.956-18.491 31.382-22.259C90.858 9.004 79.387 19.403 72.415 30.195zM91.168 35.718c0.92-1.296 18.853-16.116 26.805-18.162C109.279 18.78 93.755 32.075 91.168 35.718zM106.619 29.037c1.081-1.479 8.328-8.794 17.066-9.925C115.821 19.303 111.162 22.824 106.619 29.037zM98.693 39.328c4.613-6.021 17.328-8.604 25.865-17.449C116.765 29.092 105.065 31.012 98.693 39.328zM114.135 42.83c1.002 0 18.698-9.222 22.402-13.077 3.405-3.543 3.938-7.255 1.396-8.925 3.425 3.821-1.259 7.586-3.095 9.151C133.101 31.461 125.346 36.745 114.135 42.83 114.136 42.83 115.105 42.303 114.135 42.83zM133.194 36.025c6.469-4.646 10.608-13.196 6.736-16.54 -1.339-1.156-3.436-1.577-5.168-1.556 1.738-0.021 4.151 0.622 5.297 1.993 4.005 4.778-3.688 12.915-8.86 16.402 -7.433 5.012-16.3 7.966-24.96 10.046C115.538 44.373 125.367 41.646 133.194 36.025zM74.46 34.228c0 0 12.903-15.915 26.442-21.077 1.596-0.608 3.241-0.829 4.901-1.161C93.18 13.181 81.436 23.811 74.46 34.228zM71.001 43.084c1-0.716 18.004-20.675 33.561-26.663C91.336 19.74 78.568 31.611 71.001 43.084zM159.665 35.255c-0.596-1.001-5.457-18.448-15.779-16.404C150.81 18.188 156.162 28.076 159.665 35.255zM150.497 54.228c0.147-4.855 2.044-15.259-6.717-23.478C148.394 36.237 150.662 45.406 150.497 54.228z" fill="#171714" stroke-width="none" opacity="1" stroke="none"/>
            <path id="SvgjsPath8808" d="M183.02 61.345c-8.591-7.05-8.95-8.69-15.57-23.75 4.52 0.38 8.39 0.06 12.06-0.2 -7.56-0.74-13.149-6.29-16.029-8.68 -7.57-16.09-13.48-31.96-30.74-26.41 -1.36 0.44-2.71 0.96-4.04 1.57 -7.68-8.32-19.42-12.54-30.32-12.49 -31.79 0.12-46.83 23.91-60.24 29.1 -1.6 0.62-3.38 1.09-5.08 1.49 3.02 1.09 5.67 1.29 10.67-0.75 -6.2 8.24-3.19 3.92-10.56 11.66 -3.32 3.46-6.43 8.08-11.15 10.25 3.97 0.5 6.69-0.69 10.14-3.04 2.39-1.61 4.84-3.66 6.64-4.95 -7.24 11.04-24.31 23.26-24.31 23.26 5.59-1.06 11.42-4.38 16.11-8.14 -0.17 0.23-0.35 0.46-0.52 0.69 -2.46 3.25-4.83 6.75-5.96 10.71 -2.02 7.04-1.06 13.639 1.46 20.489 -0.64-6.07-0.74-18.58 5.67-24.379C30.026 61.248 27.022 68.061 29.164 75h0.875 0.317c-2.211-7.485 1.049-15.243 1.833-18.544 -7.05 4.48-7.24 12.74-7.57 20.16 -3.37-16.67 5.95-24.64 8.9-29.41 -6.17 4.79-13.06 8.53-15.47 9.49 3.3-2.33 7.41-5.47 10.28-8.21 6.68-6.4 11.16-13.52 12.31-15.36 -7.97 4.27-11.51 8.59-15.91 9.32 4.06-2.41 6.46-5.99 9.83-9.33 8.27-8.27 7.26-8.3 11.01-13.36 -2.72 1.28-7.53 2.99-10.37 2.16 18.12-4.38 26.65-25.73 60.53-28.24 11.081-1 23.06 2.04 32.67 10.83 3.729-1.6 7.7-2.95 11.779-2.39 12.091 1.62 15.591 15.19 21.78 28.17 10.08 21.14 11.66 24.14 16.12 28 -3.37-2.11-7.5-6.41-10.78-9.8 1.801 4.86 3.04 13.19 3.12 18.58 -2.05-6.78-5.83-12.26-9.87-17.39 0.851 1.22 8.21 10.8 10.021 22.35 -3.05-6.02-6.92-11.45-11.21-16.62 6.775 9.128 9.306 14.798 11.318 19.136 0.264 0 0.029-0.217 1.079 0.006 -0.079-0.174-0.238-0.532-0.317-0.703 -0.061-1 1.05-12.39-2.931-23.38C173.339 55.875 175.669 58.795 183.02 61.345zM176.439 37.186c-3.811-0.17-4.88-0.2-9.36-0.56 -0.67-1.53-2.34-4.35-3.04-5.87C167.539 33.855 173.409 36.875 176.439 37.186zM156.85 87.045c-2.49 9.14-6.841 19.28-11.99 26.3 1.87-13.8 3.479-27.76 1.779-37.28 -0.569 5.73-1.899 11.2-3.64 16.67 0.41-7.11-0.35-14.37-1.02-21.44 -0.341-3.52-0.83-7.01-1.57-10.47 -0.7-3.29-2.34-6.27-3.84-9.25 -1.78 5.84-4.65 10.85-7.84 16.03 -3.07 4.99-6.88 9.18-11.92 12.14 3.25-5.36 6.229-12.75 8.229-16.96 1.84-3.88 5.39-10.32 4.9-16.33 -5.561 8.7-14.36 16.58-22.58 22.81 -7.86 5.96-24.62 14.67-25.62 15.05 0.2-0.22 9.54-8.66 15.53-14.51 11.36-11.08 13.21-13.3 14.78-15.65 -5.8 5.05-11.42 10.3-17.24 15.33 -5.66 4.89-11.44 9.71-16.74 15.01 1.5-5.41 3.99-10.33 6.6-15.03 2.85-5.11 6.46-9.39 10.58-13.51 -23.378 7.551-39.08 24.38-41.29 27.14 -0.51 4.42-1.17 19.86-0.71 26.4 -5.932-10.697-18.602-27.757-11.658-54.876 -2.687 13.262 0.833 34.105 9.848 48.787 -0.29-6.43 0.32-13.03 1.44-19.36 -1.86 1.91-3.76 3.72-5.87 5.34 1.09-6.52 4.68-12.63 7.9-18.31 3.06-5.37 6.49-10.68 11.13-14.84 -3.67 4.46-6.98 9.89-9.99 15.14 -3.3 5.75-6.98 12.73-8.18 16.9 6.77-6.6 10.3-14.29 26.97-24.64 9.7-6.02 15.45-7.08 21.66-8.94 1.07-1.1 2.13-2.19 3.17-3.32 1.99-2.16 3.74-4.46 5.47-6.83 -6.689 10.42-8.76 10.79-13.779 17.45 -7.61 10.09-8.34 13.08-11.13 19.26 6.1-6.44 9.41-8.49 15.85-14.6 5.07-4.82 16.58-13.46 16.89-13.98 1.25-2.11 2.46-5.22 4.15-8.13 -1.7 3.56-2.63 7.37-4.78 10.7 -2.16 3.34-5.29 6.29-7.97 9.21 -4.42 4.81-10.89 10.75-17.41 16.21 4.99-3.06 10.19-5.66 15.03-8.99 4.7-3.23 9.27-6.71 13.56-10.48 8.301-7.28 15.11-15.79 20.34-25.49 -1.63 3.43-3.42 6.79-5.46 9.99 0.631 3.72-0.199 7.31-1.569 10.78 -0.41 1.04-7.29 16.5-9.37 20.14 2.96-2.26 5.1-5.08 7.16-8.15 6.95-10.4 10.42-17.72 12.35-30.55 -0.399 4.22-0.979 8.44-2.11 12.54 2.061 5.1 3.341 6.48 4.5 10.88 2.12 8.04 2.54 16.39 2.32 24.67 2.26-11.38 3.4-22.64 1.76-34.21 2.41 13.95 1.49 22.32 1.49 22.32 0.5 2.2 0.88 4.42 1.16 6.66 1.21 9.68 0.1 19.31-1.81 28.82 9.399-18.14 11.949-43.65 7.229-63.271 2.04 6.83 3.16 13.82 3.34 20.95 0.181 6.9-0.05 14.01-1.229 20.82 2.29-5.99 4.412-15.707 4.412-17.556C160.342 74.499 158.489 81.005 156.85 87.045z" fill="#000000" stroke-width="none" opacity="1" stroke="none"/>
          </g>
          <g id="svga-group-glasses-single-move" transform="matrix(1,0,0,1,0,0)">
            <g id="svga-group-glasses-single" transform="matrix(1,0,0,1,0,0)">
              <path id="SvgjsPath8968" d="M142.29 97.41c-4.18 2.89-9.99 4.5-16.48 3.86 -10.05-0.98-16.01-7.51-18.24-13.28 -1.93-4.85-1.14-8.25 2.64-11.36 2.87-2.36 8.27-4.17 14.16-4.76C135.43 75.65 145.22 86.87 142.29 97.41zM67.01 71.94c-6.66 0.84-12.69 3.67-15.12 9.47 -4.22 10.71 7.21 21.33 22.29 19.86 4.2-0.41 7.68-1.8 10.48-3.69C87.73 87.06 78.04 75.82 67.01 71.94z" fill="#ffffff" stroke-width="none" opacity="0.2"/>
              <path id="SvgjsPath8969" d="M142.29 97.41c2.93-10.54-6.86-21.75-17.91-25.54 9.5-0.95 20.27 1.28 23.73 9.54C150.51 87.51 147.83 93.58 142.29 97.41zM89.78 76.62c-4.25-3.5-14.06-5.79-22.77-4.68 11.03 3.88 20.72 15.12 17.65 25.64 3.89-2.63 6.46-6.23 7.76-9.6C94.36 83.14 93.57 79.74 89.78 76.62z" fill="#ffffff" stroke-width="none" opacity="0.4"/>
              <path id="SvgjsPath8970" d="M153.71 83.76c-0.2-0.95-0.69-2.01-1.04-2.35 -0.7-0.7-2.57-1.14-3.87-1.19 -6.82-14.51-37.85-11.21-42.69-0.22 -3.34-1.97-8.87-1.98-12.23 0 -4.85-11-35.88-14.29-42.69 0.22 -1.3 0.05-3.17 0.49-3.87 1.19 -0.34 0.34-0.84 1.4-1.04 2.35 -0.13 0.63-0.6 1.16-0.44 1.53 0.44 1 1.33 0.38 1.71 0.13 0.29-0.1 1.55 0.06 2.36 0.69 0.08 9.47 10.7 17.59 24.38 16.25 13.97-1.36 21.1-13.38 20.15-20.44 1.91-1.42 9.19-1.43 11.11 0 -0.95 7.05 6.18 19.07 20.15 20.44 13.67 1.34 24.3-6.78 24.38-16.25 0.81-0.63 2.06-0.79 2.36-0.69 0.38 0.25 1.28 0.87 1.72-0.13C154.31 84.92 153.84 84.39 153.71 83.76zM50.03 84.34c-0.7-0.33-1.46-0.53-2.11-0.53 0.14-0.52 0.37-1.11 0.53-1.27 0.26-0.26 1.12-0.64 2.07-0.61C50.28 82.71 50.12 83.52 50.03 84.34zM91.98 87.81c-2.16 5.6-7.98 12.01-17.83 12.98 -14.85 1.45-25.84-8.92-21.8-19.2 0.1-0.24 0.15-0.35 0.22-0.54C58.11 68.82 82.13 70.96 89.48 77 92.8 79.73 93.99 82.75 91.98 87.81zM125.86 100.79c-9.85-0.96-15.68-7.38-17.84-12.98 -2.02-5.06-0.82-8.08 2.5-10.81 7.35-6.04 31.36-8.17 36.91 4.04 0.07 0.2 0.13 0.3 0.22 0.54C151.7 91.86 140.7 102.24 125.86 100.79zM149.97 84.34c-0.1-0.82-0.25-1.63-0.49-2.41 0.95-0.03 1.81 0.34 2.07 0.61 0.16 0.17 0.39 0.75 0.53 1.27C151.43 83.82 150.67 84.01 149.97 84.34z" fill="#da6972" stroke-width="none" opacity="1"/>
            </g>
          </g>
        </g>
      </g>
    </g>
    <rect id="SvgjsRect8617" width="200" height="15" x="0" y="185" fill="#ecf0f1" opacity="0.5" style="display: none;"/>
    <text id="SvgjsText8618" font-family="Roboto, Helvetica, Arial, sans-serif" font-size="10px" text-anchor="start" font-weight="400" anchor="start" fill="#333333" x="58.03125" y="182.4140625" style="display: none;">
      <tspan id="SvgjsTspan8619" dy="13" x="58.03125">Created on face.co</tspan>
    </text>
  </g>
</svg>
